G04 PROTEUS RS274X GERBER FILE*
%FSLAX26Y26*%
%MOIN*%
G01*
%ADD29C,0.095000*%
%ADD15C,0.065354*%
%ADD72C,0.090000*%
%ADD17C,0.150000*%
%ADD18C,0.076772*%
%AMPPAD023*
4,1,4,
-0.032480,0.032480,
0.032480,0.032480,
0.032480,-0.032480,
-0.032480,-0.032480,
-0.032480,0.032480,
0*%
%ADD73PPAD023*%
%ADD71C,0.064961*%
%ADD25C,0.004000*%
D29*
X+1026276Y+279819D03*
X+1126276Y+279819D03*
X+1226276Y+279819D03*
X+1326276Y+279819D03*
X+1426276Y+279819D03*
X+1526276Y+279819D03*
X+1626276Y+279819D03*
X+1726276Y+279819D03*
X+1826276Y+279819D03*
X+1926276Y+279819D03*
X+2026276Y+279819D03*
X+2126276Y+279819D03*
X+2226276Y+279819D03*
X+2326276Y+279819D03*
X+2426276Y+279819D03*
X+2526276Y+279819D03*
D15*
X+2526276Y+1079819D03*
X+2426276Y+1079819D03*
X+2326276Y+1079819D03*
X+2226276Y+1079819D03*
X+2126276Y+1079819D03*
X+2026276Y+1079819D03*
X+1926276Y+1079819D03*
X+1826276Y+1079819D03*
X+1726276Y+1079819D03*
X+1626276Y+1079819D03*
X+1526276Y+1079819D03*
D72*
X+1426276Y+1079819D03*
D17*
X+876276Y+329819D03*
X+876276Y+1029819D03*
X+2676276Y+329819D03*
X+2676276Y+1029819D03*
D72*
X+2526276Y+1079331D03*
X+2426276Y+1079331D03*
X+2326276Y+1079331D03*
X+2226276Y+1079331D03*
X+2126276Y+1079331D03*
X+2026276Y+1079331D03*
X+1926276Y+1079331D03*
X+1826276Y+1079331D03*
X+1726276Y+1079331D03*
X+1626276Y+1079331D03*
X+1526276Y+1079331D03*
X+1426276Y+1079331D03*
D18*
X+2909653Y+967874D03*
X+2909653Y+1067874D03*
X+2912149Y+342583D03*
X+2912149Y+442583D03*
X+2912149Y+542583D03*
D73*
X+1026276Y+279819D03*
D71*
X+1126276Y+279819D03*
X+1226276Y+279819D03*
X+1326276Y+279819D03*
X+1426276Y+279819D03*
X+1526276Y+279819D03*
X+1626276Y+279819D03*
X+1726276Y+279819D03*
X+1826276Y+279819D03*
X+1926276Y+279819D03*
X+2026276Y+279819D03*
X+2126276Y+279819D03*
X+2226276Y+279819D03*
X+2326276Y+279819D03*
X+2426276Y+279819D03*
X+2526276Y+279819D03*
D25*
X+775591Y+228346D02*
X+3102362Y+228346D01*
X+3102362Y+1129921D01*
X+775591Y+1129921D01*
X+775591Y+228346D01*
M02*
