G04 PROTEUS RS274X GERBER FILE*
%FSLAX26Y26*%
%MOIN*%
G01*
%ADD10C,0.025000*%
%ADD11C,0.010000*%
%ADD12C,0.030000*%
%ADD13C,0.006000*%
%ADD14C,0.075000*%
%ADD15C,0.065354*%
%ADD16C,0.070000*%
%ADD17C,0.150000*%
%ADD18C,0.076772*%
%ADD19R,0.064961X0.064961*%
%ADD70C,0.010000*%
%ADD71C,0.064961*%
%ADD20R,0.040000X0.060000*%
%ADD21R,0.048000X0.078000*%
%ADD22R,0.060000X0.040000*%
%ADD23R,0.059055X0.098425*%
%ADD24R,0.275591X0.275591*%
%ADD25C,0.004000*%
G36*
X+3087362Y+243346D02*
X+2714254Y+243346D01*
X+2764275Y+293368D01*
X+2764275Y+366270D01*
X+2712726Y+417819D01*
X+2639825Y+417819D01*
X+2588276Y+366270D01*
X+2588276Y+293368D01*
X+2638298Y+243346D01*
X+2562635Y+243346D01*
X+2577775Y+258487D01*
X+2577775Y+301151D01*
X+2547607Y+331319D01*
X+2504944Y+331319D01*
X+2476276Y+302650D01*
X+2447607Y+331319D01*
X+2447133Y+331319D01*
X+2447133Y+357575D01*
X+2463133Y+357575D01*
X+2463133Y+383575D01*
X+2474391Y+383575D01*
X+2515399Y+424583D01*
X+2860764Y+424583D01*
X+2860764Y+421298D01*
X+2889479Y+392583D01*
X+2860764Y+363867D01*
X+2860764Y+321298D01*
X+2890865Y+291197D01*
X+2933434Y+291197D01*
X+2963535Y+321298D01*
X+2963535Y+363867D01*
X+2934819Y+392583D01*
X+2963535Y+421298D01*
X+2963535Y+463867D01*
X+2934819Y+492583D01*
X+2963535Y+521298D01*
X+2963535Y+563867D01*
X+2933434Y+593968D01*
X+2890865Y+593968D01*
X+2860764Y+563867D01*
X+2860764Y+521298D01*
X+2889479Y+492583D01*
X+2860764Y+463867D01*
X+2860764Y+460582D01*
X+2500488Y+460582D01*
X+2463133Y+423228D01*
X+2463133Y+445574D01*
X+2395134Y+445574D01*
X+2395134Y+357575D01*
X+2411134Y+357575D01*
X+2411134Y+331319D01*
X+2404944Y+331319D01*
X+2376276Y+302650D01*
X+2347607Y+331319D01*
X+2304944Y+331319D01*
X+2276276Y+302650D01*
X+2247607Y+331319D01*
X+2204944Y+331319D01*
X+2176276Y+302650D01*
X+2147607Y+331319D01*
X+2104944Y+331319D01*
X+2076276Y+302650D01*
X+2047607Y+331319D01*
X+2004944Y+331319D01*
X+1976276Y+302650D01*
X+1947607Y+331319D01*
X+1904944Y+331319D01*
X+1876276Y+302650D01*
X+1847607Y+331319D01*
X+1804944Y+331319D01*
X+1776276Y+302650D01*
X+1747607Y+331319D01*
X+1704944Y+331319D01*
X+1676276Y+302650D01*
X+1647607Y+331319D01*
X+1604944Y+331319D01*
X+1576276Y+302650D01*
X+1547607Y+331319D01*
X+1504944Y+331319D01*
X+1476276Y+302650D01*
X+1447607Y+331319D01*
X+1404944Y+331319D01*
X+1374776Y+301151D01*
X+1374776Y+258487D01*
X+1389917Y+243346D01*
X+1262635Y+243346D01*
X+1277775Y+258487D01*
X+1277775Y+301151D01*
X+1247607Y+331319D01*
X+1204944Y+331319D01*
X+1176276Y+302650D01*
X+1147607Y+331319D01*
X+1144275Y+331319D01*
X+1144275Y+374726D01*
X+1153125Y+383575D01*
X+2271134Y+383575D01*
X+2271134Y+357575D01*
X+2339133Y+357575D01*
X+2339133Y+445574D01*
X+2333317Y+445574D01*
X+2333317Y+465127D01*
X+2316915Y+481529D01*
X+2293720Y+481529D01*
X+2277318Y+465127D01*
X+2277318Y+445574D01*
X+2271134Y+445574D01*
X+2271134Y+419574D01*
X+1138214Y+419574D01*
X+1108276Y+389637D01*
X+1108276Y+331319D01*
X+1104944Y+331319D01*
X+1076276Y+302650D01*
X+1071756Y+307170D01*
X+1071756Y+325299D01*
X+1053627Y+325299D01*
X+1047607Y+331319D01*
X+1004944Y+331319D01*
X+998924Y+325299D01*
X+980796Y+325299D01*
X+980796Y+307170D01*
X+974776Y+301151D01*
X+974776Y+258487D01*
X+980796Y+252467D01*
X+980796Y+243346D01*
X+914254Y+243346D01*
X+964275Y+293368D01*
X+964275Y+366270D01*
X+912726Y+417819D01*
X+839825Y+417819D01*
X+790591Y+368584D01*
X+790591Y+991054D01*
X+839825Y+941819D01*
X+912726Y+941819D01*
X+964275Y+993368D01*
X+964275Y+1066270D01*
X+915624Y+1114921D01*
X+1392082Y+1114921D01*
X+1377276Y+1100115D01*
X+1377276Y+1059034D01*
X+1405979Y+1030331D01*
X+1446572Y+1030331D01*
X+1475275Y+1059034D01*
X+1475275Y+1100115D01*
X+1460469Y+1114921D01*
X+1492570Y+1114921D01*
X+1477276Y+1099627D01*
X+1477276Y+1059034D01*
X+1505979Y+1030331D01*
X+1546572Y+1030331D01*
X+1575275Y+1059034D01*
X+1575275Y+1099627D01*
X+1559981Y+1114921D01*
X+1592570Y+1114921D01*
X+1577276Y+1099627D01*
X+1577276Y+1059034D01*
X+1600776Y+1035534D01*
X+1600776Y+721430D01*
X+1642981Y+679225D01*
X+1796646Y+679225D01*
X+1796646Y+651725D01*
X+1872645Y+651725D01*
X+1872645Y+757724D01*
X+1860145Y+757724D01*
X+1860145Y+812273D01*
X+1873554Y+825682D01*
X+1950878Y+825681D01*
X+1950878Y+738724D01*
X+1932378Y+738724D01*
X+1932378Y+670725D01*
X+2020378Y+670725D01*
X+2020378Y+738724D01*
X+2001878Y+738724D01*
X+2001878Y+825681D01*
X+2069678Y+825681D01*
X+2069678Y+700386D01*
X+2371267Y+700386D01*
X+2371267Y+1001976D01*
X+2069678Y+1001976D01*
X+2069678Y+876681D01*
X+1965816Y+876681D01*
X+1852430Y+876680D01*
X+1809146Y+833397D01*
X+1809146Y+822835D01*
X+1809146Y+757724D01*
X+1796646Y+757724D01*
X+1796646Y+730224D01*
X+1664105Y+730224D01*
X+1651775Y+742554D01*
X+1651775Y+1035534D01*
X+1675275Y+1059034D01*
X+1675275Y+1099627D01*
X+1659981Y+1114921D01*
X+1692570Y+1114921D01*
X+1677276Y+1099627D01*
X+1677276Y+1059034D01*
X+1705979Y+1030331D01*
X+1746572Y+1030331D01*
X+1775275Y+1059034D01*
X+1775275Y+1099627D01*
X+1759981Y+1114921D01*
X+1792570Y+1114921D01*
X+1777276Y+1099627D01*
X+1777276Y+1059034D01*
X+1805979Y+1030331D01*
X+1846572Y+1030331D01*
X+1875275Y+1059034D01*
X+1875275Y+1099627D01*
X+1859981Y+1114921D01*
X+1892570Y+1114921D01*
X+1877276Y+1099627D01*
X+1877276Y+1059034D01*
X+1905979Y+1030331D01*
X+1946572Y+1030331D01*
X+1975275Y+1059034D01*
X+1975275Y+1099627D01*
X+1959981Y+1114921D01*
X+1992570Y+1114921D01*
X+1977276Y+1099627D01*
X+1977276Y+1059034D01*
X+2005979Y+1030331D01*
X+2046572Y+1030331D01*
X+2075275Y+1059034D01*
X+2075275Y+1099627D01*
X+2059981Y+1114921D01*
X+2092570Y+1114921D01*
X+2077276Y+1099627D01*
X+2077276Y+1059034D01*
X+2105979Y+1030331D01*
X+2146572Y+1030331D01*
X+2175275Y+1059034D01*
X+2175275Y+1099627D01*
X+2159981Y+1114921D01*
X+2192570Y+1114921D01*
X+2177276Y+1099627D01*
X+2177276Y+1059034D01*
X+2205979Y+1030331D01*
X+2246572Y+1030331D01*
X+2275275Y+1059034D01*
X+2275275Y+1099627D01*
X+2259981Y+1114921D01*
X+2292570Y+1114921D01*
X+2277276Y+1099627D01*
X+2277276Y+1059034D01*
X+2305979Y+1030331D01*
X+2346572Y+1030331D01*
X+2375275Y+1059034D01*
X+2375275Y+1099627D01*
X+2359981Y+1114921D01*
X+2392570Y+1114921D01*
X+2377276Y+1099627D01*
X+2377276Y+1059034D01*
X+2405979Y+1030331D01*
X+2446572Y+1030331D01*
X+2475275Y+1059034D01*
X+2475275Y+1099627D01*
X+2459981Y+1114921D01*
X+2492570Y+1114921D01*
X+2477276Y+1099627D01*
X+2477276Y+1059034D01*
X+2505979Y+1030331D01*
X+2546572Y+1030331D01*
X+2575275Y+1059034D01*
X+2575275Y+1099627D01*
X+2559981Y+1114921D01*
X+2636928Y+1114921D01*
X+2588276Y+1066270D01*
X+2588276Y+993368D01*
X+2639825Y+941819D01*
X+2712726Y+941819D01*
X+2764275Y+993368D01*
X+2764275Y+1066270D01*
X+2715624Y+1114921D01*
X+3087362Y+1114921D01*
X+3087362Y+243346D01*
G37*
%LPC*%
G36*
X+1350929Y+290031D02*
X+1350929Y+269607D01*
X+1336487Y+255165D01*
X+1316064Y+255165D01*
X+1301622Y+269607D01*
X+1301622Y+290031D01*
X+1316064Y+304472D01*
X+1336487Y+304472D01*
X+1350929Y+290031D01*
G37*
G36*
X+2961039Y+989159D02*
X+2961039Y+946589D01*
X+2935153Y+920704D01*
X+2935153Y+846524D01*
X+2901712Y+813083D01*
X+2754657Y+813083D01*
X+2749909Y+808336D01*
X+2749909Y+587863D01*
X+2715286Y+553241D01*
X+2648236Y+553241D01*
X+2648236Y+525741D01*
X+2572237Y+525741D01*
X+2572237Y+553241D01*
X+2540063Y+553241D01*
X+2540063Y+544741D01*
X+2452063Y+544741D01*
X+2452063Y+553241D01*
X+2353551Y+553241D01*
X+2353551Y+517315D01*
X+2268496Y+517315D01*
X+2268496Y+641740D01*
X+2353551Y+641740D01*
X+2353551Y+604240D01*
X+2452063Y+604240D01*
X+2452063Y+612740D01*
X+2540063Y+612740D01*
X+2540063Y+604240D01*
X+2572237Y+604240D01*
X+2572237Y+631740D01*
X+2648236Y+631740D01*
X+2648236Y+604240D01*
X+2694163Y+604240D01*
X+2698910Y+608987D01*
X+2698910Y+829459D01*
X+2733532Y+864082D01*
X+2880587Y+864082D01*
X+2884154Y+867648D01*
X+2884154Y+920704D01*
X+2858268Y+946589D01*
X+2858268Y+989159D01*
X+2888369Y+1019259D01*
X+2930938Y+1019259D01*
X+2961039Y+989159D01*
G37*
G36*
X+2921496Y+1039283D02*
X+2897811Y+1039283D01*
X+2881063Y+1056031D01*
X+2881063Y+1079717D01*
X+2897811Y+1096465D01*
X+2921496Y+1096465D01*
X+2938244Y+1079717D01*
X+2938244Y+1056031D01*
X+2921496Y+1039283D01*
G37*
G36*
X+2572237Y+635977D02*
X+2572237Y+741976D01*
X+2648236Y+741976D01*
X+2648236Y+635977D01*
X+2572237Y+635977D01*
G37*
G36*
X+2452063Y+668741D02*
X+2452063Y+736740D01*
X+2540063Y+736740D01*
X+2540063Y+668741D01*
X+2452063Y+668741D01*
G37*
G36*
X+2087394Y+641740D02*
X+2172448Y+641740D01*
X+2172448Y+517315D01*
X+2087394Y+517315D01*
X+2087394Y+641740D01*
G37*
G36*
X+2020378Y+614724D02*
X+2020378Y+546725D01*
X+1932378Y+546725D01*
X+1932378Y+614724D01*
X+2020378Y+614724D01*
G37*
G36*
X+1872645Y+647488D02*
X+1872645Y+541489D01*
X+1796646Y+541489D01*
X+1796646Y+647488D01*
X+1872645Y+647488D01*
G37*
%LPD*%
D10*
X+2610236Y+578740D02*
X+2496063Y+578740D01*
X+2311811Y+578740D01*
X+2311024Y+579528D01*
X+1976378Y+704724D02*
X+1976378Y+851181D01*
X+2220472Y+851181D02*
X+1976378Y+851181D01*
X+1862992Y+851181D01*
X+1834646Y+822835D01*
X+1834646Y+704724D01*
X+1626276Y+1079331D02*
X+1626276Y+731992D01*
X+1653543Y+704724D01*
X+1834646Y+704724D01*
X+2610236Y+578740D02*
X+2704724Y+578740D01*
X+2724409Y+598425D01*
X+2724409Y+818898D01*
X+2744094Y+838583D01*
X+2891150Y+838583D01*
X+2909653Y+857086D01*
X+2909653Y+967874D01*
D11*
X+2429134Y+401575D02*
X+2466935Y+401575D01*
X+2492466Y+427105D01*
X+2507943Y+442583D01*
X+2912149Y+442583D01*
X+2305134Y+401575D02*
X+1145669Y+401575D01*
X+1126276Y+382181D01*
X+1126276Y+279819D01*
X+2429134Y+401575D02*
X+2429134Y+282677D01*
X+2426276Y+279819D01*
X+2305134Y+401575D02*
X+2305134Y+453346D01*
X+2305317Y+453530D01*
D12*
X+2305317Y+453530D03*
D13*
X+3087362Y+243346D02*
X+2714254Y+243346D01*
X+2764275Y+293368D01*
X+2764275Y+366270D01*
X+2712726Y+417819D01*
X+2639825Y+417819D01*
X+2588276Y+366270D01*
X+2588276Y+293368D01*
X+2638298Y+243346D01*
X+2562635Y+243346D01*
X+2577775Y+258487D01*
X+2577775Y+301151D01*
X+2547607Y+331319D01*
X+2504944Y+331319D01*
X+2476276Y+302650D01*
X+2447607Y+331319D01*
X+2447133Y+331319D01*
X+2447133Y+357575D01*
X+2463133Y+357575D01*
X+2463133Y+383575D01*
X+2474391Y+383575D01*
X+2515399Y+424583D01*
X+2860764Y+424583D01*
X+2860764Y+421298D01*
X+2889479Y+392583D01*
X+2860764Y+363867D01*
X+2860764Y+321298D01*
X+2890865Y+291197D01*
X+2933434Y+291197D01*
X+2963535Y+321298D01*
X+2963535Y+363867D01*
X+2934819Y+392583D01*
X+2963535Y+421298D01*
X+2963535Y+463867D01*
X+2934819Y+492583D01*
X+2963535Y+521298D01*
X+2963535Y+563867D01*
X+2933434Y+593968D01*
X+2890865Y+593968D01*
X+2860764Y+563867D01*
X+2860764Y+521298D01*
X+2889479Y+492583D01*
X+2860764Y+463867D01*
X+2860764Y+460582D01*
X+2500488Y+460582D01*
X+2463133Y+423228D01*
X+2463133Y+445574D01*
X+2395134Y+445574D01*
X+2395134Y+357575D01*
X+2411134Y+357575D01*
X+2411134Y+331319D01*
X+2404944Y+331319D01*
X+2376276Y+302650D01*
X+2347607Y+331319D01*
X+2304944Y+331319D01*
X+2276276Y+302650D01*
X+2247607Y+331319D01*
X+2204944Y+331319D01*
X+2176276Y+302650D01*
X+2147607Y+331319D01*
X+2104944Y+331319D01*
X+2076276Y+302650D01*
X+2047607Y+331319D01*
X+2004944Y+331319D01*
X+1976276Y+302650D01*
X+1947607Y+331319D01*
X+1904944Y+331319D01*
X+1876276Y+302650D01*
X+1847607Y+331319D01*
X+1804944Y+331319D01*
X+1776276Y+302650D01*
X+1747607Y+331319D01*
X+1704944Y+331319D01*
X+1676276Y+302650D01*
X+1647607Y+331319D01*
X+1604944Y+331319D01*
X+1576276Y+302650D01*
X+1547607Y+331319D01*
X+1504944Y+331319D01*
X+1476276Y+302650D01*
X+1447607Y+331319D01*
X+1404944Y+331319D01*
X+1374776Y+301151D01*
X+1374776Y+258487D01*
X+1389917Y+243346D01*
X+1262635Y+243346D01*
X+1277775Y+258487D01*
X+1277775Y+301151D01*
X+1247607Y+331319D01*
X+1204944Y+331319D01*
X+1176276Y+302650D01*
X+1147607Y+331319D01*
X+1144275Y+331319D01*
X+1144275Y+374726D01*
X+1153125Y+383575D01*
X+2271134Y+383575D01*
X+2271134Y+357575D01*
X+2339133Y+357575D01*
X+2339133Y+445574D01*
X+2333317Y+445574D01*
X+2333317Y+465127D01*
X+2316915Y+481529D01*
X+2293720Y+481529D01*
X+2277318Y+465127D01*
X+2277318Y+445574D01*
X+2271134Y+445574D01*
X+2271134Y+419574D01*
X+1138214Y+419574D01*
X+1108276Y+389637D01*
X+1108276Y+331319D01*
X+1104944Y+331319D01*
X+1076276Y+302650D01*
X+1071756Y+307170D01*
X+1071756Y+325299D01*
X+1053627Y+325299D01*
X+1047607Y+331319D01*
X+1004944Y+331319D01*
X+998924Y+325299D01*
X+980796Y+325299D01*
X+980796Y+307170D01*
X+974776Y+301151D01*
X+974776Y+258487D01*
X+980796Y+252467D01*
X+980796Y+243346D01*
X+914254Y+243346D01*
X+964275Y+293368D01*
X+964275Y+366270D01*
X+912726Y+417819D01*
X+839825Y+417819D01*
X+790591Y+368584D01*
X+790591Y+991054D01*
X+839825Y+941819D01*
X+912726Y+941819D01*
X+964275Y+993368D01*
X+964275Y+1066270D01*
X+915624Y+1114921D01*
X+1392082Y+1114921D01*
X+1377276Y+1100115D01*
X+1377276Y+1059034D01*
X+1405979Y+1030331D01*
X+1446572Y+1030331D01*
X+1475275Y+1059034D01*
X+1475275Y+1100115D01*
X+1460469Y+1114921D01*
X+1492570Y+1114921D01*
X+1477276Y+1099627D01*
X+1477276Y+1059034D01*
X+1505979Y+1030331D01*
X+1546572Y+1030331D01*
X+1575275Y+1059034D01*
X+1575275Y+1099627D01*
X+1559981Y+1114921D01*
X+1592570Y+1114921D01*
X+1577276Y+1099627D01*
X+1577276Y+1059034D01*
X+1600776Y+1035534D01*
X+1600776Y+721430D01*
X+1642981Y+679225D01*
X+1796646Y+679225D01*
X+1796646Y+651725D01*
X+1872645Y+651725D01*
X+1872645Y+757724D01*
X+1860145Y+757724D01*
X+1860145Y+812273D01*
X+1873554Y+825682D01*
X+1950878Y+825681D01*
X+1950878Y+738724D01*
X+1932378Y+738724D01*
X+1932378Y+670725D01*
X+2020378Y+670725D01*
X+2020378Y+738724D01*
X+2001878Y+738724D01*
X+2001878Y+825681D01*
X+2069678Y+825681D01*
X+2069678Y+700386D01*
X+2371267Y+700386D01*
X+2371267Y+1001976D01*
X+2069678Y+1001976D01*
X+2069678Y+876681D01*
X+1965816Y+876681D01*
X+1852430Y+876680D01*
X+1809146Y+833397D01*
X+1809146Y+822835D01*
X+1809146Y+757724D01*
X+1796646Y+757724D01*
X+1796646Y+730224D01*
X+1664105Y+730224D01*
X+1651775Y+742554D01*
X+1651775Y+1035534D01*
X+1675275Y+1059034D01*
X+1675275Y+1099627D01*
X+1659981Y+1114921D01*
X+1692570Y+1114921D01*
X+1677276Y+1099627D01*
X+1677276Y+1059034D01*
X+1705979Y+1030331D01*
X+1746572Y+1030331D01*
X+1775275Y+1059034D01*
X+1775275Y+1099627D01*
X+1759981Y+1114921D01*
X+1792570Y+1114921D01*
X+1777276Y+1099627D01*
X+1777276Y+1059034D01*
X+1805979Y+1030331D01*
X+1846572Y+1030331D01*
X+1875275Y+1059034D01*
X+1875275Y+1099627D01*
X+1859981Y+1114921D01*
X+1892570Y+1114921D01*
X+1877276Y+1099627D01*
X+1877276Y+1059034D01*
X+1905979Y+1030331D01*
X+1946572Y+1030331D01*
X+1975275Y+1059034D01*
X+1975275Y+1099627D01*
X+1959981Y+1114921D01*
X+1992570Y+1114921D01*
X+1977276Y+1099627D01*
X+1977276Y+1059034D01*
X+2005979Y+1030331D01*
X+2046572Y+1030331D01*
X+2075275Y+1059034D01*
X+2075275Y+1099627D01*
X+2059981Y+1114921D01*
X+2092570Y+1114921D01*
X+2077276Y+1099627D01*
X+2077276Y+1059034D01*
X+2105979Y+1030331D01*
X+2146572Y+1030331D01*
X+2175275Y+1059034D01*
X+2175275Y+1099627D01*
X+2159981Y+1114921D01*
X+2192570Y+1114921D01*
X+2177276Y+1099627D01*
X+2177276Y+1059034D01*
X+2205979Y+1030331D01*
X+2246572Y+1030331D01*
X+2275275Y+1059034D01*
X+2275275Y+1099627D01*
X+2259981Y+1114921D01*
X+2292570Y+1114921D01*
X+2277276Y+1099627D01*
X+2277276Y+1059034D01*
X+2305979Y+1030331D01*
X+2346572Y+1030331D01*
X+2375275Y+1059034D01*
X+2375275Y+1099627D01*
X+2359981Y+1114921D01*
X+2392570Y+1114921D01*
X+2377276Y+1099627D01*
X+2377276Y+1059034D01*
X+2405979Y+1030331D01*
X+2446572Y+1030331D01*
X+2475275Y+1059034D01*
X+2475275Y+1099627D01*
X+2459981Y+1114921D01*
X+2492570Y+1114921D01*
X+2477276Y+1099627D01*
X+2477276Y+1059034D01*
X+2505979Y+1030331D01*
X+2546572Y+1030331D01*
X+2575275Y+1059034D01*
X+2575275Y+1099627D01*
X+2559981Y+1114921D01*
X+2636928Y+1114921D01*
X+2588276Y+1066270D01*
X+2588276Y+993368D01*
X+2639825Y+941819D01*
X+2712726Y+941819D01*
X+2764275Y+993368D01*
X+2764275Y+1066270D01*
X+2715624Y+1114921D01*
X+3087362Y+1114921D01*
X+3087362Y+243346D01*
X+1350929Y+290031D02*
X+1350929Y+269607D01*
X+1336487Y+255165D01*
X+1316064Y+255165D01*
X+1301622Y+269607D01*
X+1301622Y+290031D01*
X+1316064Y+304472D01*
X+1336487Y+304472D01*
X+1350929Y+290031D01*
X+2961039Y+989159D02*
X+2961039Y+946589D01*
X+2935153Y+920704D01*
X+2935153Y+846524D01*
X+2901712Y+813083D01*
X+2754657Y+813083D01*
X+2749909Y+808336D01*
X+2749909Y+587863D01*
X+2715286Y+553241D01*
X+2648236Y+553241D01*
X+2648236Y+525741D01*
X+2572237Y+525741D01*
X+2572237Y+553241D01*
X+2540063Y+553241D01*
X+2540063Y+544741D01*
X+2452063Y+544741D01*
X+2452063Y+553241D01*
X+2353551Y+553241D01*
X+2353551Y+517315D01*
X+2268496Y+517315D01*
X+2268496Y+641740D01*
X+2353551Y+641740D01*
X+2353551Y+604240D01*
X+2452063Y+604240D01*
X+2452063Y+612740D01*
X+2540063Y+612740D01*
X+2540063Y+604240D01*
X+2572237Y+604240D01*
X+2572237Y+631740D01*
X+2648236Y+631740D01*
X+2648236Y+604240D01*
X+2694163Y+604240D01*
X+2698910Y+608987D01*
X+2698910Y+829459D01*
X+2733532Y+864082D01*
X+2880587Y+864082D01*
X+2884154Y+867648D01*
X+2884154Y+920704D01*
X+2858268Y+946589D01*
X+2858268Y+989159D01*
X+2888369Y+1019259D01*
X+2930938Y+1019259D01*
X+2961039Y+989159D01*
X+2921496Y+1039283D02*
X+2897811Y+1039283D01*
X+2881063Y+1056031D01*
X+2881063Y+1079717D01*
X+2897811Y+1096465D01*
X+2921496Y+1096465D01*
X+2938244Y+1079717D01*
X+2938244Y+1056031D01*
X+2921496Y+1039283D01*
X+2572237Y+635977D02*
X+2572237Y+741976D01*
X+2648236Y+741976D01*
X+2648236Y+635977D01*
X+2572237Y+635977D01*
X+2452063Y+668741D02*
X+2452063Y+736740D01*
X+2540063Y+736740D01*
X+2540063Y+668741D01*
X+2452063Y+668741D01*
X+2087394Y+641740D02*
X+2172448Y+641740D01*
X+2172448Y+517315D01*
X+2087394Y+517315D01*
X+2087394Y+641740D01*
X+2020378Y+614724D02*
X+2020378Y+546725D01*
X+1932378Y+546725D01*
X+1932378Y+614724D01*
X+2020378Y+614724D01*
X+1872645Y+647488D02*
X+1872645Y+541489D01*
X+1796646Y+541489D01*
X+1796646Y+647488D01*
X+1872645Y+647488D01*
X+2912149Y+593968D02*
X+2912149Y+542583D01*
X+2963535Y+542583D02*
X+2912149Y+542583D01*
X+2860764Y+542583D02*
X+2912149Y+542583D01*
X+2610236Y+635977D02*
X+2610236Y+688976D01*
X+2610236Y+741976D02*
X+2610236Y+688976D01*
X+2648236Y+688976D02*
X+2610236Y+688976D01*
X+2572237Y+688976D02*
X+2610236Y+688976D01*
X+2496063Y+668741D02*
X+2496063Y+702740D01*
X+2496063Y+736740D02*
X+2496063Y+702740D01*
X+2540063Y+702740D02*
X+2496063Y+702740D01*
X+2452063Y+702740D02*
X+2496063Y+702740D01*
X+2087394Y+579528D02*
X+2129921Y+579528D01*
X+2172448Y+579528D02*
X+2129921Y+579528D01*
X+2129921Y+517315D02*
X+2129921Y+579528D01*
X+2129921Y+641740D02*
X+2129921Y+579528D01*
X+1976378Y+614724D02*
X+1976378Y+580724D01*
X+1976378Y+546725D02*
X+1976378Y+580724D01*
X+1932378Y+580724D02*
X+1976378Y+580724D01*
X+2020378Y+580724D02*
X+1976378Y+580724D01*
X+1834646Y+647488D02*
X+1834646Y+594488D01*
X+1834646Y+541489D02*
X+1834646Y+594488D01*
X+1796646Y+594488D02*
X+1834646Y+594488D01*
X+1872645Y+594488D02*
X+1834646Y+594488D01*
D14*
X+1026276Y+279819D03*
X+1126276Y+279819D03*
X+1226276Y+279819D03*
X+1326276Y+279819D03*
X+1426276Y+279819D03*
X+1526276Y+279819D03*
X+1626276Y+279819D03*
X+1726276Y+279819D03*
X+1826276Y+279819D03*
X+1926276Y+279819D03*
X+2026276Y+279819D03*
X+2126276Y+279819D03*
X+2226276Y+279819D03*
X+2326276Y+279819D03*
X+2426276Y+279819D03*
X+2526276Y+279819D03*
D15*
X+2526276Y+1079819D03*
X+2426276Y+1079819D03*
X+2326276Y+1079819D03*
X+2226276Y+1079819D03*
X+2126276Y+1079819D03*
X+2026276Y+1079819D03*
X+1926276Y+1079819D03*
X+1826276Y+1079819D03*
X+1726276Y+1079819D03*
X+1626276Y+1079819D03*
X+1526276Y+1079819D03*
D16*
X+1426276Y+1079819D03*
D17*
X+876276Y+329819D03*
X+876276Y+1029819D03*
X+2676276Y+329819D03*
X+2676276Y+1029819D03*
D16*
X+2526276Y+1079331D03*
X+2426276Y+1079331D03*
X+2326276Y+1079331D03*
X+2226276Y+1079331D03*
X+2126276Y+1079331D03*
X+2026276Y+1079331D03*
X+1926276Y+1079331D03*
X+1826276Y+1079331D03*
X+1726276Y+1079331D03*
X+1626276Y+1079331D03*
X+1526276Y+1079331D03*
X+1426276Y+1079331D03*
D18*
X+2909653Y+967874D03*
X+2909653Y+1067874D03*
X+2912149Y+342583D03*
X+2912149Y+442583D03*
X+2912149Y+542583D03*
D19*
X+1026276Y+279819D03*
D70*
X+1026276Y+279819D03*
D71*
X+1126276Y+279819D03*
X+1226276Y+279819D03*
X+1326276Y+279819D03*
X+1426276Y+279819D03*
X+1526276Y+279819D03*
X+1626276Y+279819D03*
X+1726276Y+279819D03*
X+1826276Y+279819D03*
X+1926276Y+279819D03*
X+2026276Y+279819D03*
X+2126276Y+279819D03*
X+2226276Y+279819D03*
X+2326276Y+279819D03*
X+2426276Y+279819D03*
X+2526276Y+279819D03*
D20*
X+2305134Y+401575D03*
X+2429134Y+401575D03*
D21*
X+2610236Y+578740D03*
X+2610236Y+688976D03*
D22*
X+2496063Y+578740D03*
X+2496063Y+702740D03*
D23*
X+2129921Y+579528D03*
D24*
X+2220472Y+851181D03*
D23*
X+2311024Y+579528D03*
D22*
X+1976378Y+704724D03*
X+1976378Y+580724D03*
D21*
X+1834646Y+704724D03*
X+1834646Y+594488D03*
D25*
X+775591Y+228346D02*
X+3102362Y+228346D01*
X+3102362Y+1129921D01*
X+775591Y+1129921D01*
X+775591Y+228346D01*
M02*
