G04 PROTEUS RS274X GERBER FILE*
%FSLAX26Y26*%
%MOIN*%
G01*
%ADD25C,0.004000*%
%ADD35C,0.005000*%
%ADD36C,0.002500*%
D25*
X+2305317Y+478530D02*
X+2305317Y+428530D01*
X+2280317Y+453530D02*
X+2330317Y+453530D01*
X+1008598Y+297496D02*
X+1043953Y+262141D01*
X+1008598Y+262141D02*
X+1043953Y+297496D01*
X+1108598Y+297496D02*
X+1143953Y+262141D01*
X+1108598Y+262141D02*
X+1143953Y+297496D01*
X+1208598Y+297496D02*
X+1243953Y+262141D01*
X+1208598Y+262141D02*
X+1243953Y+297496D01*
X+1308598Y+297496D02*
X+1343953Y+262141D01*
X+1308598Y+262141D02*
X+1343953Y+297496D01*
X+1408598Y+297496D02*
X+1443953Y+262141D01*
X+1408598Y+262141D02*
X+1443953Y+297496D01*
X+1508598Y+297496D02*
X+1543953Y+262141D01*
X+1508598Y+262141D02*
X+1543953Y+297496D01*
X+1608598Y+297496D02*
X+1643953Y+262141D01*
X+1608598Y+262141D02*
X+1643953Y+297496D01*
X+1708598Y+297496D02*
X+1743953Y+262141D01*
X+1708598Y+262141D02*
X+1743953Y+297496D01*
X+1808598Y+297496D02*
X+1843953Y+262141D01*
X+1808598Y+262141D02*
X+1843953Y+297496D01*
X+1908598Y+297496D02*
X+1943953Y+262141D01*
X+1908598Y+262141D02*
X+1943953Y+297496D01*
X+2008598Y+297496D02*
X+2043953Y+262141D01*
X+2008598Y+262141D02*
X+2043953Y+297496D01*
X+2108598Y+297496D02*
X+2143953Y+262141D01*
X+2108598Y+262141D02*
X+2143953Y+297496D01*
X+2208598Y+297496D02*
X+2243953Y+262141D01*
X+2208598Y+262141D02*
X+2243953Y+297496D01*
X+2308598Y+297496D02*
X+2343953Y+262141D01*
X+2308598Y+262141D02*
X+2343953Y+297496D01*
X+2408598Y+297496D02*
X+2443953Y+262141D01*
X+2408598Y+262141D02*
X+2443953Y+297496D01*
X+2508598Y+297496D02*
X+2543953Y+262141D01*
X+2508598Y+262141D02*
X+2543953Y+297496D01*
X+2551276Y+1079819D02*
X+2551191Y+1081884D01*
X+2550496Y+1086016D01*
X+2549042Y+1090148D01*
X+2546669Y+1094280D01*
X+2543038Y+1098367D01*
X+2538906Y+1101394D01*
X+2534774Y+1103330D01*
X+2530642Y+1104435D01*
X+2526510Y+1104818D01*
X+2526276Y+1104819D01*
X+2501276Y+1079819D02*
X+2501361Y+1081884D01*
X+2502056Y+1086016D01*
X+2503510Y+1090148D01*
X+2505883Y+1094280D01*
X+2509514Y+1098367D01*
X+2513646Y+1101394D01*
X+2517778Y+1103330D01*
X+2521910Y+1104435D01*
X+2526042Y+1104818D01*
X+2526276Y+1104819D01*
X+2501276Y+1079819D02*
X+2501361Y+1077754D01*
X+2502056Y+1073622D01*
X+2503510Y+1069490D01*
X+2505883Y+1065358D01*
X+2509514Y+1061271D01*
X+2513646Y+1058244D01*
X+2517778Y+1056308D01*
X+2521910Y+1055203D01*
X+2526042Y+1054820D01*
X+2526276Y+1054819D01*
X+2551276Y+1079819D02*
X+2551191Y+1077754D01*
X+2550496Y+1073622D01*
X+2549042Y+1069490D01*
X+2546669Y+1065358D01*
X+2543038Y+1061271D01*
X+2538906Y+1058244D01*
X+2534774Y+1056308D01*
X+2530642Y+1055203D01*
X+2526510Y+1054820D01*
X+2526276Y+1054819D01*
X+2526276Y+1104819D02*
X+2526276Y+1054819D01*
X+2501276Y+1079819D02*
X+2551276Y+1079819D01*
X+2451276Y+1079819D02*
X+2451191Y+1081884D01*
X+2450496Y+1086016D01*
X+2449042Y+1090148D01*
X+2446669Y+1094280D01*
X+2443038Y+1098367D01*
X+2438906Y+1101394D01*
X+2434774Y+1103330D01*
X+2430642Y+1104435D01*
X+2426510Y+1104818D01*
X+2426276Y+1104819D01*
X+2401276Y+1079819D02*
X+2401361Y+1081884D01*
X+2402056Y+1086016D01*
X+2403510Y+1090148D01*
X+2405883Y+1094280D01*
X+2409514Y+1098367D01*
X+2413646Y+1101394D01*
X+2417778Y+1103330D01*
X+2421910Y+1104435D01*
X+2426042Y+1104818D01*
X+2426276Y+1104819D01*
X+2401276Y+1079819D02*
X+2401361Y+1077754D01*
X+2402056Y+1073622D01*
X+2403510Y+1069490D01*
X+2405883Y+1065358D01*
X+2409514Y+1061271D01*
X+2413646Y+1058244D01*
X+2417778Y+1056308D01*
X+2421910Y+1055203D01*
X+2426042Y+1054820D01*
X+2426276Y+1054819D01*
X+2451276Y+1079819D02*
X+2451191Y+1077754D01*
X+2450496Y+1073622D01*
X+2449042Y+1069490D01*
X+2446669Y+1065358D01*
X+2443038Y+1061271D01*
X+2438906Y+1058244D01*
X+2434774Y+1056308D01*
X+2430642Y+1055203D01*
X+2426510Y+1054820D01*
X+2426276Y+1054819D01*
X+2426276Y+1104819D02*
X+2426276Y+1054819D01*
X+2401276Y+1079819D02*
X+2451276Y+1079819D01*
X+2351276Y+1079819D02*
X+2351191Y+1081884D01*
X+2350496Y+1086016D01*
X+2349042Y+1090148D01*
X+2346669Y+1094280D01*
X+2343038Y+1098367D01*
X+2338906Y+1101394D01*
X+2334774Y+1103330D01*
X+2330642Y+1104435D01*
X+2326510Y+1104818D01*
X+2326276Y+1104819D01*
X+2301276Y+1079819D02*
X+2301361Y+1081884D01*
X+2302056Y+1086016D01*
X+2303510Y+1090148D01*
X+2305883Y+1094280D01*
X+2309514Y+1098367D01*
X+2313646Y+1101394D01*
X+2317778Y+1103330D01*
X+2321910Y+1104435D01*
X+2326042Y+1104818D01*
X+2326276Y+1104819D01*
X+2301276Y+1079819D02*
X+2301361Y+1077754D01*
X+2302056Y+1073622D01*
X+2303510Y+1069490D01*
X+2305883Y+1065358D01*
X+2309514Y+1061271D01*
X+2313646Y+1058244D01*
X+2317778Y+1056308D01*
X+2321910Y+1055203D01*
X+2326042Y+1054820D01*
X+2326276Y+1054819D01*
X+2351276Y+1079819D02*
X+2351191Y+1077754D01*
X+2350496Y+1073622D01*
X+2349042Y+1069490D01*
X+2346669Y+1065358D01*
X+2343038Y+1061271D01*
X+2338906Y+1058244D01*
X+2334774Y+1056308D01*
X+2330642Y+1055203D01*
X+2326510Y+1054820D01*
X+2326276Y+1054819D01*
X+2326276Y+1104819D02*
X+2326276Y+1054819D01*
X+2301276Y+1079819D02*
X+2351276Y+1079819D01*
X+2251276Y+1079819D02*
X+2251191Y+1081884D01*
X+2250496Y+1086016D01*
X+2249042Y+1090148D01*
X+2246669Y+1094280D01*
X+2243038Y+1098367D01*
X+2238906Y+1101394D01*
X+2234774Y+1103330D01*
X+2230642Y+1104435D01*
X+2226510Y+1104818D01*
X+2226276Y+1104819D01*
X+2201276Y+1079819D02*
X+2201361Y+1081884D01*
X+2202056Y+1086016D01*
X+2203510Y+1090148D01*
X+2205883Y+1094280D01*
X+2209514Y+1098367D01*
X+2213646Y+1101394D01*
X+2217778Y+1103330D01*
X+2221910Y+1104435D01*
X+2226042Y+1104818D01*
X+2226276Y+1104819D01*
X+2201276Y+1079819D02*
X+2201361Y+1077754D01*
X+2202056Y+1073622D01*
X+2203510Y+1069490D01*
X+2205883Y+1065358D01*
X+2209514Y+1061271D01*
X+2213646Y+1058244D01*
X+2217778Y+1056308D01*
X+2221910Y+1055203D01*
X+2226042Y+1054820D01*
X+2226276Y+1054819D01*
X+2251276Y+1079819D02*
X+2251191Y+1077754D01*
X+2250496Y+1073622D01*
X+2249042Y+1069490D01*
X+2246669Y+1065358D01*
X+2243038Y+1061271D01*
X+2238906Y+1058244D01*
X+2234774Y+1056308D01*
X+2230642Y+1055203D01*
X+2226510Y+1054820D01*
X+2226276Y+1054819D01*
X+2226276Y+1104819D02*
X+2226276Y+1054819D01*
X+2201276Y+1079819D02*
X+2251276Y+1079819D01*
X+2151276Y+1079819D02*
X+2151191Y+1081884D01*
X+2150496Y+1086016D01*
X+2149042Y+1090148D01*
X+2146669Y+1094280D01*
X+2143038Y+1098367D01*
X+2138906Y+1101394D01*
X+2134774Y+1103330D01*
X+2130642Y+1104435D01*
X+2126510Y+1104818D01*
X+2126276Y+1104819D01*
X+2101276Y+1079819D02*
X+2101361Y+1081884D01*
X+2102056Y+1086016D01*
X+2103510Y+1090148D01*
X+2105883Y+1094280D01*
X+2109514Y+1098367D01*
X+2113646Y+1101394D01*
X+2117778Y+1103330D01*
X+2121910Y+1104435D01*
X+2126042Y+1104818D01*
X+2126276Y+1104819D01*
X+2101276Y+1079819D02*
X+2101361Y+1077754D01*
X+2102056Y+1073622D01*
X+2103510Y+1069490D01*
X+2105883Y+1065358D01*
X+2109514Y+1061271D01*
X+2113646Y+1058244D01*
X+2117778Y+1056308D01*
X+2121910Y+1055203D01*
X+2126042Y+1054820D01*
X+2126276Y+1054819D01*
X+2151276Y+1079819D02*
X+2151191Y+1077754D01*
X+2150496Y+1073622D01*
X+2149042Y+1069490D01*
X+2146669Y+1065358D01*
X+2143038Y+1061271D01*
X+2138906Y+1058244D01*
X+2134774Y+1056308D01*
X+2130642Y+1055203D01*
X+2126510Y+1054820D01*
X+2126276Y+1054819D01*
X+2126276Y+1104819D02*
X+2126276Y+1054819D01*
X+2101276Y+1079819D02*
X+2151276Y+1079819D01*
X+2051276Y+1079819D02*
X+2051191Y+1081884D01*
X+2050496Y+1086016D01*
X+2049042Y+1090148D01*
X+2046669Y+1094280D01*
X+2043038Y+1098367D01*
X+2038906Y+1101394D01*
X+2034774Y+1103330D01*
X+2030642Y+1104435D01*
X+2026510Y+1104818D01*
X+2026276Y+1104819D01*
X+2001276Y+1079819D02*
X+2001361Y+1081884D01*
X+2002056Y+1086016D01*
X+2003510Y+1090148D01*
X+2005883Y+1094280D01*
X+2009514Y+1098367D01*
X+2013646Y+1101394D01*
X+2017778Y+1103330D01*
X+2021910Y+1104435D01*
X+2026042Y+1104818D01*
X+2026276Y+1104819D01*
X+2001276Y+1079819D02*
X+2001361Y+1077754D01*
X+2002056Y+1073622D01*
X+2003510Y+1069490D01*
X+2005883Y+1065358D01*
X+2009514Y+1061271D01*
X+2013646Y+1058244D01*
X+2017778Y+1056308D01*
X+2021910Y+1055203D01*
X+2026042Y+1054820D01*
X+2026276Y+1054819D01*
X+2051276Y+1079819D02*
X+2051191Y+1077754D01*
X+2050496Y+1073622D01*
X+2049042Y+1069490D01*
X+2046669Y+1065358D01*
X+2043038Y+1061271D01*
X+2038906Y+1058244D01*
X+2034774Y+1056308D01*
X+2030642Y+1055203D01*
X+2026510Y+1054820D01*
X+2026276Y+1054819D01*
X+2026276Y+1104819D02*
X+2026276Y+1054819D01*
X+2001276Y+1079819D02*
X+2051276Y+1079819D01*
X+1951276Y+1079819D02*
X+1951191Y+1081884D01*
X+1950496Y+1086016D01*
X+1949042Y+1090148D01*
X+1946669Y+1094280D01*
X+1943038Y+1098367D01*
X+1938906Y+1101394D01*
X+1934774Y+1103330D01*
X+1930642Y+1104435D01*
X+1926510Y+1104818D01*
X+1926276Y+1104819D01*
X+1901276Y+1079819D02*
X+1901361Y+1081884D01*
X+1902056Y+1086016D01*
X+1903510Y+1090148D01*
X+1905883Y+1094280D01*
X+1909514Y+1098367D01*
X+1913646Y+1101394D01*
X+1917778Y+1103330D01*
X+1921910Y+1104435D01*
X+1926042Y+1104818D01*
X+1926276Y+1104819D01*
X+1901276Y+1079819D02*
X+1901361Y+1077754D01*
X+1902056Y+1073622D01*
X+1903510Y+1069490D01*
X+1905883Y+1065358D01*
X+1909514Y+1061271D01*
X+1913646Y+1058244D01*
X+1917778Y+1056308D01*
X+1921910Y+1055203D01*
X+1926042Y+1054820D01*
X+1926276Y+1054819D01*
X+1951276Y+1079819D02*
X+1951191Y+1077754D01*
X+1950496Y+1073622D01*
X+1949042Y+1069490D01*
X+1946669Y+1065358D01*
X+1943038Y+1061271D01*
X+1938906Y+1058244D01*
X+1934774Y+1056308D01*
X+1930642Y+1055203D01*
X+1926510Y+1054820D01*
X+1926276Y+1054819D01*
X+1926276Y+1104819D02*
X+1926276Y+1054819D01*
X+1901276Y+1079819D02*
X+1951276Y+1079819D01*
X+1851276Y+1079819D02*
X+1851191Y+1081884D01*
X+1850496Y+1086016D01*
X+1849042Y+1090148D01*
X+1846669Y+1094280D01*
X+1843038Y+1098367D01*
X+1838906Y+1101394D01*
X+1834774Y+1103330D01*
X+1830642Y+1104435D01*
X+1826510Y+1104818D01*
X+1826276Y+1104819D01*
X+1801276Y+1079819D02*
X+1801361Y+1081884D01*
X+1802056Y+1086016D01*
X+1803510Y+1090148D01*
X+1805883Y+1094280D01*
X+1809514Y+1098367D01*
X+1813646Y+1101394D01*
X+1817778Y+1103330D01*
X+1821910Y+1104435D01*
X+1826042Y+1104818D01*
X+1826276Y+1104819D01*
X+1801276Y+1079819D02*
X+1801361Y+1077754D01*
X+1802056Y+1073622D01*
X+1803510Y+1069490D01*
X+1805883Y+1065358D01*
X+1809514Y+1061271D01*
X+1813646Y+1058244D01*
X+1817778Y+1056308D01*
X+1821910Y+1055203D01*
X+1826042Y+1054820D01*
X+1826276Y+1054819D01*
X+1851276Y+1079819D02*
X+1851191Y+1077754D01*
X+1850496Y+1073622D01*
X+1849042Y+1069490D01*
X+1846669Y+1065358D01*
X+1843038Y+1061271D01*
X+1838906Y+1058244D01*
X+1834774Y+1056308D01*
X+1830642Y+1055203D01*
X+1826510Y+1054820D01*
X+1826276Y+1054819D01*
X+1826276Y+1104819D02*
X+1826276Y+1054819D01*
X+1801276Y+1079819D02*
X+1851276Y+1079819D01*
X+1751276Y+1079819D02*
X+1751191Y+1081884D01*
X+1750496Y+1086016D01*
X+1749042Y+1090148D01*
X+1746669Y+1094280D01*
X+1743038Y+1098367D01*
X+1738906Y+1101394D01*
X+1734774Y+1103330D01*
X+1730642Y+1104435D01*
X+1726510Y+1104818D01*
X+1726276Y+1104819D01*
X+1701276Y+1079819D02*
X+1701361Y+1081884D01*
X+1702056Y+1086016D01*
X+1703510Y+1090148D01*
X+1705883Y+1094280D01*
X+1709514Y+1098367D01*
X+1713646Y+1101394D01*
X+1717778Y+1103330D01*
X+1721910Y+1104435D01*
X+1726042Y+1104818D01*
X+1726276Y+1104819D01*
X+1701276Y+1079819D02*
X+1701361Y+1077754D01*
X+1702056Y+1073622D01*
X+1703510Y+1069490D01*
X+1705883Y+1065358D01*
X+1709514Y+1061271D01*
X+1713646Y+1058244D01*
X+1717778Y+1056308D01*
X+1721910Y+1055203D01*
X+1726042Y+1054820D01*
X+1726276Y+1054819D01*
X+1751276Y+1079819D02*
X+1751191Y+1077754D01*
X+1750496Y+1073622D01*
X+1749042Y+1069490D01*
X+1746669Y+1065358D01*
X+1743038Y+1061271D01*
X+1738906Y+1058244D01*
X+1734774Y+1056308D01*
X+1730642Y+1055203D01*
X+1726510Y+1054820D01*
X+1726276Y+1054819D01*
X+1726276Y+1104819D02*
X+1726276Y+1054819D01*
X+1701276Y+1079819D02*
X+1751276Y+1079819D01*
X+1651276Y+1079819D02*
X+1651191Y+1081884D01*
X+1650496Y+1086016D01*
X+1649042Y+1090148D01*
X+1646669Y+1094280D01*
X+1643038Y+1098367D01*
X+1638906Y+1101394D01*
X+1634774Y+1103330D01*
X+1630642Y+1104435D01*
X+1626510Y+1104818D01*
X+1626276Y+1104819D01*
X+1601276Y+1079819D02*
X+1601361Y+1081884D01*
X+1602056Y+1086016D01*
X+1603510Y+1090148D01*
X+1605883Y+1094280D01*
X+1609514Y+1098367D01*
X+1613646Y+1101394D01*
X+1617778Y+1103330D01*
X+1621910Y+1104435D01*
X+1626042Y+1104818D01*
X+1626276Y+1104819D01*
X+1601276Y+1079819D02*
X+1601361Y+1077754D01*
X+1602056Y+1073622D01*
X+1603510Y+1069490D01*
X+1605883Y+1065358D01*
X+1609514Y+1061271D01*
X+1613646Y+1058244D01*
X+1617778Y+1056308D01*
X+1621910Y+1055203D01*
X+1626042Y+1054820D01*
X+1626276Y+1054819D01*
X+1651276Y+1079819D02*
X+1651191Y+1077754D01*
X+1650496Y+1073622D01*
X+1649042Y+1069490D01*
X+1646669Y+1065358D01*
X+1643038Y+1061271D01*
X+1638906Y+1058244D01*
X+1634774Y+1056308D01*
X+1630642Y+1055203D01*
X+1626510Y+1054820D01*
X+1626276Y+1054819D01*
X+1626276Y+1104819D02*
X+1626276Y+1054819D01*
X+1601276Y+1079819D02*
X+1651276Y+1079819D01*
X+1551276Y+1079819D02*
X+1551191Y+1081884D01*
X+1550496Y+1086016D01*
X+1549042Y+1090148D01*
X+1546669Y+1094280D01*
X+1543038Y+1098367D01*
X+1538906Y+1101394D01*
X+1534774Y+1103330D01*
X+1530642Y+1104435D01*
X+1526510Y+1104818D01*
X+1526276Y+1104819D01*
X+1501276Y+1079819D02*
X+1501361Y+1081884D01*
X+1502056Y+1086016D01*
X+1503510Y+1090148D01*
X+1505883Y+1094280D01*
X+1509514Y+1098367D01*
X+1513646Y+1101394D01*
X+1517778Y+1103330D01*
X+1521910Y+1104435D01*
X+1526042Y+1104818D01*
X+1526276Y+1104819D01*
X+1501276Y+1079819D02*
X+1501361Y+1077754D01*
X+1502056Y+1073622D01*
X+1503510Y+1069490D01*
X+1505883Y+1065358D01*
X+1509514Y+1061271D01*
X+1513646Y+1058244D01*
X+1517778Y+1056308D01*
X+1521910Y+1055203D01*
X+1526042Y+1054820D01*
X+1526276Y+1054819D01*
X+1551276Y+1079819D02*
X+1551191Y+1077754D01*
X+1550496Y+1073622D01*
X+1549042Y+1069490D01*
X+1546669Y+1065358D01*
X+1543038Y+1061271D01*
X+1538906Y+1058244D01*
X+1534774Y+1056308D01*
X+1530642Y+1055203D01*
X+1526510Y+1054820D01*
X+1526276Y+1054819D01*
X+1526276Y+1104819D02*
X+1526276Y+1054819D01*
X+1501276Y+1079819D02*
X+1551276Y+1079819D01*
X+1408598Y+1097496D02*
X+1443953Y+1062141D01*
X+1408598Y+1062141D02*
X+1443953Y+1097496D01*
X+901276Y+329819D02*
X+901191Y+331884D01*
X+900496Y+336016D01*
X+899042Y+340148D01*
X+896669Y+344280D01*
X+893038Y+348367D01*
X+888906Y+351394D01*
X+884774Y+353330D01*
X+880642Y+354435D01*
X+876510Y+354818D01*
X+876276Y+354819D01*
X+851276Y+329819D02*
X+851361Y+331884D01*
X+852056Y+336016D01*
X+853510Y+340148D01*
X+855883Y+344280D01*
X+859514Y+348367D01*
X+863646Y+351394D01*
X+867778Y+353330D01*
X+871910Y+354435D01*
X+876042Y+354818D01*
X+876276Y+354819D01*
X+851276Y+329819D02*
X+851361Y+327754D01*
X+852056Y+323622D01*
X+853510Y+319490D01*
X+855883Y+315358D01*
X+859514Y+311271D01*
X+863646Y+308244D01*
X+867778Y+306308D01*
X+871910Y+305203D01*
X+876042Y+304820D01*
X+876276Y+304819D01*
X+901276Y+329819D02*
X+901191Y+327754D01*
X+900496Y+323622D01*
X+899042Y+319490D01*
X+896669Y+315358D01*
X+893038Y+311271D01*
X+888906Y+308244D01*
X+884774Y+306308D01*
X+880642Y+305203D01*
X+876510Y+304820D01*
X+876276Y+304819D01*
X+876276Y+354819D02*
X+876276Y+304819D01*
X+851276Y+329819D02*
X+901276Y+329819D01*
X+901191Y+331884D01*
X+900496Y+336016D01*
X+899042Y+340148D01*
X+896669Y+344280D01*
X+893038Y+348367D01*
X+888906Y+351394D01*
X+884774Y+353330D01*
X+880642Y+354435D01*
X+876510Y+354818D01*
X+876276Y+354819D01*
X+851276Y+329819D02*
X+851361Y+331884D01*
X+852056Y+336016D01*
X+853510Y+340148D01*
X+855883Y+344280D01*
X+859514Y+348367D01*
X+863646Y+351394D01*
X+867778Y+353330D01*
X+871910Y+354435D01*
X+876042Y+354818D01*
X+876276Y+354819D01*
X+851276Y+329819D02*
X+851361Y+327754D01*
X+852056Y+323622D01*
X+853510Y+319490D01*
X+855883Y+315358D01*
X+859514Y+311271D01*
X+863646Y+308244D01*
X+867778Y+306308D01*
X+871910Y+305203D01*
X+876042Y+304820D01*
X+876276Y+304819D01*
X+901276Y+329819D02*
X+901191Y+327754D01*
X+900496Y+323622D01*
X+899042Y+319490D01*
X+896669Y+315358D01*
X+893038Y+311271D01*
X+888906Y+308244D01*
X+884774Y+306308D01*
X+880642Y+305203D01*
X+876510Y+304820D01*
X+876276Y+304819D01*
X+858598Y+347496D02*
X+893953Y+312141D01*
X+858598Y+312141D02*
X+893953Y+347496D01*
X+901276Y+1029819D02*
X+901191Y+1031884D01*
X+900496Y+1036016D01*
X+899042Y+1040148D01*
X+896669Y+1044280D01*
X+893038Y+1048367D01*
X+888906Y+1051394D01*
X+884774Y+1053330D01*
X+880642Y+1054435D01*
X+876510Y+1054818D01*
X+876276Y+1054819D01*
X+851276Y+1029819D02*
X+851361Y+1031884D01*
X+852056Y+1036016D01*
X+853510Y+1040148D01*
X+855883Y+1044280D01*
X+859514Y+1048367D01*
X+863646Y+1051394D01*
X+867778Y+1053330D01*
X+871910Y+1054435D01*
X+876042Y+1054818D01*
X+876276Y+1054819D01*
X+851276Y+1029819D02*
X+851361Y+1027754D01*
X+852056Y+1023622D01*
X+853510Y+1019490D01*
X+855883Y+1015358D01*
X+859514Y+1011271D01*
X+863646Y+1008244D01*
X+867778Y+1006308D01*
X+871910Y+1005203D01*
X+876042Y+1004820D01*
X+876276Y+1004819D01*
X+901276Y+1029819D02*
X+901191Y+1027754D01*
X+900496Y+1023622D01*
X+899042Y+1019490D01*
X+896669Y+1015358D01*
X+893038Y+1011271D01*
X+888906Y+1008244D01*
X+884774Y+1006308D01*
X+880642Y+1005203D01*
X+876510Y+1004820D01*
X+876276Y+1004819D01*
X+876276Y+1054819D02*
X+876276Y+1004819D01*
X+851276Y+1029819D02*
X+901276Y+1029819D01*
X+901191Y+1031884D01*
X+900496Y+1036016D01*
X+899042Y+1040148D01*
X+896669Y+1044280D01*
X+893038Y+1048367D01*
X+888906Y+1051394D01*
X+884774Y+1053330D01*
X+880642Y+1054435D01*
X+876510Y+1054818D01*
X+876276Y+1054819D01*
X+851276Y+1029819D02*
X+851361Y+1031884D01*
X+852056Y+1036016D01*
X+853510Y+1040148D01*
X+855883Y+1044280D01*
X+859514Y+1048367D01*
X+863646Y+1051394D01*
X+867778Y+1053330D01*
X+871910Y+1054435D01*
X+876042Y+1054818D01*
X+876276Y+1054819D01*
X+851276Y+1029819D02*
X+851361Y+1027754D01*
X+852056Y+1023622D01*
X+853510Y+1019490D01*
X+855883Y+1015358D01*
X+859514Y+1011271D01*
X+863646Y+1008244D01*
X+867778Y+1006308D01*
X+871910Y+1005203D01*
X+876042Y+1004820D01*
X+876276Y+1004819D01*
X+901276Y+1029819D02*
X+901191Y+1027754D01*
X+900496Y+1023622D01*
X+899042Y+1019490D01*
X+896669Y+1015358D01*
X+893038Y+1011271D01*
X+888906Y+1008244D01*
X+884774Y+1006308D01*
X+880642Y+1005203D01*
X+876510Y+1004820D01*
X+876276Y+1004819D01*
X+858598Y+1047496D02*
X+893953Y+1012141D01*
X+858598Y+1012141D02*
X+893953Y+1047496D01*
X+2701276Y+329819D02*
X+2701191Y+331884D01*
X+2700496Y+336016D01*
X+2699042Y+340148D01*
X+2696669Y+344280D01*
X+2693038Y+348367D01*
X+2688906Y+351394D01*
X+2684774Y+353330D01*
X+2680642Y+354435D01*
X+2676510Y+354818D01*
X+2676276Y+354819D01*
X+2651276Y+329819D02*
X+2651361Y+331884D01*
X+2652056Y+336016D01*
X+2653510Y+340148D01*
X+2655883Y+344280D01*
X+2659514Y+348367D01*
X+2663646Y+351394D01*
X+2667778Y+353330D01*
X+2671910Y+354435D01*
X+2676042Y+354818D01*
X+2676276Y+354819D01*
X+2651276Y+329819D02*
X+2651361Y+327754D01*
X+2652056Y+323622D01*
X+2653510Y+319490D01*
X+2655883Y+315358D01*
X+2659514Y+311271D01*
X+2663646Y+308244D01*
X+2667778Y+306308D01*
X+2671910Y+305203D01*
X+2676042Y+304820D01*
X+2676276Y+304819D01*
X+2701276Y+329819D02*
X+2701191Y+327754D01*
X+2700496Y+323622D01*
X+2699042Y+319490D01*
X+2696669Y+315358D01*
X+2693038Y+311271D01*
X+2688906Y+308244D01*
X+2684774Y+306308D01*
X+2680642Y+305203D01*
X+2676510Y+304820D01*
X+2676276Y+304819D01*
X+2676276Y+354819D02*
X+2676276Y+304819D01*
X+2651276Y+329819D02*
X+2701276Y+329819D01*
X+2701191Y+331884D01*
X+2700496Y+336016D01*
X+2699042Y+340148D01*
X+2696669Y+344280D01*
X+2693038Y+348367D01*
X+2688906Y+351394D01*
X+2684774Y+353330D01*
X+2680642Y+354435D01*
X+2676510Y+354818D01*
X+2676276Y+354819D01*
X+2651276Y+329819D02*
X+2651361Y+331884D01*
X+2652056Y+336016D01*
X+2653510Y+340148D01*
X+2655883Y+344280D01*
X+2659514Y+348367D01*
X+2663646Y+351394D01*
X+2667778Y+353330D01*
X+2671910Y+354435D01*
X+2676042Y+354818D01*
X+2676276Y+354819D01*
X+2651276Y+329819D02*
X+2651361Y+327754D01*
X+2652056Y+323622D01*
X+2653510Y+319490D01*
X+2655883Y+315358D01*
X+2659514Y+311271D01*
X+2663646Y+308244D01*
X+2667778Y+306308D01*
X+2671910Y+305203D01*
X+2676042Y+304820D01*
X+2676276Y+304819D01*
X+2701276Y+329819D02*
X+2701191Y+327754D01*
X+2700496Y+323622D01*
X+2699042Y+319490D01*
X+2696669Y+315358D01*
X+2693038Y+311271D01*
X+2688906Y+308244D01*
X+2684774Y+306308D01*
X+2680642Y+305203D01*
X+2676510Y+304820D01*
X+2676276Y+304819D01*
X+2658598Y+347496D02*
X+2693953Y+312141D01*
X+2658598Y+312141D02*
X+2693953Y+347496D01*
X+2701276Y+1029819D02*
X+2701191Y+1031884D01*
X+2700496Y+1036016D01*
X+2699042Y+1040148D01*
X+2696669Y+1044280D01*
X+2693038Y+1048367D01*
X+2688906Y+1051394D01*
X+2684774Y+1053330D01*
X+2680642Y+1054435D01*
X+2676510Y+1054818D01*
X+2676276Y+1054819D01*
X+2651276Y+1029819D02*
X+2651361Y+1031884D01*
X+2652056Y+1036016D01*
X+2653510Y+1040148D01*
X+2655883Y+1044280D01*
X+2659514Y+1048367D01*
X+2663646Y+1051394D01*
X+2667778Y+1053330D01*
X+2671910Y+1054435D01*
X+2676042Y+1054818D01*
X+2676276Y+1054819D01*
X+2651276Y+1029819D02*
X+2651361Y+1027754D01*
X+2652056Y+1023622D01*
X+2653510Y+1019490D01*
X+2655883Y+1015358D01*
X+2659514Y+1011271D01*
X+2663646Y+1008244D01*
X+2667778Y+1006308D01*
X+2671910Y+1005203D01*
X+2676042Y+1004820D01*
X+2676276Y+1004819D01*
X+2701276Y+1029819D02*
X+2701191Y+1027754D01*
X+2700496Y+1023622D01*
X+2699042Y+1019490D01*
X+2696669Y+1015358D01*
X+2693038Y+1011271D01*
X+2688906Y+1008244D01*
X+2684774Y+1006308D01*
X+2680642Y+1005203D01*
X+2676510Y+1004820D01*
X+2676276Y+1004819D01*
X+2676276Y+1054819D02*
X+2676276Y+1004819D01*
X+2651276Y+1029819D02*
X+2701276Y+1029819D01*
X+2701191Y+1031884D01*
X+2700496Y+1036016D01*
X+2699042Y+1040148D01*
X+2696669Y+1044280D01*
X+2693038Y+1048367D01*
X+2688906Y+1051394D01*
X+2684774Y+1053330D01*
X+2680642Y+1054435D01*
X+2676510Y+1054818D01*
X+2676276Y+1054819D01*
X+2651276Y+1029819D02*
X+2651361Y+1031884D01*
X+2652056Y+1036016D01*
X+2653510Y+1040148D01*
X+2655883Y+1044280D01*
X+2659514Y+1048367D01*
X+2663646Y+1051394D01*
X+2667778Y+1053330D01*
X+2671910Y+1054435D01*
X+2676042Y+1054818D01*
X+2676276Y+1054819D01*
X+2651276Y+1029819D02*
X+2651361Y+1027754D01*
X+2652056Y+1023622D01*
X+2653510Y+1019490D01*
X+2655883Y+1015358D01*
X+2659514Y+1011271D01*
X+2663646Y+1008244D01*
X+2667778Y+1006308D01*
X+2671910Y+1005203D01*
X+2676042Y+1004820D01*
X+2676276Y+1004819D01*
X+2701276Y+1029819D02*
X+2701191Y+1027754D01*
X+2700496Y+1023622D01*
X+2699042Y+1019490D01*
X+2696669Y+1015358D01*
X+2693038Y+1011271D01*
X+2688906Y+1008244D01*
X+2684774Y+1006308D01*
X+2680642Y+1005203D01*
X+2676510Y+1004820D01*
X+2676276Y+1004819D01*
X+2658598Y+1047496D02*
X+2693953Y+1012141D01*
X+2658598Y+1012141D02*
X+2693953Y+1047496D01*
X+2508598Y+1097008D02*
X+2543953Y+1061653D01*
X+2508598Y+1061653D02*
X+2543953Y+1097008D01*
X+2408598Y+1097008D02*
X+2443953Y+1061653D01*
X+2408598Y+1061653D02*
X+2443953Y+1097008D01*
X+2308598Y+1097008D02*
X+2343953Y+1061653D01*
X+2308598Y+1061653D02*
X+2343953Y+1097008D01*
X+2208598Y+1097008D02*
X+2243953Y+1061653D01*
X+2208598Y+1061653D02*
X+2243953Y+1097008D01*
X+2108598Y+1097008D02*
X+2143953Y+1061653D01*
X+2108598Y+1061653D02*
X+2143953Y+1097008D01*
X+2008598Y+1097008D02*
X+2043953Y+1061653D01*
X+2008598Y+1061653D02*
X+2043953Y+1097008D01*
X+1908598Y+1097008D02*
X+1943953Y+1061653D01*
X+1908598Y+1061653D02*
X+1943953Y+1097008D01*
X+1808598Y+1097008D02*
X+1843953Y+1061653D01*
X+1808598Y+1061653D02*
X+1843953Y+1097008D01*
X+1708598Y+1097008D02*
X+1743953Y+1061653D01*
X+1708598Y+1061653D02*
X+1743953Y+1097008D01*
X+1608598Y+1097008D02*
X+1643953Y+1061653D01*
X+1608598Y+1061653D02*
X+1643953Y+1097008D01*
X+1508598Y+1097008D02*
X+1543953Y+1061653D01*
X+1508598Y+1061653D02*
X+1543953Y+1097008D01*
X+1408598Y+1097008D02*
X+1443953Y+1061653D01*
X+1408598Y+1061653D02*
X+1443953Y+1097008D01*
X+2934653Y+967874D02*
X+2934568Y+969939D01*
X+2933873Y+974071D01*
X+2932419Y+978203D01*
X+2930046Y+982335D01*
X+2926415Y+986422D01*
X+2922283Y+989449D01*
X+2918151Y+991385D01*
X+2914019Y+992490D01*
X+2909887Y+992873D01*
X+2909653Y+992874D01*
X+2884653Y+967874D02*
X+2884738Y+969939D01*
X+2885433Y+974071D01*
X+2886887Y+978203D01*
X+2889260Y+982335D01*
X+2892891Y+986422D01*
X+2897023Y+989449D01*
X+2901155Y+991385D01*
X+2905287Y+992490D01*
X+2909419Y+992873D01*
X+2909653Y+992874D01*
X+2884653Y+967874D02*
X+2884738Y+965809D01*
X+2885433Y+961677D01*
X+2886887Y+957545D01*
X+2889260Y+953413D01*
X+2892891Y+949326D01*
X+2897023Y+946299D01*
X+2901155Y+944363D01*
X+2905287Y+943258D01*
X+2909419Y+942875D01*
X+2909653Y+942874D01*
X+2934653Y+967874D02*
X+2934568Y+965809D01*
X+2933873Y+961677D01*
X+2932419Y+957545D01*
X+2930046Y+953413D01*
X+2926415Y+949326D01*
X+2922283Y+946299D01*
X+2918151Y+944363D01*
X+2914019Y+943258D01*
X+2909887Y+942875D01*
X+2909653Y+942874D01*
X+2891976Y+985552D02*
X+2927331Y+950196D01*
X+2891976Y+950196D02*
X+2927331Y+985552D01*
X+2934653Y+1067874D02*
X+2934568Y+1069939D01*
X+2933873Y+1074071D01*
X+2932419Y+1078203D01*
X+2930046Y+1082335D01*
X+2926415Y+1086422D01*
X+2922283Y+1089449D01*
X+2918151Y+1091385D01*
X+2914019Y+1092490D01*
X+2909887Y+1092873D01*
X+2909653Y+1092874D01*
X+2884653Y+1067874D02*
X+2884738Y+1069939D01*
X+2885433Y+1074071D01*
X+2886887Y+1078203D01*
X+2889260Y+1082335D01*
X+2892891Y+1086422D01*
X+2897023Y+1089449D01*
X+2901155Y+1091385D01*
X+2905287Y+1092490D01*
X+2909419Y+1092873D01*
X+2909653Y+1092874D01*
X+2884653Y+1067874D02*
X+2884738Y+1065809D01*
X+2885433Y+1061677D01*
X+2886887Y+1057545D01*
X+2889260Y+1053413D01*
X+2892891Y+1049326D01*
X+2897023Y+1046299D01*
X+2901155Y+1044363D01*
X+2905287Y+1043258D01*
X+2909419Y+1042875D01*
X+2909653Y+1042874D01*
X+2934653Y+1067874D02*
X+2934568Y+1065809D01*
X+2933873Y+1061677D01*
X+2932419Y+1057545D01*
X+2930046Y+1053413D01*
X+2926415Y+1049326D01*
X+2922283Y+1046299D01*
X+2918151Y+1044363D01*
X+2914019Y+1043258D01*
X+2909887Y+1042875D01*
X+2909653Y+1042874D01*
X+2891976Y+1085552D02*
X+2927331Y+1050196D01*
X+2891976Y+1050196D02*
X+2927331Y+1085552D01*
X+2937149Y+342583D02*
X+2937064Y+344648D01*
X+2936369Y+348780D01*
X+2934915Y+352912D01*
X+2932542Y+357044D01*
X+2928911Y+361131D01*
X+2924779Y+364158D01*
X+2920647Y+366094D01*
X+2916515Y+367199D01*
X+2912383Y+367582D01*
X+2912149Y+367583D01*
X+2887149Y+342583D02*
X+2887234Y+344648D01*
X+2887929Y+348780D01*
X+2889383Y+352912D01*
X+2891756Y+357044D01*
X+2895387Y+361131D01*
X+2899519Y+364158D01*
X+2903651Y+366094D01*
X+2907783Y+367199D01*
X+2911915Y+367582D01*
X+2912149Y+367583D01*
X+2887149Y+342583D02*
X+2887234Y+340518D01*
X+2887929Y+336386D01*
X+2889383Y+332254D01*
X+2891756Y+328122D01*
X+2895387Y+324035D01*
X+2899519Y+321008D01*
X+2903651Y+319072D01*
X+2907783Y+317967D01*
X+2911915Y+317584D01*
X+2912149Y+317583D01*
X+2937149Y+342583D02*
X+2937064Y+340518D01*
X+2936369Y+336386D01*
X+2934915Y+332254D01*
X+2932542Y+328122D01*
X+2928911Y+324035D01*
X+2924779Y+321008D01*
X+2920647Y+319072D01*
X+2916515Y+317967D01*
X+2912383Y+317584D01*
X+2912149Y+317583D01*
X+2894472Y+360260D02*
X+2929827Y+324905D01*
X+2894472Y+324905D02*
X+2929827Y+360260D01*
X+2937149Y+442583D02*
X+2937064Y+444648D01*
X+2936369Y+448780D01*
X+2934915Y+452912D01*
X+2932542Y+457044D01*
X+2928911Y+461131D01*
X+2924779Y+464158D01*
X+2920647Y+466094D01*
X+2916515Y+467199D01*
X+2912383Y+467582D01*
X+2912149Y+467583D01*
X+2887149Y+442583D02*
X+2887234Y+444648D01*
X+2887929Y+448780D01*
X+2889383Y+452912D01*
X+2891756Y+457044D01*
X+2895387Y+461131D01*
X+2899519Y+464158D01*
X+2903651Y+466094D01*
X+2907783Y+467199D01*
X+2911915Y+467582D01*
X+2912149Y+467583D01*
X+2887149Y+442583D02*
X+2887234Y+440518D01*
X+2887929Y+436386D01*
X+2889383Y+432254D01*
X+2891756Y+428122D01*
X+2895387Y+424035D01*
X+2899519Y+421008D01*
X+2903651Y+419072D01*
X+2907783Y+417967D01*
X+2911915Y+417584D01*
X+2912149Y+417583D01*
X+2937149Y+442583D02*
X+2937064Y+440518D01*
X+2936369Y+436386D01*
X+2934915Y+432254D01*
X+2932542Y+428122D01*
X+2928911Y+424035D01*
X+2924779Y+421008D01*
X+2920647Y+419072D01*
X+2916515Y+417967D01*
X+2912383Y+417584D01*
X+2912149Y+417583D01*
X+2894472Y+460260D02*
X+2929827Y+424905D01*
X+2894472Y+424905D02*
X+2929827Y+460260D01*
X+2937149Y+542583D02*
X+2937064Y+544648D01*
X+2936369Y+548780D01*
X+2934915Y+552912D01*
X+2932542Y+557044D01*
X+2928911Y+561131D01*
X+2924779Y+564158D01*
X+2920647Y+566094D01*
X+2916515Y+567199D01*
X+2912383Y+567582D01*
X+2912149Y+567583D01*
X+2887149Y+542583D02*
X+2887234Y+544648D01*
X+2887929Y+548780D01*
X+2889383Y+552912D01*
X+2891756Y+557044D01*
X+2895387Y+561131D01*
X+2899519Y+564158D01*
X+2903651Y+566094D01*
X+2907783Y+567199D01*
X+2911915Y+567582D01*
X+2912149Y+567583D01*
X+2887149Y+542583D02*
X+2887234Y+540518D01*
X+2887929Y+536386D01*
X+2889383Y+532254D01*
X+2891756Y+528122D01*
X+2895387Y+524035D01*
X+2899519Y+521008D01*
X+2903651Y+519072D01*
X+2907783Y+517967D01*
X+2911915Y+517584D01*
X+2912149Y+517583D01*
X+2937149Y+542583D02*
X+2937064Y+540518D01*
X+2936369Y+536386D01*
X+2934915Y+532254D01*
X+2932542Y+528122D01*
X+2928911Y+524035D01*
X+2924779Y+521008D01*
X+2920647Y+519072D01*
X+2916515Y+517967D01*
X+2912383Y+517584D01*
X+2912149Y+517583D01*
X+2894472Y+560260D02*
X+2929827Y+524905D01*
X+2894472Y+524905D02*
X+2929827Y+560260D01*
X+1026276Y+304819D02*
X+1026276Y+254819D01*
X+1001276Y+279819D02*
X+1051276Y+279819D01*
X+1008598Y+297496D02*
X+1043953Y+262141D01*
X+1008598Y+262141D02*
X+1043953Y+297496D01*
X+1126276Y+304819D02*
X+1126276Y+254819D01*
X+1101276Y+279819D02*
X+1151276Y+279819D01*
X+1108598Y+297496D02*
X+1143953Y+262141D01*
X+1108598Y+262141D02*
X+1143953Y+297496D01*
X+1226276Y+304819D02*
X+1226276Y+254819D01*
X+1201276Y+279819D02*
X+1251276Y+279819D01*
X+1208598Y+297496D02*
X+1243953Y+262141D01*
X+1208598Y+262141D02*
X+1243953Y+297496D01*
X+1326276Y+304819D02*
X+1326276Y+254819D01*
X+1301276Y+279819D02*
X+1351276Y+279819D01*
X+1308598Y+297496D02*
X+1343953Y+262141D01*
X+1308598Y+262141D02*
X+1343953Y+297496D01*
X+1426276Y+304819D02*
X+1426276Y+254819D01*
X+1401276Y+279819D02*
X+1451276Y+279819D01*
X+1408598Y+297496D02*
X+1443953Y+262141D01*
X+1408598Y+262141D02*
X+1443953Y+297496D01*
X+1526276Y+304819D02*
X+1526276Y+254819D01*
X+1501276Y+279819D02*
X+1551276Y+279819D01*
X+1508598Y+297496D02*
X+1543953Y+262141D01*
X+1508598Y+262141D02*
X+1543953Y+297496D01*
X+1626276Y+304819D02*
X+1626276Y+254819D01*
X+1601276Y+279819D02*
X+1651276Y+279819D01*
X+1608598Y+297496D02*
X+1643953Y+262141D01*
X+1608598Y+262141D02*
X+1643953Y+297496D01*
X+1726276Y+304819D02*
X+1726276Y+254819D01*
X+1701276Y+279819D02*
X+1751276Y+279819D01*
X+1708598Y+297496D02*
X+1743953Y+262141D01*
X+1708598Y+262141D02*
X+1743953Y+297496D01*
X+1826276Y+304819D02*
X+1826276Y+254819D01*
X+1801276Y+279819D02*
X+1851276Y+279819D01*
X+1808598Y+297496D02*
X+1843953Y+262141D01*
X+1808598Y+262141D02*
X+1843953Y+297496D01*
X+1926276Y+304819D02*
X+1926276Y+254819D01*
X+1901276Y+279819D02*
X+1951276Y+279819D01*
X+1908598Y+297496D02*
X+1943953Y+262141D01*
X+1908598Y+262141D02*
X+1943953Y+297496D01*
X+2026276Y+304819D02*
X+2026276Y+254819D01*
X+2001276Y+279819D02*
X+2051276Y+279819D01*
X+2008598Y+297496D02*
X+2043953Y+262141D01*
X+2008598Y+262141D02*
X+2043953Y+297496D01*
X+2126276Y+304819D02*
X+2126276Y+254819D01*
X+2101276Y+279819D02*
X+2151276Y+279819D01*
X+2108598Y+297496D02*
X+2143953Y+262141D01*
X+2108598Y+262141D02*
X+2143953Y+297496D01*
X+2226276Y+304819D02*
X+2226276Y+254819D01*
X+2201276Y+279819D02*
X+2251276Y+279819D01*
X+2208598Y+297496D02*
X+2243953Y+262141D01*
X+2208598Y+262141D02*
X+2243953Y+297496D01*
X+2326276Y+304819D02*
X+2326276Y+254819D01*
X+2301276Y+279819D02*
X+2351276Y+279819D01*
X+2308598Y+297496D02*
X+2343953Y+262141D01*
X+2308598Y+262141D02*
X+2343953Y+297496D01*
X+2426276Y+304819D02*
X+2426276Y+254819D01*
X+2401276Y+279819D02*
X+2451276Y+279819D01*
X+2408598Y+297496D02*
X+2443953Y+262141D01*
X+2408598Y+262141D02*
X+2443953Y+297496D01*
X+2526276Y+304819D02*
X+2526276Y+254819D01*
X+2501276Y+279819D02*
X+2551276Y+279819D01*
X+2508598Y+297496D02*
X+2543953Y+262141D01*
X+2508598Y+262141D02*
X+2543953Y+297496D01*
X+775591Y+228346D02*
X+3102362Y+228346D01*
X+3102362Y+1129921D01*
X+775591Y+1129921D01*
X+775591Y+228346D01*
D35*
X+734937Y-591520D02*
X+1815937Y-591520D01*
X+1815937Y+88480D01*
X+734937Y+88480D01*
X+734937Y-591520D01*
D36*
X+918938Y+88480D02*
X+918938Y-591520D01*
X+1278938Y+88480D02*
X+1278938Y-591520D01*
X+1606938Y+88480D02*
X+1606938Y-591520D01*
X+734937Y-19020D02*
X+1815937Y-19020D01*
X+734937Y-114020D02*
X+1815937Y-114020D01*
X+734937Y-209020D02*
X+1815937Y-209020D01*
X+734937Y-304020D02*
X+1815937Y-304020D01*
X+734937Y-399020D02*
X+1815937Y-399020D01*
X+734937Y-494020D02*
X+1815937Y-494020D01*
D35*
X+757437Y+23980D02*
X+763437Y+17980D01*
X+787437Y+17980D01*
X+793437Y+23980D01*
X+793437Y+29980D01*
X+787437Y+35980D01*
X+763437Y+35980D01*
X+757437Y+41980D01*
X+757437Y+47980D01*
X+763437Y+53980D01*
X+787437Y+53980D01*
X+793437Y+47980D01*
X+841437Y+53980D02*
X+805437Y+17980D01*
X+805437Y+53980D02*
X+823437Y+35980D01*
X+853437Y+17980D02*
X+853437Y+53980D01*
X+871437Y+35980D01*
X+889437Y+53980D01*
X+889437Y+17980D01*
X+941437Y+23980D02*
X+947437Y+17980D01*
X+971437Y+17980D01*
X+977437Y+23980D01*
X+977437Y+29980D01*
X+971437Y+35980D01*
X+947437Y+35980D01*
X+941437Y+41980D01*
X+941437Y+47980D01*
X+947437Y+53980D01*
X+971437Y+53980D01*
X+977437Y+47980D01*
X+995437Y+53980D02*
X+1019437Y+53980D01*
X+1007437Y+53980D02*
X+1007437Y+17980D01*
X+995437Y+17980D02*
X+1019437Y+17980D01*
X+1037437Y+53980D02*
X+1073437Y+53980D01*
X+1037437Y+17980D01*
X+1073437Y+17980D01*
X+1121437Y+17980D02*
X+1085437Y+17980D01*
X+1085437Y+53980D01*
X+1121437Y+53980D01*
X+1085437Y+35980D02*
X+1109437Y+35980D01*
X+1301437Y+17980D02*
X+1301437Y+53980D01*
X+1331437Y+53980D01*
X+1337437Y+47980D01*
X+1337437Y+41980D01*
X+1331437Y+35980D01*
X+1301437Y+35980D01*
X+1349437Y+53980D02*
X+1349437Y+17980D01*
X+1385437Y+17980D01*
X+1397437Y+17980D02*
X+1397437Y+41980D01*
X+1409437Y+53980D01*
X+1421437Y+53980D01*
X+1433437Y+41980D01*
X+1433437Y+17980D01*
X+1397437Y+29980D02*
X+1433437Y+29980D01*
X+1445437Y+53980D02*
X+1481437Y+53980D01*
X+1463437Y+53980D02*
X+1463437Y+17980D01*
X+1529437Y+17980D02*
X+1493437Y+17980D01*
X+1493437Y+53980D01*
X+1529437Y+53980D01*
X+1493437Y+35980D02*
X+1517437Y+35980D01*
X+1541437Y+17980D02*
X+1541437Y+53980D01*
X+1565437Y+53980D01*
X+1577437Y+41980D01*
X+1577437Y+29980D01*
X+1565437Y+17980D01*
X+1541437Y+17980D01*
X+1629437Y+41980D02*
X+1641437Y+53980D01*
X+1653437Y+53980D01*
X+1665437Y+41980D01*
X+1665437Y+29980D01*
X+1653437Y+17980D01*
X+1641437Y+17980D01*
X+1629437Y+29980D01*
X+1629437Y+41980D01*
X+1653437Y+29980D02*
X+1665437Y+17980D01*
X+1677437Y+53980D02*
X+1713437Y+53980D01*
X+1695437Y+53980D02*
X+1695437Y+17980D01*
X+1761437Y+53980D02*
X+1725437Y+17980D01*
X+1725437Y+53980D02*
X+1743437Y+35980D01*
D25*
X+831937Y-39020D02*
X+831937Y-89020D01*
X+806937Y-64020D02*
X+856937Y-64020D01*
D35*
X+958937Y-59020D02*
X+968937Y-49020D01*
X+968937Y-79020D01*
X+1018937Y-49020D02*
X+993937Y-49020D01*
X+993937Y-59020D01*
X+1013937Y-59020D01*
X+1018937Y-64020D01*
X+1018937Y-74020D01*
X+1013937Y-79020D01*
X+998937Y-79020D01*
X+993937Y-74020D01*
X+1033937Y-49020D02*
X+1033937Y-74020D01*
X+1038937Y-79020D01*
X+1053937Y-79020D01*
X+1058937Y-74020D01*
X+1028937Y-59020D02*
X+1053937Y-59020D01*
X+1098937Y-79020D02*
X+1098937Y-64020D01*
X+1093937Y-59020D01*
X+1073937Y-59020D01*
X+1068937Y-64020D01*
X+1068937Y-49020D02*
X+1068937Y-79020D01*
X+1343937Y-49020D02*
X+1313937Y-79020D01*
X+1313937Y-49020D02*
X+1328937Y-64020D01*
X+1383937Y-79020D02*
X+1353937Y-79020D01*
X+1353937Y-49020D01*
X+1383937Y-49020D01*
X+1353937Y-64020D02*
X+1373937Y-64020D01*
X+1393937Y-74020D02*
X+1398937Y-79020D01*
X+1418937Y-79020D01*
X+1423937Y-74020D01*
X+1423937Y-69020D01*
X+1418937Y-64020D01*
X+1398937Y-64020D01*
X+1393937Y-59020D01*
X+1393937Y-54020D01*
X+1398937Y-49020D01*
X+1418937Y-49020D01*
X+1423937Y-54020D01*
X+1656937Y-59020D02*
X+1666937Y-49020D01*
X+1666937Y-79020D01*
D25*
X+814259Y-141342D02*
X+849615Y-176697D01*
X+814259Y-176697D02*
X+849615Y-141342D01*
D35*
X+978937Y-164020D02*
X+948937Y-164020D01*
X+968937Y-144020D01*
X+968937Y-174020D01*
X+988937Y-169020D02*
X+988937Y-149020D01*
X+993937Y-144020D01*
X+1013937Y-144020D01*
X+1018937Y-149020D01*
X+1018937Y-169020D01*
X+1013937Y-174020D01*
X+993937Y-174020D01*
X+988937Y-169020D01*
X+988937Y-174020D02*
X+1018937Y-144020D01*
X+1033937Y-144020D02*
X+1033937Y-169020D01*
X+1038937Y-174020D01*
X+1053937Y-174020D01*
X+1058937Y-169020D01*
X+1028937Y-154020D02*
X+1053937Y-154020D01*
X+1098937Y-174020D02*
X+1098937Y-159020D01*
X+1093937Y-154020D01*
X+1073937Y-154020D01*
X+1068937Y-159020D01*
X+1068937Y-144020D02*
X+1068937Y-174020D01*
X+1343937Y-144020D02*
X+1313937Y-174020D01*
X+1313937Y-144020D02*
X+1328937Y-159020D01*
X+1383937Y-174020D02*
X+1353937Y-174020D01*
X+1353937Y-144020D01*
X+1383937Y-144020D01*
X+1353937Y-159020D02*
X+1373937Y-159020D01*
X+1393937Y-169020D02*
X+1398937Y-174020D01*
X+1418937Y-174020D01*
X+1423937Y-169020D01*
X+1423937Y-164020D01*
X+1418937Y-159020D01*
X+1398937Y-159020D01*
X+1393937Y-154020D01*
X+1393937Y-149020D01*
X+1398937Y-144020D01*
X+1418937Y-144020D01*
X+1423937Y-149020D01*
X+1651937Y-149020D02*
X+1656937Y-144020D01*
X+1671937Y-144020D01*
X+1676937Y-149020D01*
X+1676937Y-154020D01*
X+1671937Y-159020D01*
X+1656937Y-159020D01*
X+1651937Y-164020D01*
X+1651937Y-174020D01*
X+1676937Y-174020D01*
X+1716937Y-154020D02*
X+1711937Y-159020D01*
X+1696937Y-159020D01*
X+1691937Y-154020D01*
X+1691937Y-149020D01*
X+1696937Y-144020D01*
X+1711937Y-144020D01*
X+1716937Y-149020D01*
X+1716937Y-169020D01*
X+1711937Y-174020D01*
X+1696937Y-174020D01*
D25*
X+831937Y-229020D02*
X+831937Y-279020D01*
X+806937Y-254020D02*
X+856937Y-254020D01*
X+814259Y-236342D02*
X+849615Y-271697D01*
X+814259Y-271697D02*
X+849615Y-236342D01*
D35*
X+978937Y-259020D02*
X+948937Y-259020D01*
X+968937Y-239020D01*
X+968937Y-269020D01*
X+993937Y-244020D02*
X+998937Y-239020D01*
X+1013937Y-239020D01*
X+1018937Y-244020D01*
X+1018937Y-249020D01*
X+1013937Y-254020D01*
X+1018937Y-259020D01*
X+1018937Y-264020D01*
X+1013937Y-269020D01*
X+998937Y-269020D01*
X+993937Y-264020D01*
X+1003937Y-254020D02*
X+1013937Y-254020D01*
X+1043937Y-264020D02*
X+1048937Y-264020D01*
X+1048937Y-269020D01*
X+1043937Y-269020D01*
X+1043937Y-264020D01*
X+1073937Y-244020D02*
X+1078937Y-239020D01*
X+1093937Y-239020D01*
X+1098937Y-244020D01*
X+1098937Y-249020D01*
X+1093937Y-254020D01*
X+1098937Y-259020D01*
X+1098937Y-264020D01*
X+1093937Y-269020D01*
X+1078937Y-269020D01*
X+1073937Y-264020D01*
X+1083937Y-254020D02*
X+1093937Y-254020D01*
X+1108937Y-264020D02*
X+1108937Y-244020D01*
X+1113937Y-239020D01*
X+1133937Y-239020D01*
X+1138937Y-244020D01*
X+1138937Y-264020D01*
X+1133937Y-269020D01*
X+1113937Y-269020D01*
X+1108937Y-264020D01*
X+1108937Y-269020D02*
X+1138937Y-239020D01*
X+1153937Y-239020D02*
X+1178937Y-239020D01*
X+1178937Y-244020D01*
X+1153937Y-269020D01*
X+1193937Y-239020D02*
X+1193937Y-264020D01*
X+1198937Y-269020D01*
X+1213937Y-269020D01*
X+1218937Y-264020D01*
X+1188937Y-249020D02*
X+1213937Y-249020D01*
X+1258937Y-269020D02*
X+1258937Y-254020D01*
X+1253937Y-249020D01*
X+1233937Y-249020D01*
X+1228937Y-254020D01*
X+1228937Y-239020D02*
X+1228937Y-269020D01*
X+1343937Y-239020D02*
X+1313937Y-269020D01*
X+1313937Y-239020D02*
X+1328937Y-254020D01*
X+1383937Y-269020D02*
X+1353937Y-269020D01*
X+1353937Y-239020D01*
X+1383937Y-239020D01*
X+1353937Y-254020D02*
X+1373937Y-254020D01*
X+1393937Y-264020D02*
X+1398937Y-269020D01*
X+1418937Y-269020D01*
X+1423937Y-264020D01*
X+1423937Y-259020D01*
X+1418937Y-254020D01*
X+1398937Y-254020D01*
X+1393937Y-249020D01*
X+1393937Y-244020D01*
X+1398937Y-239020D01*
X+1418937Y-239020D01*
X+1423937Y-244020D01*
X+1656937Y-249020D02*
X+1666937Y-239020D01*
X+1666937Y-269020D01*
X+1716937Y-244020D02*
X+1711937Y-239020D01*
X+1696937Y-239020D01*
X+1691937Y-244020D01*
X+1691937Y-264020D01*
X+1696937Y-269020D01*
X+1711937Y-269020D01*
X+1716937Y-264020D01*
X+1716937Y-259020D01*
X+1711937Y-254020D01*
X+1691937Y-254020D01*
D25*
X+856937Y-349020D02*
X+856852Y-346955D01*
X+856157Y-342823D01*
X+854703Y-338691D01*
X+852330Y-334559D01*
X+848699Y-330472D01*
X+844567Y-327445D01*
X+840435Y-325509D01*
X+836303Y-324404D01*
X+832171Y-324021D01*
X+831937Y-324020D01*
X+806937Y-349020D02*
X+807022Y-346955D01*
X+807717Y-342823D01*
X+809171Y-338691D01*
X+811544Y-334559D01*
X+815175Y-330472D01*
X+819307Y-327445D01*
X+823439Y-325509D01*
X+827571Y-324404D01*
X+831703Y-324021D01*
X+831937Y-324020D01*
X+806937Y-349020D02*
X+807022Y-351085D01*
X+807717Y-355217D01*
X+809171Y-359349D01*
X+811544Y-363481D01*
X+815175Y-367568D01*
X+819307Y-370595D01*
X+823439Y-372531D01*
X+827571Y-373636D01*
X+831703Y-374019D01*
X+831937Y-374020D01*
X+856937Y-349020D02*
X+856852Y-351085D01*
X+856157Y-355217D01*
X+854703Y-359349D01*
X+852330Y-363481D01*
X+848699Y-367568D01*
X+844567Y-370595D01*
X+840435Y-372531D01*
X+836303Y-373636D01*
X+832171Y-374019D01*
X+831937Y-374020D01*
X+831937Y-324020D02*
X+831937Y-374020D01*
X+806937Y-349020D02*
X+856937Y-349020D01*
D35*
X+978937Y-354020D02*
X+948937Y-354020D01*
X+968937Y-334020D01*
X+968937Y-364020D01*
X+993937Y-339020D02*
X+998937Y-334020D01*
X+1013937Y-334020D01*
X+1018937Y-339020D01*
X+1018937Y-344020D01*
X+1013937Y-349020D01*
X+1018937Y-354020D01*
X+1018937Y-359020D01*
X+1013937Y-364020D01*
X+998937Y-364020D01*
X+993937Y-359020D01*
X+1003937Y-349020D02*
X+1013937Y-349020D01*
X+1043937Y-359020D02*
X+1048937Y-359020D01*
X+1048937Y-364020D01*
X+1043937Y-364020D01*
X+1043937Y-359020D01*
X+1073937Y-334020D02*
X+1098937Y-334020D01*
X+1098937Y-339020D01*
X+1073937Y-364020D01*
X+1108937Y-359020D02*
X+1108937Y-339020D01*
X+1113937Y-334020D01*
X+1133937Y-334020D01*
X+1138937Y-339020D01*
X+1138937Y-359020D01*
X+1133937Y-364020D01*
X+1113937Y-364020D01*
X+1108937Y-359020D01*
X+1108937Y-364020D02*
X+1138937Y-334020D01*
X+1158937Y-344020D02*
X+1168937Y-334020D01*
X+1168937Y-364020D01*
X+1193937Y-334020D02*
X+1193937Y-359020D01*
X+1198937Y-364020D01*
X+1213937Y-364020D01*
X+1218937Y-359020D01*
X+1188937Y-344020D02*
X+1213937Y-344020D01*
X+1258937Y-364020D02*
X+1258937Y-349020D01*
X+1253937Y-344020D01*
X+1233937Y-344020D01*
X+1228937Y-349020D01*
X+1228937Y-334020D02*
X+1228937Y-364020D01*
X+1343937Y-334020D02*
X+1313937Y-364020D01*
X+1313937Y-334020D02*
X+1328937Y-349020D01*
X+1383937Y-364020D02*
X+1353937Y-364020D01*
X+1353937Y-334020D01*
X+1383937Y-334020D01*
X+1353937Y-349020D02*
X+1373937Y-349020D01*
X+1393937Y-359020D02*
X+1398937Y-364020D01*
X+1418937Y-364020D01*
X+1423937Y-359020D01*
X+1423937Y-354020D01*
X+1418937Y-349020D01*
X+1398937Y-349020D01*
X+1393937Y-344020D01*
X+1393937Y-339020D01*
X+1398937Y-334020D01*
X+1418937Y-334020D01*
X+1423937Y-339020D01*
X+1656937Y-344020D02*
X+1666937Y-334020D01*
X+1666937Y-364020D01*
X+1696937Y-344020D02*
X+1706937Y-334020D01*
X+1706937Y-364020D01*
D25*
X+856937Y-444020D02*
X+856852Y-441955D01*
X+856157Y-437823D01*
X+854703Y-433691D01*
X+852330Y-429559D01*
X+848699Y-425472D01*
X+844567Y-422445D01*
X+840435Y-420509D01*
X+836303Y-419404D01*
X+832171Y-419021D01*
X+831937Y-419020D01*
X+806937Y-444020D02*
X+807022Y-441955D01*
X+807717Y-437823D01*
X+809171Y-433691D01*
X+811544Y-429559D01*
X+815175Y-425472D01*
X+819307Y-422445D01*
X+823439Y-420509D01*
X+827571Y-419404D01*
X+831703Y-419021D01*
X+831937Y-419020D01*
X+806937Y-444020D02*
X+807022Y-446085D01*
X+807717Y-450217D01*
X+809171Y-454349D01*
X+811544Y-458481D01*
X+815175Y-462568D01*
X+819307Y-465595D01*
X+823439Y-467531D01*
X+827571Y-468636D01*
X+831703Y-469019D01*
X+831937Y-469020D01*
X+856937Y-444020D02*
X+856852Y-446085D01*
X+856157Y-450217D01*
X+854703Y-454349D01*
X+852330Y-458481D01*
X+848699Y-462568D01*
X+844567Y-465595D01*
X+840435Y-467531D01*
X+836303Y-468636D01*
X+832171Y-469019D01*
X+831937Y-469020D01*
X+814259Y-426342D02*
X+849615Y-461697D01*
X+814259Y-461697D02*
X+849615Y-426342D01*
D35*
X+978937Y-429020D02*
X+953937Y-429020D01*
X+953937Y-439020D01*
X+973937Y-439020D01*
X+978937Y-444020D01*
X+978937Y-454020D01*
X+973937Y-459020D01*
X+958937Y-459020D01*
X+953937Y-454020D01*
X+998937Y-439020D02*
X+1008937Y-429020D01*
X+1008937Y-459020D01*
X+1043937Y-454020D02*
X+1048937Y-454020D01*
X+1048937Y-459020D01*
X+1043937Y-459020D01*
X+1043937Y-454020D01*
X+1078937Y-439020D02*
X+1088937Y-429020D01*
X+1088937Y-459020D01*
X+1118937Y-444020D02*
X+1113937Y-439020D01*
X+1113937Y-434020D01*
X+1118937Y-429020D01*
X+1133937Y-429020D01*
X+1138937Y-434020D01*
X+1138937Y-439020D01*
X+1133937Y-444020D01*
X+1118937Y-444020D01*
X+1113937Y-449020D01*
X+1113937Y-454020D01*
X+1118937Y-459020D01*
X+1133937Y-459020D01*
X+1138937Y-454020D01*
X+1138937Y-449020D01*
X+1133937Y-444020D01*
X+1158937Y-439020D02*
X+1168937Y-429020D01*
X+1168937Y-459020D01*
X+1193937Y-429020D02*
X+1193937Y-454020D01*
X+1198937Y-459020D01*
X+1213937Y-459020D01*
X+1218937Y-454020D01*
X+1188937Y-439020D02*
X+1213937Y-439020D01*
X+1258937Y-459020D02*
X+1258937Y-444020D01*
X+1253937Y-439020D01*
X+1233937Y-439020D01*
X+1228937Y-444020D01*
X+1228937Y-429020D02*
X+1228937Y-459020D01*
X+1343937Y-429020D02*
X+1313937Y-459020D01*
X+1313937Y-429020D02*
X+1328937Y-444020D01*
X+1383937Y-459020D02*
X+1353937Y-459020D01*
X+1353937Y-429020D01*
X+1383937Y-429020D01*
X+1353937Y-444020D02*
X+1373937Y-444020D01*
X+1393937Y-454020D02*
X+1398937Y-459020D01*
X+1418937Y-459020D01*
X+1423937Y-454020D01*
X+1423937Y-449020D01*
X+1418937Y-444020D01*
X+1398937Y-444020D01*
X+1393937Y-439020D01*
X+1393937Y-434020D01*
X+1398937Y-429020D01*
X+1418937Y-429020D01*
X+1423937Y-434020D01*
X+1676937Y-429020D02*
X+1651937Y-429020D01*
X+1651937Y-439020D01*
X+1671937Y-439020D01*
X+1676937Y-444020D01*
X+1676937Y-454020D01*
X+1671937Y-459020D01*
X+1656937Y-459020D01*
X+1651937Y-454020D01*
D25*
X+856937Y-539020D02*
X+856852Y-536955D01*
X+856157Y-532823D01*
X+854703Y-528691D01*
X+852330Y-524559D01*
X+848699Y-520472D01*
X+844567Y-517445D01*
X+840435Y-515509D01*
X+836303Y-514404D01*
X+832171Y-514021D01*
X+831937Y-514020D01*
X+806937Y-539020D02*
X+807022Y-536955D01*
X+807717Y-532823D01*
X+809171Y-528691D01*
X+811544Y-524559D01*
X+815175Y-520472D01*
X+819307Y-517445D01*
X+823439Y-515509D01*
X+827571Y-514404D01*
X+831703Y-514021D01*
X+831937Y-514020D01*
X+806937Y-539020D02*
X+807022Y-541085D01*
X+807717Y-545217D01*
X+809171Y-549349D01*
X+811544Y-553481D01*
X+815175Y-557568D01*
X+819307Y-560595D01*
X+823439Y-562531D01*
X+827571Y-563636D01*
X+831703Y-564019D01*
X+831937Y-564020D01*
X+856937Y-539020D02*
X+856852Y-541085D01*
X+856157Y-545217D01*
X+854703Y-549349D01*
X+852330Y-553481D01*
X+848699Y-557568D01*
X+844567Y-560595D01*
X+840435Y-562531D01*
X+836303Y-563636D01*
X+832171Y-564019D01*
X+831937Y-564020D01*
X+831937Y-514020D02*
X+831937Y-564020D01*
X+806937Y-539020D02*
X+856937Y-539020D01*
X+856852Y-536955D01*
X+856157Y-532823D01*
X+854703Y-528691D01*
X+852330Y-524559D01*
X+848699Y-520472D01*
X+844567Y-517445D01*
X+840435Y-515509D01*
X+836303Y-514404D01*
X+832171Y-514021D01*
X+831937Y-514020D01*
X+806937Y-539020D02*
X+807022Y-536955D01*
X+807717Y-532823D01*
X+809171Y-528691D01*
X+811544Y-524559D01*
X+815175Y-520472D01*
X+819307Y-517445D01*
X+823439Y-515509D01*
X+827571Y-514404D01*
X+831703Y-514021D01*
X+831937Y-514020D01*
X+806937Y-539020D02*
X+807022Y-541085D01*
X+807717Y-545217D01*
X+809171Y-549349D01*
X+811544Y-553481D01*
X+815175Y-557568D01*
X+819307Y-560595D01*
X+823439Y-562531D01*
X+827571Y-563636D01*
X+831703Y-564019D01*
X+831937Y-564020D01*
X+856937Y-539020D02*
X+856852Y-541085D01*
X+856157Y-545217D01*
X+854703Y-549349D01*
X+852330Y-553481D01*
X+848699Y-557568D01*
X+844567Y-560595D01*
X+840435Y-562531D01*
X+836303Y-563636D01*
X+832171Y-564019D01*
X+831937Y-564020D01*
X+814259Y-521342D02*
X+849615Y-556697D01*
X+814259Y-556697D02*
X+849615Y-521342D01*
D35*
X+958937Y-534020D02*
X+968937Y-524020D01*
X+968937Y-554020D01*
X+988937Y-549020D02*
X+988937Y-529020D01*
X+993937Y-524020D01*
X+1013937Y-524020D01*
X+1018937Y-529020D01*
X+1018937Y-549020D01*
X+1013937Y-554020D01*
X+993937Y-554020D01*
X+988937Y-549020D01*
X+988937Y-554020D02*
X+1018937Y-524020D01*
X+1028937Y-549020D02*
X+1028937Y-529020D01*
X+1033937Y-524020D01*
X+1053937Y-524020D01*
X+1058937Y-529020D01*
X+1058937Y-549020D01*
X+1053937Y-554020D01*
X+1033937Y-554020D01*
X+1028937Y-549020D01*
X+1028937Y-554020D02*
X+1058937Y-524020D01*
X+1073937Y-524020D02*
X+1073937Y-549020D01*
X+1078937Y-554020D01*
X+1093937Y-554020D01*
X+1098937Y-549020D01*
X+1068937Y-534020D02*
X+1093937Y-534020D01*
X+1138937Y-554020D02*
X+1138937Y-539020D01*
X+1133937Y-534020D01*
X+1113937Y-534020D01*
X+1108937Y-539020D01*
X+1108937Y-524020D02*
X+1108937Y-554020D01*
X+1343937Y-524020D02*
X+1313937Y-554020D01*
X+1313937Y-524020D02*
X+1328937Y-539020D01*
X+1383937Y-554020D02*
X+1353937Y-554020D01*
X+1353937Y-524020D01*
X+1383937Y-524020D01*
X+1353937Y-539020D02*
X+1373937Y-539020D01*
X+1393937Y-549020D02*
X+1398937Y-554020D01*
X+1418937Y-554020D01*
X+1423937Y-549020D01*
X+1423937Y-544020D01*
X+1418937Y-539020D01*
X+1398937Y-539020D01*
X+1393937Y-534020D01*
X+1393937Y-529020D01*
X+1398937Y-524020D01*
X+1418937Y-524020D01*
X+1423937Y-529020D01*
X+1676937Y-544020D02*
X+1646937Y-544020D01*
X+1666937Y-524020D01*
X+1666937Y-554020D01*
M02*
