G04 PROTEUS RS274X GERBER FILE*
%FSLAX26Y26*%
%MOIN*%
G01*
%ADD26C,0.003937*%
%ADD27C,0.001250*%
%ADD25C,0.004000*%
%ADD28C,0.007874*%
D26*
X+776276Y+229819D02*
X+2776276Y+229819D01*
X+2776276Y+1129819D01*
X+776276Y+1129819D01*
X+776276Y+229819D01*
D27*
X+799633Y+802743D02*
X+808633Y+802743D01*
X+796633Y+803743D02*
X+811633Y+803743D01*
X+840633Y+803743D02*
X+843633Y+803743D01*
X+794633Y+804743D02*
X+813633Y+804743D01*
X+840633Y+804743D02*
X+843633Y+804743D01*
X+793633Y+805743D02*
X+799633Y+805743D01*
X+808633Y+805743D02*
X+814633Y+805743D01*
X+840633Y+805743D02*
X+843633Y+805743D01*
X+792633Y+806743D02*
X+797633Y+806743D01*
X+810633Y+806743D02*
X+815633Y+806743D01*
X+840633Y+806743D02*
X+843633Y+806743D01*
X+792633Y+807743D02*
X+796633Y+807743D01*
X+811633Y+807743D02*
X+815633Y+807743D01*
X+840633Y+807743D02*
X+843633Y+807743D01*
X+791633Y+808743D02*
X+795633Y+808743D01*
X+812633Y+808743D02*
X+816633Y+808743D01*
X+840633Y+808743D02*
X+843633Y+808743D01*
X+791633Y+809743D02*
X+794633Y+809743D01*
X+813633Y+809743D02*
X+816633Y+809743D01*
X+840633Y+809743D02*
X+843633Y+809743D01*
X+791633Y+810743D02*
X+794633Y+810743D01*
X+813633Y+810743D02*
X+816633Y+810743D01*
X+840633Y+810743D02*
X+843633Y+810743D01*
X+790633Y+811743D02*
X+794633Y+811743D01*
X+813633Y+811743D02*
X+817633Y+811743D01*
X+840633Y+811743D02*
X+843633Y+811743D01*
X+790633Y+812743D02*
X+793633Y+812743D01*
X+814633Y+812743D02*
X+817633Y+812743D01*
X+840633Y+812743D02*
X+843633Y+812743D01*
X+790633Y+813743D02*
X+793633Y+813743D01*
X+814633Y+813743D02*
X+817633Y+813743D01*
X+840633Y+813743D02*
X+843633Y+813743D01*
X+790633Y+814743D02*
X+793633Y+814743D01*
X+814633Y+814743D02*
X+817633Y+814743D01*
X+840633Y+814743D02*
X+843633Y+814743D01*
X+790633Y+815743D02*
X+793633Y+815743D01*
X+814633Y+815743D02*
X+817633Y+815743D01*
X+840633Y+815743D02*
X+843633Y+815743D01*
X+790633Y+816743D02*
X+793633Y+816743D01*
X+814633Y+816743D02*
X+817633Y+816743D01*
X+840633Y+816743D02*
X+843633Y+816743D01*
X+790633Y+817743D02*
X+793633Y+817743D01*
X+814633Y+817743D02*
X+817633Y+817743D01*
X+840633Y+817743D02*
X+843633Y+817743D01*
X+790633Y+818743D02*
X+793633Y+818743D01*
X+814633Y+818743D02*
X+817633Y+818743D01*
X+840633Y+818743D02*
X+843633Y+818743D01*
X+790633Y+819743D02*
X+793633Y+819743D01*
X+814633Y+819743D02*
X+817633Y+819743D01*
X+840633Y+819743D02*
X+843633Y+819743D01*
X+790633Y+820743D02*
X+793633Y+820743D01*
X+814633Y+820743D02*
X+817633Y+820743D01*
X+840633Y+820743D02*
X+843633Y+820743D01*
X+790633Y+821743D02*
X+793633Y+821743D01*
X+814633Y+821743D02*
X+817633Y+821743D01*
X+840633Y+821743D02*
X+843633Y+821743D01*
X+790633Y+822743D02*
X+793633Y+822743D01*
X+814633Y+822743D02*
X+817633Y+822743D01*
X+840633Y+822743D02*
X+843633Y+822743D01*
X+790633Y+823743D02*
X+793633Y+823743D01*
X+814633Y+823743D02*
X+817633Y+823743D01*
X+840633Y+823743D02*
X+843633Y+823743D01*
X+790633Y+824743D02*
X+793633Y+824743D01*
X+814633Y+824743D02*
X+817633Y+824743D01*
X+840633Y+824743D02*
X+843633Y+824743D01*
X+790633Y+825743D02*
X+793633Y+825743D01*
X+814633Y+825743D02*
X+817633Y+825743D01*
X+840633Y+825743D02*
X+843633Y+825743D01*
X+790633Y+826743D02*
X+793633Y+826743D01*
X+814633Y+826743D02*
X+817633Y+826743D01*
X+840633Y+826743D02*
X+843633Y+826743D01*
X+790633Y+827743D02*
X+793633Y+827743D01*
X+814633Y+827743D02*
X+817633Y+827743D01*
X+840633Y+827743D02*
X+843633Y+827743D01*
X+790633Y+828743D02*
X+793633Y+828743D01*
X+814633Y+828743D02*
X+817633Y+828743D01*
X+832633Y+828743D02*
X+835633Y+828743D01*
X+840633Y+828743D02*
X+843633Y+828743D01*
X+790633Y+829743D02*
X+793633Y+829743D01*
X+814633Y+829743D02*
X+817633Y+829743D01*
X+832633Y+829743D02*
X+838633Y+829743D01*
X+840633Y+829743D02*
X+843633Y+829743D01*
X+790633Y+830743D02*
X+793633Y+830743D01*
X+814633Y+830743D02*
X+817633Y+830743D01*
X+832633Y+830743D02*
X+839633Y+830743D01*
X+840633Y+830743D02*
X+843633Y+830743D01*
X+790633Y+831743D02*
X+793633Y+831743D01*
X+814633Y+831743D02*
X+817633Y+831743D01*
X+835633Y+831743D02*
X+843633Y+831743D01*
X+790633Y+832743D02*
X+793633Y+832743D01*
X+814633Y+832743D02*
X+817633Y+832743D01*
X+837633Y+832743D02*
X+843633Y+832743D01*
X+790633Y+833743D02*
X+793633Y+833743D01*
X+814633Y+833743D02*
X+817633Y+833743D01*
X+838633Y+833743D02*
X+843633Y+833743D01*
X+790633Y+834743D02*
X+793633Y+834743D01*
X+814633Y+834743D02*
X+817633Y+834743D01*
X+839633Y+834743D02*
X+843633Y+834743D01*
X+790633Y+835743D02*
X+793633Y+835743D01*
X+814633Y+835743D02*
X+817633Y+835743D01*
X+840633Y+835743D02*
X+843633Y+835743D01*
X+790633Y+836743D02*
X+793633Y+836743D01*
X+814633Y+836743D02*
X+817633Y+836743D01*
X+840633Y+836743D02*
X+843633Y+836743D01*
D25*
X+1376276Y+1029331D02*
X+2576276Y+1029331D01*
X+2576276Y+1129331D01*
X+1376276Y+1129331D01*
X+1376276Y+1029331D01*
X+2476276Y+1029331D02*
X+2476276Y+1129331D01*
D27*
X+1371803Y+973727D02*
X+1371803Y+977727D01*
X+1372803Y+971727D02*
X+1372803Y+977727D01*
X+1373803Y+970727D02*
X+1373803Y+977727D01*
X+1374803Y+969727D02*
X+1374803Y+974727D01*
X+1375803Y+969727D02*
X+1375803Y+972727D01*
X+1376803Y+968727D02*
X+1376803Y+972727D01*
X+1377803Y+968727D02*
X+1377803Y+971727D01*
X+1378803Y+968727D02*
X+1378803Y+971727D01*
X+1379803Y+968727D02*
X+1379803Y+971727D01*
X+1380803Y+968727D02*
X+1380803Y+971727D01*
X+1381803Y+968727D02*
X+1381803Y+971727D01*
X+1382803Y+968727D02*
X+1382803Y+972727D01*
X+1383803Y+969727D02*
X+1383803Y+973727D01*
X+1384803Y+969727D02*
X+1384803Y+975727D01*
X+1385803Y+970727D02*
X+1385803Y+1003727D01*
X+1386803Y+972727D02*
X+1386803Y+1003727D01*
X+1387803Y+974727D02*
X+1387803Y+1003727D01*
X+1399803Y+975727D02*
X+1399803Y+977727D01*
X+1400803Y+972727D02*
X+1400803Y+977727D01*
X+1400803Y+996727D02*
X+1400803Y+998727D01*
X+1401803Y+971727D02*
X+1401803Y+977727D01*
X+1401803Y+996727D02*
X+1401803Y+1000727D01*
X+1402803Y+970727D02*
X+1402803Y+975727D01*
X+1402803Y+996727D02*
X+1402803Y+1001727D01*
X+1403803Y+969727D02*
X+1403803Y+973727D01*
X+1403803Y+998727D02*
X+1403803Y+1002727D01*
X+1404803Y+969727D02*
X+1404803Y+972727D01*
X+1404803Y+999727D02*
X+1404803Y+1003727D01*
X+1405803Y+969727D02*
X+1405803Y+972727D01*
X+1405803Y+1000727D02*
X+1405803Y+1003727D01*
X+1406803Y+968727D02*
X+1406803Y+971727D01*
X+1406803Y+1001727D02*
X+1406803Y+1004727D01*
X+1407803Y+968727D02*
X+1407803Y+971727D01*
X+1407803Y+986727D02*
X+1407803Y+989727D01*
X+1407803Y+1001727D02*
X+1407803Y+1004727D01*
X+1408803Y+968727D02*
X+1408803Y+971727D01*
X+1408803Y+986727D02*
X+1408803Y+989727D01*
X+1408803Y+1001727D02*
X+1408803Y+1004727D01*
X+1409803Y+968727D02*
X+1409803Y+971727D01*
X+1409803Y+986727D02*
X+1409803Y+989727D01*
X+1409803Y+1001727D02*
X+1409803Y+1004727D01*
X+1410803Y+968727D02*
X+1410803Y+971727D01*
X+1410803Y+986727D02*
X+1410803Y+989727D01*
X+1410803Y+1001727D02*
X+1410803Y+1004727D01*
X+1411803Y+968727D02*
X+1411803Y+971727D01*
X+1411803Y+986727D02*
X+1411803Y+990727D01*
X+1411803Y+1001727D02*
X+1411803Y+1004727D01*
X+1412803Y+968727D02*
X+1412803Y+972727D01*
X+1412803Y+985727D02*
X+1412803Y+990727D01*
X+1412803Y+1000727D02*
X+1412803Y+1003727D01*
X+1413803Y+969727D02*
X+1413803Y+972727D01*
X+1413803Y+985727D02*
X+1413803Y+991727D01*
X+1413803Y+999727D02*
X+1413803Y+1003727D01*
X+1414803Y+969727D02*
X+1414803Y+973727D01*
X+1414803Y+984727D02*
X+1414803Y+988727D01*
X+1414803Y+989727D02*
X+1414803Y+992727D01*
X+1414803Y+998727D02*
X+1414803Y+1002727D01*
X+1415803Y+970727D02*
X+1415803Y+974727D01*
X+1415803Y+983727D02*
X+1415803Y+987727D01*
X+1415803Y+989727D02*
X+1415803Y+1002727D01*
X+1416803Y+971727D02*
X+1416803Y+976727D01*
X+1416803Y+982727D02*
X+1416803Y+986727D01*
X+1416803Y+990727D02*
X+1416803Y+1000727D01*
X+1417803Y+972727D02*
X+1417803Y+985727D01*
X+1417803Y+992727D02*
X+1417803Y+998727D01*
X+1418803Y+973727D02*
X+1418803Y+984727D01*
X+1419803Y+975727D02*
X+1419803Y+982727D01*
D26*
X+2781700Y+910000D02*
X+3037606Y+910000D01*
X+3037606Y+1125748D01*
X+2781700Y+1125748D01*
X+2781700Y+910000D01*
D27*
X+2821348Y+848276D02*
X+2825348Y+848276D01*
X+2821348Y+849276D02*
X+2827348Y+849276D01*
X+2821348Y+850276D02*
X+2828348Y+850276D01*
X+2824348Y+851276D02*
X+2829348Y+851276D01*
X+2826348Y+852276D02*
X+2829348Y+852276D01*
X+2826348Y+853276D02*
X+2830348Y+853276D01*
X+2827348Y+854276D02*
X+2830348Y+854276D01*
X+2827348Y+855276D02*
X+2830348Y+855276D01*
X+2827348Y+856276D02*
X+2830348Y+856276D01*
X+2827348Y+857276D02*
X+2830348Y+857276D01*
X+2827348Y+858276D02*
X+2830348Y+858276D01*
X+2826348Y+859276D02*
X+2830348Y+859276D01*
X+2825348Y+860276D02*
X+2829348Y+860276D01*
X+2823348Y+861276D02*
X+2829348Y+861276D01*
X+2795348Y+862276D02*
X+2828348Y+862276D01*
X+2795348Y+863276D02*
X+2826348Y+863276D01*
X+2795348Y+864276D02*
X+2824348Y+864276D01*
X+2815348Y+876276D02*
X+2819348Y+876276D01*
X+2813348Y+877276D02*
X+2819348Y+877276D01*
X+2812348Y+878276D02*
X+2819348Y+878276D01*
X+2810348Y+879276D02*
X+2815348Y+879276D01*
X+2816348Y+879276D02*
X+2819348Y+879276D01*
X+2809348Y+880276D02*
X+2813348Y+880276D01*
X+2816348Y+880276D02*
X+2819348Y+880276D01*
X+2807348Y+881276D02*
X+2812348Y+881276D01*
X+2816348Y+881276D02*
X+2819348Y+881276D01*
X+2805348Y+882276D02*
X+2810348Y+882276D01*
X+2816348Y+882276D02*
X+2819348Y+882276D01*
X+2804348Y+883276D02*
X+2808348Y+883276D01*
X+2816348Y+883276D02*
X+2819348Y+883276D01*
X+2802348Y+884276D02*
X+2807348Y+884276D01*
X+2816348Y+884276D02*
X+2819348Y+884276D01*
X+2801348Y+885276D02*
X+2805348Y+885276D01*
X+2816348Y+885276D02*
X+2819348Y+885276D01*
X+2799348Y+886276D02*
X+2804348Y+886276D01*
X+2816348Y+886276D02*
X+2819348Y+886276D01*
X+2797348Y+887276D02*
X+2802348Y+887276D01*
X+2816348Y+887276D02*
X+2819348Y+887276D01*
X+2796348Y+888276D02*
X+2800348Y+888276D01*
X+2816348Y+888276D02*
X+2819348Y+888276D01*
X+2795348Y+889276D02*
X+2799348Y+889276D01*
X+2816348Y+889276D02*
X+2819348Y+889276D01*
X+2795348Y+890276D02*
X+2829348Y+890276D01*
X+2795348Y+891276D02*
X+2829348Y+891276D01*
X+2795348Y+892276D02*
X+2829348Y+892276D01*
X+2816348Y+893276D02*
X+2819348Y+893276D01*
X+2816348Y+894276D02*
X+2819348Y+894276D01*
X+2816348Y+895276D02*
X+2819348Y+895276D01*
X+2816348Y+896276D02*
X+2819348Y+896276D01*
X+2816348Y+897276D02*
X+2819348Y+897276D01*
X+2816348Y+898276D02*
X+2819348Y+898276D01*
D26*
X+2784196Y+284709D02*
X+3040102Y+284709D01*
X+3040102Y+600457D01*
X+2784196Y+600457D01*
X+2784196Y+284709D01*
D27*
X+2827781Y+607630D02*
X+2831781Y+607630D01*
X+2827781Y+608630D02*
X+2833781Y+608630D01*
X+2827781Y+609630D02*
X+2834781Y+609630D01*
X+2830781Y+610630D02*
X+2835781Y+610630D01*
X+2832781Y+611630D02*
X+2835781Y+611630D01*
X+2832781Y+612630D02*
X+2836781Y+612630D01*
X+2833781Y+613630D02*
X+2836781Y+613630D01*
X+2833781Y+614630D02*
X+2836781Y+614630D01*
X+2833781Y+615630D02*
X+2836781Y+615630D01*
X+2833781Y+616630D02*
X+2836781Y+616630D01*
X+2833781Y+617630D02*
X+2836781Y+617630D01*
X+2832781Y+618630D02*
X+2836781Y+618630D01*
X+2831781Y+619630D02*
X+2835781Y+619630D01*
X+2829781Y+620630D02*
X+2835781Y+620630D01*
X+2801781Y+621630D02*
X+2834781Y+621630D01*
X+2801781Y+622630D02*
X+2832781Y+622630D01*
X+2801781Y+623630D02*
X+2830781Y+623630D01*
X+2804781Y+636630D02*
X+2805781Y+636630D01*
X+2829781Y+636630D02*
X+2835781Y+636630D01*
X+2803781Y+637630D02*
X+2805781Y+637630D01*
X+2826781Y+637630D02*
X+2835781Y+637630D01*
X+2802781Y+638630D02*
X+2806781Y+638630D01*
X+2824781Y+638630D02*
X+2835781Y+638630D01*
X+2802781Y+639630D02*
X+2805781Y+639630D01*
X+2823781Y+639630D02*
X+2828781Y+639630D01*
X+2832781Y+639630D02*
X+2835781Y+639630D01*
X+2801781Y+640630D02*
X+2805781Y+640630D01*
X+2822781Y+640630D02*
X+2826781Y+640630D01*
X+2832781Y+640630D02*
X+2835781Y+640630D01*
X+2801781Y+641630D02*
X+2804781Y+641630D01*
X+2821781Y+641630D02*
X+2825781Y+641630D01*
X+2832781Y+641630D02*
X+2835781Y+641630D01*
X+2800781Y+642630D02*
X+2804781Y+642630D01*
X+2820781Y+642630D02*
X+2824781Y+642630D01*
X+2832781Y+642630D02*
X+2835781Y+642630D01*
X+2800781Y+643630D02*
X+2803781Y+643630D01*
X+2819781Y+643630D02*
X+2823781Y+643630D01*
X+2832781Y+643630D02*
X+2835781Y+643630D01*
X+2800781Y+644630D02*
X+2803781Y+644630D01*
X+2819781Y+644630D02*
X+2822781Y+644630D01*
X+2832781Y+644630D02*
X+2835781Y+644630D01*
X+2800781Y+645630D02*
X+2803781Y+645630D01*
X+2818781Y+645630D02*
X+2821781Y+645630D01*
X+2832781Y+645630D02*
X+2835781Y+645630D01*
X+2800781Y+646630D02*
X+2803781Y+646630D01*
X+2817781Y+646630D02*
X+2820781Y+646630D01*
X+2832781Y+646630D02*
X+2835781Y+646630D01*
X+2800781Y+647630D02*
X+2803781Y+647630D01*
X+2816781Y+647630D02*
X+2820781Y+647630D01*
X+2832781Y+647630D02*
X+2835781Y+647630D01*
X+2800781Y+648630D02*
X+2803781Y+648630D01*
X+2815781Y+648630D02*
X+2819781Y+648630D01*
X+2832781Y+648630D02*
X+2835781Y+648630D01*
X+2801781Y+649630D02*
X+2804781Y+649630D01*
X+2814781Y+649630D02*
X+2818781Y+649630D01*
X+2832781Y+649630D02*
X+2835781Y+649630D01*
X+2801781Y+650630D02*
X+2805781Y+650630D01*
X+2813781Y+650630D02*
X+2817781Y+650630D01*
X+2832781Y+650630D02*
X+2835781Y+650630D01*
X+2802781Y+651630D02*
X+2807781Y+651630D01*
X+2812781Y+651630D02*
X+2816781Y+651630D01*
X+2832781Y+651630D02*
X+2835781Y+651630D01*
X+2803781Y+652630D02*
X+2815781Y+652630D01*
X+2832781Y+652630D02*
X+2835781Y+652630D01*
X+2804781Y+653630D02*
X+2814781Y+653630D01*
X+2832781Y+653630D02*
X+2835781Y+653630D01*
X+2806781Y+654630D02*
X+2812781Y+654630D01*
X+2832781Y+654630D02*
X+2835781Y+654630D01*
X+3060834Y+432693D02*
X+3070834Y+432693D01*
X+3057834Y+433693D02*
X+3073834Y+433693D01*
X+3055834Y+434693D02*
X+3075834Y+434693D01*
X+3053834Y+435693D02*
X+3060834Y+435693D01*
X+3070834Y+435693D02*
X+3077834Y+435693D01*
X+3052834Y+436693D02*
X+3057834Y+436693D01*
X+3073834Y+436693D02*
X+3078834Y+436693D01*
X+3051834Y+437693D02*
X+3055834Y+437693D01*
X+3075834Y+437693D02*
X+3079834Y+437693D01*
X+3050834Y+438693D02*
X+3054834Y+438693D01*
X+3076834Y+438693D02*
X+3080834Y+438693D01*
X+3049834Y+439693D02*
X+3053834Y+439693D01*
X+3077834Y+439693D02*
X+3081834Y+439693D01*
X+3049834Y+440693D02*
X+3052834Y+440693D01*
X+3078834Y+440693D02*
X+3081834Y+440693D01*
X+3048834Y+441693D02*
X+3052834Y+441693D01*
X+3078834Y+441693D02*
X+3082834Y+441693D01*
X+3048834Y+442693D02*
X+3051834Y+442693D01*
X+3079834Y+442693D02*
X+3082834Y+442693D01*
X+3048834Y+443693D02*
X+3051834Y+443693D01*
X+3079834Y+443693D02*
X+3082834Y+443693D01*
X+3047834Y+444693D02*
X+3050834Y+444693D01*
X+3080834Y+444693D02*
X+3083834Y+444693D01*
X+3047834Y+445693D02*
X+3050834Y+445693D01*
X+3080834Y+445693D02*
X+3083834Y+445693D01*
X+3047834Y+446693D02*
X+3050834Y+446693D01*
X+3080834Y+446693D02*
X+3083834Y+446693D01*
X+3047834Y+447693D02*
X+3050834Y+447693D01*
X+3080834Y+447693D02*
X+3083834Y+447693D01*
X+3047834Y+448693D02*
X+3050834Y+448693D01*
X+3080834Y+448693D02*
X+3083834Y+448693D01*
X+3047834Y+449693D02*
X+3050834Y+449693D01*
X+3080834Y+449693D02*
X+3083834Y+449693D01*
X+3047834Y+450693D02*
X+3050834Y+450693D01*
X+3080834Y+450693D02*
X+3083834Y+450693D01*
X+3047834Y+451693D02*
X+3050834Y+451693D01*
X+3075834Y+451693D02*
X+3076834Y+451693D01*
X+3080834Y+451693D02*
X+3083834Y+451693D01*
X+3048834Y+452693D02*
X+3051834Y+452693D01*
X+3074834Y+452693D02*
X+3076834Y+452693D01*
X+3079834Y+452693D02*
X+3082834Y+452693D01*
X+3048834Y+453693D02*
X+3051834Y+453693D01*
X+3074834Y+453693D02*
X+3077834Y+453693D01*
X+3079834Y+453693D02*
X+3082834Y+453693D01*
X+3048834Y+454693D02*
X+3052834Y+454693D01*
X+3075834Y+454693D02*
X+3078834Y+454693D01*
X+3079834Y+454693D02*
X+3082834Y+454693D01*
X+3049834Y+455693D02*
X+3052834Y+455693D01*
X+3076834Y+455693D02*
X+3081834Y+455693D01*
X+3049834Y+456693D02*
X+3053834Y+456693D01*
X+3077834Y+456693D02*
X+3080834Y+456693D01*
X+3050834Y+457693D02*
X+3054834Y+457693D01*
X+3076834Y+457693D02*
X+3081834Y+457693D01*
X+3051834Y+458693D02*
X+3055834Y+458693D01*
X+3075834Y+458693D02*
X+3081834Y+458693D01*
X+3052834Y+459693D02*
X+3057834Y+459693D01*
X+3073834Y+459693D02*
X+3078834Y+459693D01*
X+3079834Y+459693D02*
X+3082834Y+459693D01*
X+3053834Y+460693D02*
X+3060834Y+460693D01*
X+3070834Y+460693D02*
X+3077834Y+460693D01*
X+3080834Y+460693D02*
X+3083834Y+460693D01*
X+3055834Y+461693D02*
X+3075834Y+461693D01*
X+3081834Y+461693D02*
X+3084834Y+461693D01*
X+3057834Y+462693D02*
X+3073834Y+462693D01*
X+3082834Y+462693D02*
X+3085834Y+462693D01*
X+3060834Y+463693D02*
X+3070834Y+463693D01*
X+3083834Y+463693D02*
X+3084834Y+463693D01*
X+3049771Y+497811D02*
X+3049771Y+505811D01*
X+3050771Y+494811D02*
X+3050771Y+508811D01*
X+3050771Y+524811D02*
X+3050771Y+527811D01*
X+3050771Y+548811D02*
X+3050771Y+551811D01*
X+3050771Y+559811D02*
X+3050771Y+575811D01*
X+3051771Y+492811D02*
X+3051771Y+510811D01*
X+3051771Y+524811D02*
X+3051771Y+528811D01*
X+3051771Y+548811D02*
X+3051771Y+551811D01*
X+3051771Y+559811D02*
X+3051771Y+578811D01*
X+3052771Y+491811D02*
X+3052771Y+497811D01*
X+3052771Y+505811D02*
X+3052771Y+511811D01*
X+3052771Y+524811D02*
X+3052771Y+529811D01*
X+3052771Y+548811D02*
X+3052771Y+551811D01*
X+3052771Y+559811D02*
X+3052771Y+580811D01*
X+3053771Y+490811D02*
X+3053771Y+495811D01*
X+3053771Y+508811D02*
X+3053771Y+512811D01*
X+3053771Y+524811D02*
X+3053771Y+529811D01*
X+3053771Y+548811D02*
X+3053771Y+551811D01*
X+3053771Y+559811D02*
X+3053771Y+562811D01*
X+3053771Y+575811D02*
X+3053771Y+582811D01*
X+3054771Y+489811D02*
X+3054771Y+493811D01*
X+3054771Y+509811D02*
X+3054771Y+513811D01*
X+3054771Y+524811D02*
X+3054771Y+527811D01*
X+3054771Y+528811D02*
X+3054771Y+530811D01*
X+3054771Y+548811D02*
X+3054771Y+551811D01*
X+3054771Y+559811D02*
X+3054771Y+562811D01*
X+3054771Y+578811D02*
X+3054771Y+583811D01*
X+3055771Y+488811D02*
X+3055771Y+492811D01*
X+3055771Y+510811D02*
X+3055771Y+514811D01*
X+3055771Y+524811D02*
X+3055771Y+527811D01*
X+3055771Y+529811D02*
X+3055771Y+531811D01*
X+3055771Y+548811D02*
X+3055771Y+551811D01*
X+3055771Y+559811D02*
X+3055771Y+562811D01*
X+3055771Y+580811D02*
X+3055771Y+584811D01*
X+3056771Y+488811D02*
X+3056771Y+491811D01*
X+3056771Y+511811D02*
X+3056771Y+514811D01*
X+3056771Y+524811D02*
X+3056771Y+527811D01*
X+3056771Y+529811D02*
X+3056771Y+531811D01*
X+3056771Y+548811D02*
X+3056771Y+551811D01*
X+3056771Y+559811D02*
X+3056771Y+562811D01*
X+3056771Y+581811D02*
X+3056771Y+585811D01*
X+3057771Y+487811D02*
X+3057771Y+490811D01*
X+3057771Y+512811D02*
X+3057771Y+515811D01*
X+3057771Y+524811D02*
X+3057771Y+527811D01*
X+3057771Y+530811D02*
X+3057771Y+532811D01*
X+3057771Y+548811D02*
X+3057771Y+551811D01*
X+3057771Y+559811D02*
X+3057771Y+562811D01*
X+3057771Y+582811D02*
X+3057771Y+585811D01*
X+3058771Y+487811D02*
X+3058771Y+490811D01*
X+3058771Y+512811D02*
X+3058771Y+515811D01*
X+3058771Y+524811D02*
X+3058771Y+527811D01*
X+3058771Y+531811D02*
X+3058771Y+533811D01*
X+3058771Y+548811D02*
X+3058771Y+551811D01*
X+3058771Y+559811D02*
X+3058771Y+562811D01*
X+3058771Y+582811D02*
X+3058771Y+586811D01*
X+3059771Y+486811D02*
X+3059771Y+489811D01*
X+3059771Y+524811D02*
X+3059771Y+527811D01*
X+3059771Y+531811D02*
X+3059771Y+533811D01*
X+3059771Y+548811D02*
X+3059771Y+551811D01*
X+3059771Y+559811D02*
X+3059771Y+562811D01*
X+3059771Y+583811D02*
X+3059771Y+586811D01*
X+3060771Y+486811D02*
X+3060771Y+489811D01*
X+3060771Y+524811D02*
X+3060771Y+527811D01*
X+3060771Y+532811D02*
X+3060771Y+534811D01*
X+3060771Y+548811D02*
X+3060771Y+551811D01*
X+3060771Y+559811D02*
X+3060771Y+562811D01*
X+3060771Y+583811D02*
X+3060771Y+586811D01*
X+3061771Y+486811D02*
X+3061771Y+489811D01*
X+3061771Y+524811D02*
X+3061771Y+527811D01*
X+3061771Y+533811D02*
X+3061771Y+535811D01*
X+3061771Y+548811D02*
X+3061771Y+551811D01*
X+3061771Y+559811D02*
X+3061771Y+562811D01*
X+3061771Y+583811D02*
X+3061771Y+586811D01*
X+3062771Y+485811D02*
X+3062771Y+488811D01*
X+3062771Y+524811D02*
X+3062771Y+527811D01*
X+3062771Y+533811D02*
X+3062771Y+535811D01*
X+3062771Y+548811D02*
X+3062771Y+551811D01*
X+3062771Y+559811D02*
X+3062771Y+562811D01*
X+3062771Y+584811D02*
X+3062771Y+587811D01*
X+3063771Y+485811D02*
X+3063771Y+488811D01*
X+3063771Y+524811D02*
X+3063771Y+527811D01*
X+3063771Y+534811D02*
X+3063771Y+536811D01*
X+3063771Y+548811D02*
X+3063771Y+551811D01*
X+3063771Y+559811D02*
X+3063771Y+562811D01*
X+3063771Y+584811D02*
X+3063771Y+587811D01*
X+3064771Y+485811D02*
X+3064771Y+488811D01*
X+3064771Y+524811D02*
X+3064771Y+527811D01*
X+3064771Y+535811D02*
X+3064771Y+537811D01*
X+3064771Y+548811D02*
X+3064771Y+551811D01*
X+3064771Y+559811D02*
X+3064771Y+562811D01*
X+3064771Y+584811D02*
X+3064771Y+587811D01*
X+3065771Y+485811D02*
X+3065771Y+488811D01*
X+3065771Y+524811D02*
X+3065771Y+527811D01*
X+3065771Y+535811D02*
X+3065771Y+538811D01*
X+3065771Y+548811D02*
X+3065771Y+551811D01*
X+3065771Y+559811D02*
X+3065771Y+562811D01*
X+3065771Y+584811D02*
X+3065771Y+587811D01*
X+3066771Y+485811D02*
X+3066771Y+488811D01*
X+3066771Y+524811D02*
X+3066771Y+527811D01*
X+3066771Y+536811D02*
X+3066771Y+538811D01*
X+3066771Y+548811D02*
X+3066771Y+551811D01*
X+3066771Y+559811D02*
X+3066771Y+562811D01*
X+3066771Y+584811D02*
X+3066771Y+587811D01*
X+3067771Y+485811D02*
X+3067771Y+488811D01*
X+3067771Y+504811D02*
X+3067771Y+516811D01*
X+3067771Y+524811D02*
X+3067771Y+527811D01*
X+3067771Y+537811D02*
X+3067771Y+539811D01*
X+3067771Y+548811D02*
X+3067771Y+551811D01*
X+3067771Y+559811D02*
X+3067771Y+562811D01*
X+3067771Y+584811D02*
X+3067771Y+587811D01*
X+3068771Y+485811D02*
X+3068771Y+488811D01*
X+3068771Y+504811D02*
X+3068771Y+516811D01*
X+3068771Y+524811D02*
X+3068771Y+527811D01*
X+3068771Y+538811D02*
X+3068771Y+540811D01*
X+3068771Y+548811D02*
X+3068771Y+551811D01*
X+3068771Y+559811D02*
X+3068771Y+562811D01*
X+3068771Y+584811D02*
X+3068771Y+587811D01*
X+3069771Y+485811D02*
X+3069771Y+488811D01*
X+3069771Y+504811D02*
X+3069771Y+516811D01*
X+3069771Y+524811D02*
X+3069771Y+527811D01*
X+3069771Y+538811D02*
X+3069771Y+540811D01*
X+3069771Y+548811D02*
X+3069771Y+551811D01*
X+3069771Y+559811D02*
X+3069771Y+562811D01*
X+3069771Y+584811D02*
X+3069771Y+587811D01*
X+3070771Y+485811D02*
X+3070771Y+488811D01*
X+3070771Y+513811D02*
X+3070771Y+516811D01*
X+3070771Y+524811D02*
X+3070771Y+527811D01*
X+3070771Y+539811D02*
X+3070771Y+541811D01*
X+3070771Y+548811D02*
X+3070771Y+551811D01*
X+3070771Y+559811D02*
X+3070771Y+562811D01*
X+3070771Y+584811D02*
X+3070771Y+587811D01*
X+3071771Y+485811D02*
X+3071771Y+488811D01*
X+3071771Y+513811D02*
X+3071771Y+516811D01*
X+3071771Y+524811D02*
X+3071771Y+527811D01*
X+3071771Y+540811D02*
X+3071771Y+542811D01*
X+3071771Y+548811D02*
X+3071771Y+551811D01*
X+3071771Y+559811D02*
X+3071771Y+562811D01*
X+3071771Y+584811D02*
X+3071771Y+587811D01*
X+3072771Y+486811D02*
X+3072771Y+489811D01*
X+3072771Y+513811D02*
X+3072771Y+516811D01*
X+3072771Y+524811D02*
X+3072771Y+527811D01*
X+3072771Y+540811D02*
X+3072771Y+542811D01*
X+3072771Y+548811D02*
X+3072771Y+551811D01*
X+3072771Y+559811D02*
X+3072771Y+562811D01*
X+3072771Y+583811D02*
X+3072771Y+586811D01*
X+3073771Y+486811D02*
X+3073771Y+489811D01*
X+3073771Y+513811D02*
X+3073771Y+516811D01*
X+3073771Y+524811D02*
X+3073771Y+527811D01*
X+3073771Y+541811D02*
X+3073771Y+543811D01*
X+3073771Y+548811D02*
X+3073771Y+551811D01*
X+3073771Y+559811D02*
X+3073771Y+562811D01*
X+3073771Y+583811D02*
X+3073771Y+586811D01*
X+3074771Y+486811D02*
X+3074771Y+489811D01*
X+3074771Y+513811D02*
X+3074771Y+516811D01*
X+3074771Y+524811D02*
X+3074771Y+527811D01*
X+3074771Y+542811D02*
X+3074771Y+544811D01*
X+3074771Y+548811D02*
X+3074771Y+551811D01*
X+3074771Y+559811D02*
X+3074771Y+562811D01*
X+3074771Y+583811D02*
X+3074771Y+586811D01*
X+3075771Y+487811D02*
X+3075771Y+490811D01*
X+3075771Y+513811D02*
X+3075771Y+516811D01*
X+3075771Y+524811D02*
X+3075771Y+527811D01*
X+3075771Y+542811D02*
X+3075771Y+544811D01*
X+3075771Y+548811D02*
X+3075771Y+551811D01*
X+3075771Y+559811D02*
X+3075771Y+562811D01*
X+3075771Y+582811D02*
X+3075771Y+585811D01*
X+3076771Y+487811D02*
X+3076771Y+490811D01*
X+3076771Y+513811D02*
X+3076771Y+516811D01*
X+3076771Y+524811D02*
X+3076771Y+527811D01*
X+3076771Y+543811D02*
X+3076771Y+545811D01*
X+3076771Y+548811D02*
X+3076771Y+551811D01*
X+3076771Y+559811D02*
X+3076771Y+562811D01*
X+3076771Y+582811D02*
X+3076771Y+585811D01*
X+3077771Y+488811D02*
X+3077771Y+491811D01*
X+3077771Y+512811D02*
X+3077771Y+516811D01*
X+3077771Y+524811D02*
X+3077771Y+527811D01*
X+3077771Y+544811D02*
X+3077771Y+546811D01*
X+3077771Y+548811D02*
X+3077771Y+551811D01*
X+3077771Y+559811D02*
X+3077771Y+562811D01*
X+3077771Y+581811D02*
X+3077771Y+584811D01*
X+3078771Y+488811D02*
X+3078771Y+492811D01*
X+3078771Y+511811D02*
X+3078771Y+516811D01*
X+3078771Y+524811D02*
X+3078771Y+527811D01*
X+3078771Y+544811D02*
X+3078771Y+546811D01*
X+3078771Y+548811D02*
X+3078771Y+551811D01*
X+3078771Y+559811D02*
X+3078771Y+562811D01*
X+3078771Y+580811D02*
X+3078771Y+584811D01*
X+3079771Y+489811D02*
X+3079771Y+493811D01*
X+3079771Y+509811D02*
X+3079771Y+516811D01*
X+3079771Y+524811D02*
X+3079771Y+527811D01*
X+3079771Y+545811D02*
X+3079771Y+547811D01*
X+3079771Y+548811D02*
X+3079771Y+551811D01*
X+3079771Y+559811D02*
X+3079771Y+562811D01*
X+3079771Y+578811D02*
X+3079771Y+583811D01*
X+3080771Y+490811D02*
X+3080771Y+495811D01*
X+3080771Y+508811D02*
X+3080771Y+512811D01*
X+3080771Y+513811D02*
X+3080771Y+516811D01*
X+3080771Y+524811D02*
X+3080771Y+527811D01*
X+3080771Y+546811D02*
X+3080771Y+551811D01*
X+3080771Y+559811D02*
X+3080771Y+562811D01*
X+3080771Y+575811D02*
X+3080771Y+582811D01*
X+3081771Y+491811D02*
X+3081771Y+497811D01*
X+3081771Y+505811D02*
X+3081771Y+511811D01*
X+3081771Y+514811D02*
X+3081771Y+516811D01*
X+3081771Y+524811D02*
X+3081771Y+527811D01*
X+3081771Y+546811D02*
X+3081771Y+551811D01*
X+3081771Y+559811D02*
X+3081771Y+580811D01*
X+3082771Y+492811D02*
X+3082771Y+510811D01*
X+3082771Y+514811D02*
X+3082771Y+516811D01*
X+3082771Y+524811D02*
X+3082771Y+527811D01*
X+3082771Y+547811D02*
X+3082771Y+551811D01*
X+3082771Y+559811D02*
X+3082771Y+578811D01*
X+3083771Y+494811D02*
X+3083771Y+508811D01*
X+3083771Y+514811D02*
X+3083771Y+516811D01*
X+3083771Y+524811D02*
X+3083771Y+527811D01*
X+3083771Y+548811D02*
X+3083771Y+551811D01*
X+3083771Y+559811D02*
X+3083771Y+575811D01*
X+3084771Y+497811D02*
X+3084771Y+505811D01*
X+3049771Y+304709D02*
X+3049771Y+310709D01*
X+3049771Y+352709D02*
X+3049771Y+358709D01*
X+3050771Y+302709D02*
X+3050771Y+312709D01*
X+3050771Y+350709D02*
X+3050771Y+360709D01*
X+3050771Y+373709D02*
X+3050771Y+376709D01*
X+3050771Y+400709D02*
X+3050771Y+403709D01*
X+3051771Y+301709D02*
X+3051771Y+314709D01*
X+3051771Y+349709D02*
X+3051771Y+362709D01*
X+3051771Y+374709D02*
X+3051771Y+377709D01*
X+3051771Y+399709D02*
X+3051771Y+402709D01*
X+3052771Y+300709D02*
X+3052771Y+304709D01*
X+3052771Y+310709D02*
X+3052771Y+314709D01*
X+3052771Y+348709D02*
X+3052771Y+352709D01*
X+3052771Y+358709D02*
X+3052771Y+362709D01*
X+3052771Y+374709D02*
X+3052771Y+377709D01*
X+3052771Y+399709D02*
X+3052771Y+402709D01*
X+3053771Y+299709D02*
X+3053771Y+303709D01*
X+3053771Y+311709D02*
X+3053771Y+315709D01*
X+3053771Y+347709D02*
X+3053771Y+351709D01*
X+3053771Y+359709D02*
X+3053771Y+363709D01*
X+3053771Y+374709D02*
X+3053771Y+377709D01*
X+3053771Y+399709D02*
X+3053771Y+402709D01*
X+3054771Y+299709D02*
X+3054771Y+302709D01*
X+3054771Y+312709D02*
X+3054771Y+315709D01*
X+3054771Y+347709D02*
X+3054771Y+350709D01*
X+3054771Y+360709D02*
X+3054771Y+363709D01*
X+3054771Y+375709D02*
X+3054771Y+378709D01*
X+3054771Y+398709D02*
X+3054771Y+401709D01*
X+3055771Y+298709D02*
X+3055771Y+301709D01*
X+3055771Y+313709D02*
X+3055771Y+316709D01*
X+3055771Y+346709D02*
X+3055771Y+349709D01*
X+3055771Y+361709D02*
X+3055771Y+364709D01*
X+3055771Y+375709D02*
X+3055771Y+378709D01*
X+3055771Y+398709D02*
X+3055771Y+401709D01*
X+3056771Y+298709D02*
X+3056771Y+301709D01*
X+3056771Y+313709D02*
X+3056771Y+316709D01*
X+3056771Y+346709D02*
X+3056771Y+349709D01*
X+3056771Y+361709D02*
X+3056771Y+364709D01*
X+3056771Y+376709D02*
X+3056771Y+379709D01*
X+3056771Y+397709D02*
X+3056771Y+401709D01*
X+3057771Y+313709D02*
X+3057771Y+316709D01*
X+3057771Y+361709D02*
X+3057771Y+364709D01*
X+3057771Y+376709D02*
X+3057771Y+379709D01*
X+3057771Y+397709D02*
X+3057771Y+400709D01*
X+3058771Y+313709D02*
X+3058771Y+316709D01*
X+3058771Y+361709D02*
X+3058771Y+364709D01*
X+3058771Y+376709D02*
X+3058771Y+379709D01*
X+3058771Y+397709D02*
X+3058771Y+400709D01*
X+3059771Y+313709D02*
X+3059771Y+316709D01*
X+3059771Y+361709D02*
X+3059771Y+364709D01*
X+3059771Y+377709D02*
X+3059771Y+380709D01*
X+3059771Y+396709D02*
X+3059771Y+399709D01*
X+3060771Y+313709D02*
X+3060771Y+316709D01*
X+3060771Y+361709D02*
X+3060771Y+364709D01*
X+3060771Y+377709D02*
X+3060771Y+380709D01*
X+3060771Y+396709D02*
X+3060771Y+399709D01*
X+3061771Y+312709D02*
X+3061771Y+315709D01*
X+3061771Y+360709D02*
X+3061771Y+363709D01*
X+3061771Y+378709D02*
X+3061771Y+381709D01*
X+3061771Y+396709D02*
X+3061771Y+399709D01*
X+3062771Y+311709D02*
X+3062771Y+315709D01*
X+3062771Y+359709D02*
X+3062771Y+363709D01*
X+3062771Y+378709D02*
X+3062771Y+381709D01*
X+3062771Y+395709D02*
X+3062771Y+398709D01*
X+3063771Y+309709D02*
X+3063771Y+314709D01*
X+3063771Y+357709D02*
X+3063771Y+362709D01*
X+3063771Y+378709D02*
X+3063771Y+381709D01*
X+3063771Y+395709D02*
X+3063771Y+398709D01*
X+3064771Y+305709D02*
X+3064771Y+312709D01*
X+3064771Y+353709D02*
X+3064771Y+360709D01*
X+3064771Y+379709D02*
X+3064771Y+382709D01*
X+3064771Y+394709D02*
X+3064771Y+397709D01*
X+3065771Y+305709D02*
X+3065771Y+313709D01*
X+3065771Y+353709D02*
X+3065771Y+361709D01*
X+3065771Y+379709D02*
X+3065771Y+382709D01*
X+3065771Y+394709D02*
X+3065771Y+397709D01*
X+3066771Y+305709D02*
X+3066771Y+314709D01*
X+3066771Y+353709D02*
X+3066771Y+362709D01*
X+3066771Y+379709D02*
X+3066771Y+383709D01*
X+3066771Y+394709D02*
X+3066771Y+397709D01*
X+3067771Y+310709D02*
X+3067771Y+315709D01*
X+3067771Y+358709D02*
X+3067771Y+363709D01*
X+3067771Y+380709D02*
X+3067771Y+383709D01*
X+3067771Y+393709D02*
X+3067771Y+396709D01*
X+3068771Y+312709D02*
X+3068771Y+316709D01*
X+3068771Y+360709D02*
X+3068771Y+364709D01*
X+3068771Y+380709D02*
X+3068771Y+383709D01*
X+3068771Y+393709D02*
X+3068771Y+396709D01*
X+3069771Y+313709D02*
X+3069771Y+317709D01*
X+3069771Y+361709D02*
X+3069771Y+365709D01*
X+3069771Y+381709D02*
X+3069771Y+384709D01*
X+3069771Y+393709D02*
X+3069771Y+396709D01*
X+3070771Y+314709D02*
X+3070771Y+317709D01*
X+3070771Y+362709D02*
X+3070771Y+365709D01*
X+3070771Y+381709D02*
X+3070771Y+384709D01*
X+3070771Y+392709D02*
X+3070771Y+395709D01*
X+3071771Y+315709D02*
X+3071771Y+318709D01*
X+3071771Y+363709D02*
X+3071771Y+366709D01*
X+3071771Y+381709D02*
X+3071771Y+384709D01*
X+3071771Y+392709D02*
X+3071771Y+395709D01*
X+3072771Y+315709D02*
X+3072771Y+318709D01*
X+3072771Y+363709D02*
X+3072771Y+366709D01*
X+3072771Y+382709D02*
X+3072771Y+385709D01*
X+3072771Y+391709D02*
X+3072771Y+394709D01*
X+3073771Y+315709D02*
X+3073771Y+318709D01*
X+3073771Y+363709D02*
X+3073771Y+366709D01*
X+3073771Y+382709D02*
X+3073771Y+385709D01*
X+3073771Y+391709D02*
X+3073771Y+394709D01*
X+3074771Y+315709D02*
X+3074771Y+318709D01*
X+3074771Y+363709D02*
X+3074771Y+366709D01*
X+3074771Y+383709D02*
X+3074771Y+386709D01*
X+3074771Y+391709D02*
X+3074771Y+394709D01*
X+3075771Y+315709D02*
X+3075771Y+318709D01*
X+3075771Y+363709D02*
X+3075771Y+366709D01*
X+3075771Y+383709D02*
X+3075771Y+386709D01*
X+3075771Y+390709D02*
X+3075771Y+393709D01*
X+3076771Y+297709D02*
X+3076771Y+300709D01*
X+3076771Y+315709D02*
X+3076771Y+318709D01*
X+3076771Y+345709D02*
X+3076771Y+348709D01*
X+3076771Y+363709D02*
X+3076771Y+366709D01*
X+3076771Y+383709D02*
X+3076771Y+386709D01*
X+3076771Y+390709D02*
X+3076771Y+393709D01*
X+3077771Y+297709D02*
X+3077771Y+300709D01*
X+3077771Y+314709D02*
X+3077771Y+318709D01*
X+3077771Y+345709D02*
X+3077771Y+348709D01*
X+3077771Y+362709D02*
X+3077771Y+366709D01*
X+3077771Y+384709D02*
X+3077771Y+387709D01*
X+3077771Y+389709D02*
X+3077771Y+392709D01*
X+3078771Y+298709D02*
X+3078771Y+301709D01*
X+3078771Y+314709D02*
X+3078771Y+317709D01*
X+3078771Y+346709D02*
X+3078771Y+349709D01*
X+3078771Y+362709D02*
X+3078771Y+365709D01*
X+3078771Y+384709D02*
X+3078771Y+387709D01*
X+3078771Y+389709D02*
X+3078771Y+392709D01*
X+3079771Y+298709D02*
X+3079771Y+301709D01*
X+3079771Y+313709D02*
X+3079771Y+317709D01*
X+3079771Y+329709D02*
X+3079771Y+334709D01*
X+3079771Y+346709D02*
X+3079771Y+349709D01*
X+3079771Y+361709D02*
X+3079771Y+365709D01*
X+3079771Y+385709D02*
X+3079771Y+388709D01*
X+3079771Y+389709D02*
X+3079771Y+392709D01*
X+3080771Y+298709D02*
X+3080771Y+302709D01*
X+3080771Y+312709D02*
X+3080771Y+316709D01*
X+3080771Y+329709D02*
X+3080771Y+334709D01*
X+3080771Y+346709D02*
X+3080771Y+350709D01*
X+3080771Y+360709D02*
X+3080771Y+364709D01*
X+3080771Y+385709D02*
X+3080771Y+391709D01*
X+3081771Y+299709D02*
X+3081771Y+304709D01*
X+3081771Y+310709D02*
X+3081771Y+315709D01*
X+3081771Y+329709D02*
X+3081771Y+334709D01*
X+3081771Y+347709D02*
X+3081771Y+352709D01*
X+3081771Y+358709D02*
X+3081771Y+363709D01*
X+3081771Y+385709D02*
X+3081771Y+391709D01*
X+3082771Y+300709D02*
X+3082771Y+314709D01*
X+3082771Y+329709D02*
X+3082771Y+334709D01*
X+3082771Y+348709D02*
X+3082771Y+362709D01*
X+3082771Y+386709D02*
X+3082771Y+391709D01*
X+3083771Y+301709D02*
X+3083771Y+313709D01*
X+3083771Y+329709D02*
X+3083771Y+334709D01*
X+3083771Y+349709D02*
X+3083771Y+361709D01*
X+3083771Y+386709D02*
X+3083771Y+390709D01*
X+3084771Y+304709D02*
X+3084771Y+311709D01*
X+3084771Y+352709D02*
X+3084771Y+359709D01*
D25*
X+3040763Y+284945D02*
X+3104756Y+284945D01*
X+3104756Y+599591D01*
X+3040763Y+599591D01*
X+3040763Y+284945D01*
D27*
X+3066354Y+956178D02*
X+3070354Y+956178D01*
X+3066354Y+957178D02*
X+3070354Y+957178D01*
X+3066354Y+958178D02*
X+3070354Y+958178D01*
X+3066354Y+959178D02*
X+3070354Y+959178D01*
X+3066354Y+960178D02*
X+3070354Y+960178D01*
X+3066354Y+961178D02*
X+3070354Y+961178D01*
X+3066354Y+962178D02*
X+3070354Y+962178D01*
X+3066354Y+963178D02*
X+3070354Y+963178D01*
X+3066354Y+964178D02*
X+3070354Y+964178D01*
X+3066354Y+965178D02*
X+3070354Y+965178D01*
X+3066354Y+966178D02*
X+3070354Y+966178D01*
X+3066354Y+967178D02*
X+3070354Y+967178D01*
X+3066354Y+968178D02*
X+3070354Y+968178D01*
X+3066354Y+969178D02*
X+3070354Y+969178D01*
X+3066354Y+970178D02*
X+3070354Y+970178D01*
X+3066354Y+971178D02*
X+3070354Y+971178D01*
X+3066354Y+972178D02*
X+3070354Y+972178D01*
X+3066354Y+973178D02*
X+3070354Y+973178D01*
X+3066354Y+974178D02*
X+3070354Y+974178D01*
X+3066354Y+975178D02*
X+3070354Y+975178D01*
X+3066354Y+976178D02*
X+3070354Y+976178D01*
X+3066354Y+977178D02*
X+3070354Y+977178D01*
X+3066354Y+978178D02*
X+3070354Y+978178D01*
X+3066354Y+979178D02*
X+3070354Y+979178D01*
X+3066354Y+980178D02*
X+3070354Y+980178D01*
X+3066354Y+981178D02*
X+3070354Y+981178D01*
X+3066354Y+982178D02*
X+3070354Y+982178D01*
X+3066354Y+983178D02*
X+3070354Y+983178D01*
X+3066354Y+984178D02*
X+3070354Y+984178D01*
X+3066354Y+985178D02*
X+3070354Y+985178D01*
X+3066354Y+986178D02*
X+3070354Y+986178D01*
X+3066354Y+987178D02*
X+3070354Y+987178D01*
X+3067102Y+1060477D02*
X+3071102Y+1060477D01*
X+3067102Y+1061477D02*
X+3071102Y+1061477D01*
X+3067102Y+1062477D02*
X+3071102Y+1062477D01*
X+3067102Y+1063477D02*
X+3071102Y+1063477D01*
X+3067102Y+1064477D02*
X+3071102Y+1064477D01*
X+3067102Y+1065477D02*
X+3071102Y+1065477D01*
X+3067102Y+1066477D02*
X+3071102Y+1066477D01*
X+3067102Y+1067477D02*
X+3071102Y+1067477D01*
X+3067102Y+1068477D02*
X+3071102Y+1068477D01*
X+3067102Y+1069477D02*
X+3071102Y+1069477D01*
X+3067102Y+1070477D02*
X+3071102Y+1070477D01*
X+3067102Y+1071477D02*
X+3071102Y+1071477D01*
X+3067102Y+1072477D02*
X+3071102Y+1072477D01*
X+3067102Y+1073477D02*
X+3071102Y+1073477D01*
X+3067102Y+1074477D02*
X+3071102Y+1074477D01*
X+3052102Y+1075477D02*
X+3085102Y+1075477D01*
X+3052102Y+1076477D02*
X+3085102Y+1076477D01*
X+3052102Y+1077477D02*
X+3085102Y+1077477D01*
X+3052102Y+1078477D02*
X+3085102Y+1078477D01*
X+3067102Y+1079477D02*
X+3071102Y+1079477D01*
X+3067102Y+1080477D02*
X+3071102Y+1080477D01*
X+3067102Y+1081477D02*
X+3071102Y+1081477D01*
X+3067102Y+1082477D02*
X+3071102Y+1082477D01*
X+3067102Y+1083477D02*
X+3071102Y+1083477D01*
X+3067102Y+1084477D02*
X+3071102Y+1084477D01*
X+3067102Y+1085477D02*
X+3071102Y+1085477D01*
X+3067102Y+1086477D02*
X+3071102Y+1086477D01*
X+3067102Y+1087477D02*
X+3071102Y+1087477D01*
X+3067102Y+1088477D02*
X+3071102Y+1088477D01*
X+3067102Y+1089477D02*
X+3071102Y+1089477D01*
X+3067102Y+1090477D02*
X+3071102Y+1090477D01*
X+3067102Y+1091477D02*
X+3071102Y+1091477D01*
X+3067102Y+1092477D02*
X+3071102Y+1092477D01*
D25*
X+3039866Y+909583D02*
X+3102858Y+909583D01*
X+3102858Y+1125228D01*
X+3039866Y+1125228D01*
X+3039866Y+909583D01*
D28*
X+966433Y+279819D02*
X+966433Y+230606D01*
X+2586118Y+230606D01*
X+2586118Y+329031D01*
X+1026276Y+329031D01*
D27*
X+988567Y+361153D02*
X+988567Y+365153D01*
X+989567Y+359153D02*
X+989567Y+365153D01*
X+990567Y+358153D02*
X+990567Y+365153D01*
X+991567Y+357153D02*
X+991567Y+362153D01*
X+992567Y+357153D02*
X+992567Y+360153D01*
X+993567Y+356153D02*
X+993567Y+360153D01*
X+994567Y+356153D02*
X+994567Y+359153D01*
X+995567Y+356153D02*
X+995567Y+359153D01*
X+996567Y+356153D02*
X+996567Y+359153D01*
X+997567Y+356153D02*
X+997567Y+359153D01*
X+998567Y+356153D02*
X+998567Y+359153D01*
X+999567Y+356153D02*
X+999567Y+360153D01*
X+1000567Y+357153D02*
X+1000567Y+361153D01*
X+1001567Y+357153D02*
X+1001567Y+363153D01*
X+1002567Y+358153D02*
X+1002567Y+391153D01*
X+1003567Y+360153D02*
X+1003567Y+391153D01*
X+1004567Y+362153D02*
X+1004567Y+391153D01*
X+1016567Y+363153D02*
X+1016567Y+365153D01*
X+1017567Y+360153D02*
X+1017567Y+365153D01*
X+1017567Y+374153D02*
X+1017567Y+381153D01*
X+1018567Y+359153D02*
X+1018567Y+365153D01*
X+1018567Y+374153D02*
X+1018567Y+391153D01*
X+1019567Y+358153D02*
X+1019567Y+363153D01*
X+1019567Y+374153D02*
X+1019567Y+391153D01*
X+1020567Y+357153D02*
X+1020567Y+361153D01*
X+1020567Y+374153D02*
X+1020567Y+377153D01*
X+1020567Y+382153D02*
X+1020567Y+391153D01*
X+1021567Y+357153D02*
X+1021567Y+360153D01*
X+1021567Y+375153D02*
X+1021567Y+378153D01*
X+1021567Y+388153D02*
X+1021567Y+391153D01*
X+1022567Y+357153D02*
X+1022567Y+360153D01*
X+1022567Y+375153D02*
X+1022567Y+378153D01*
X+1022567Y+388153D02*
X+1022567Y+391153D01*
X+1023567Y+356153D02*
X+1023567Y+359153D01*
X+1023567Y+376153D02*
X+1023567Y+379153D01*
X+1023567Y+388153D02*
X+1023567Y+391153D01*
X+1024567Y+356153D02*
X+1024567Y+359153D01*
X+1024567Y+376153D02*
X+1024567Y+379153D01*
X+1024567Y+388153D02*
X+1024567Y+391153D01*
X+1025567Y+356153D02*
X+1025567Y+359153D01*
X+1025567Y+376153D02*
X+1025567Y+379153D01*
X+1025567Y+388153D02*
X+1025567Y+391153D01*
X+1026567Y+356153D02*
X+1026567Y+359153D01*
X+1026567Y+376153D02*
X+1026567Y+379153D01*
X+1026567Y+388153D02*
X+1026567Y+391153D01*
X+1027567Y+356153D02*
X+1027567Y+359153D01*
X+1027567Y+376153D02*
X+1027567Y+379153D01*
X+1027567Y+388153D02*
X+1027567Y+391153D01*
X+1028567Y+356153D02*
X+1028567Y+359153D01*
X+1028567Y+376153D02*
X+1028567Y+379153D01*
X+1028567Y+388153D02*
X+1028567Y+391153D01*
X+1029567Y+356153D02*
X+1029567Y+360153D01*
X+1029567Y+375153D02*
X+1029567Y+379153D01*
X+1029567Y+388153D02*
X+1029567Y+391153D01*
X+1030567Y+357153D02*
X+1030567Y+360153D01*
X+1030567Y+375153D02*
X+1030567Y+378153D01*
X+1030567Y+388153D02*
X+1030567Y+391153D01*
X+1031567Y+357153D02*
X+1031567Y+361153D01*
X+1031567Y+374153D02*
X+1031567Y+378153D01*
X+1031567Y+388153D02*
X+1031567Y+391153D01*
X+1032567Y+358153D02*
X+1032567Y+362153D01*
X+1032567Y+373153D02*
X+1032567Y+377153D01*
X+1032567Y+388153D02*
X+1032567Y+391153D01*
X+1033567Y+359153D02*
X+1033567Y+365153D01*
X+1033567Y+371153D02*
X+1033567Y+377153D01*
X+1033567Y+388153D02*
X+1033567Y+391153D01*
X+1034567Y+360153D02*
X+1034567Y+375153D01*
X+1034567Y+388153D02*
X+1034567Y+391153D01*
X+1035567Y+361153D02*
X+1035567Y+374153D01*
X+1036567Y+364153D02*
X+1036567Y+372153D01*
D25*
X+2338134Y+430575D02*
X+2398134Y+430575D01*
X+2339134Y+372575D02*
X+2398134Y+372575D01*
D27*
X+2202972Y+385145D02*
X+2205972Y+385145D01*
X+2227972Y+385145D02*
X+2230972Y+385145D01*
X+2252972Y+385145D02*
X+2255972Y+385145D01*
X+2202972Y+386145D02*
X+2205972Y+386145D01*
X+2226972Y+386145D02*
X+2229972Y+386145D01*
X+2252972Y+386145D02*
X+2255972Y+386145D01*
X+2202972Y+387145D02*
X+2205972Y+387145D01*
X+2226972Y+387145D02*
X+2229972Y+387145D01*
X+2252972Y+387145D02*
X+2255972Y+387145D01*
X+2202972Y+388145D02*
X+2205972Y+388145D01*
X+2226972Y+388145D02*
X+2229972Y+388145D01*
X+2252972Y+388145D02*
X+2255972Y+388145D01*
X+2202972Y+389145D02*
X+2205972Y+389145D01*
X+2225972Y+389145D02*
X+2228972Y+389145D01*
X+2252972Y+389145D02*
X+2255972Y+389145D01*
X+2202972Y+390145D02*
X+2205972Y+390145D01*
X+2225972Y+390145D02*
X+2228972Y+390145D01*
X+2252972Y+390145D02*
X+2255972Y+390145D01*
X+2202972Y+391145D02*
X+2205972Y+391145D01*
X+2224972Y+391145D02*
X+2227972Y+391145D01*
X+2252972Y+391145D02*
X+2255972Y+391145D01*
X+2202972Y+392145D02*
X+2205972Y+392145D01*
X+2224972Y+392145D02*
X+2227972Y+392145D01*
X+2252972Y+392145D02*
X+2255972Y+392145D01*
X+2202972Y+393145D02*
X+2205972Y+393145D01*
X+2224972Y+393145D02*
X+2226972Y+393145D01*
X+2252972Y+393145D02*
X+2255972Y+393145D01*
X+2202972Y+394145D02*
X+2205972Y+394145D01*
X+2223972Y+394145D02*
X+2226972Y+394145D01*
X+2252972Y+394145D02*
X+2255972Y+394145D01*
X+2202972Y+395145D02*
X+2205972Y+395145D01*
X+2223972Y+395145D02*
X+2226972Y+395145D01*
X+2252972Y+395145D02*
X+2255972Y+395145D01*
X+2202972Y+396145D02*
X+2205972Y+396145D01*
X+2222972Y+396145D02*
X+2225972Y+396145D01*
X+2252972Y+396145D02*
X+2255972Y+396145D01*
X+2202972Y+397145D02*
X+2205972Y+397145D01*
X+2222972Y+397145D02*
X+2225972Y+397145D01*
X+2252972Y+397145D02*
X+2255972Y+397145D01*
X+2202972Y+398145D02*
X+2205972Y+398145D01*
X+2221972Y+398145D02*
X+2224972Y+398145D01*
X+2252972Y+398145D02*
X+2255972Y+398145D01*
X+2202972Y+399145D02*
X+2205972Y+399145D01*
X+2219972Y+399145D02*
X+2223972Y+399145D01*
X+2252972Y+399145D02*
X+2255972Y+399145D01*
X+2202972Y+400145D02*
X+2222972Y+400145D01*
X+2252972Y+400145D02*
X+2255972Y+400145D01*
X+2202972Y+401145D02*
X+2224972Y+401145D01*
X+2252972Y+401145D02*
X+2255972Y+401145D01*
X+2202972Y+402145D02*
X+2226972Y+402145D01*
X+2252972Y+402145D02*
X+2255972Y+402145D01*
X+2202972Y+403145D02*
X+2205972Y+403145D01*
X+2222972Y+403145D02*
X+2227972Y+403145D01*
X+2252972Y+403145D02*
X+2255972Y+403145D01*
X+2202972Y+404145D02*
X+2205972Y+404145D01*
X+2224972Y+404145D02*
X+2228972Y+404145D01*
X+2252972Y+404145D02*
X+2255972Y+404145D01*
X+2202972Y+405145D02*
X+2205972Y+405145D01*
X+2225972Y+405145D02*
X+2228972Y+405145D01*
X+2252972Y+405145D02*
X+2255972Y+405145D01*
X+2202972Y+406145D02*
X+2205972Y+406145D01*
X+2225972Y+406145D02*
X+2229972Y+406145D01*
X+2252972Y+406145D02*
X+2255972Y+406145D01*
X+2202972Y+407145D02*
X+2205972Y+407145D01*
X+2226972Y+407145D02*
X+2229972Y+407145D01*
X+2252972Y+407145D02*
X+2255972Y+407145D01*
X+2202972Y+408145D02*
X+2205972Y+408145D01*
X+2226972Y+408145D02*
X+2229972Y+408145D01*
X+2252972Y+408145D02*
X+2255972Y+408145D01*
X+2202972Y+409145D02*
X+2205972Y+409145D01*
X+2226972Y+409145D02*
X+2229972Y+409145D01*
X+2252972Y+409145D02*
X+2255972Y+409145D01*
X+2202972Y+410145D02*
X+2205972Y+410145D01*
X+2226972Y+410145D02*
X+2229972Y+410145D01*
X+2244972Y+410145D02*
X+2247972Y+410145D01*
X+2252972Y+410145D02*
X+2255972Y+410145D01*
X+2202972Y+411145D02*
X+2205972Y+411145D01*
X+2226972Y+411145D02*
X+2229972Y+411145D01*
X+2244972Y+411145D02*
X+2250972Y+411145D01*
X+2252972Y+411145D02*
X+2255972Y+411145D01*
X+2202972Y+412145D02*
X+2205972Y+412145D01*
X+2226972Y+412145D02*
X+2229972Y+412145D01*
X+2244972Y+412145D02*
X+2251972Y+412145D01*
X+2252972Y+412145D02*
X+2255972Y+412145D01*
X+2202972Y+413145D02*
X+2205972Y+413145D01*
X+2225972Y+413145D02*
X+2228972Y+413145D01*
X+2247972Y+413145D02*
X+2255972Y+413145D01*
X+2202972Y+414145D02*
X+2205972Y+414145D01*
X+2224972Y+414145D02*
X+2228972Y+414145D01*
X+2249972Y+414145D02*
X+2255972Y+414145D01*
X+2202972Y+415145D02*
X+2205972Y+415145D01*
X+2222972Y+415145D02*
X+2227972Y+415145D01*
X+2250972Y+415145D02*
X+2255972Y+415145D01*
X+2202972Y+416145D02*
X+2226972Y+416145D01*
X+2251972Y+416145D02*
X+2255972Y+416145D01*
X+2202972Y+417145D02*
X+2225972Y+417145D01*
X+2252972Y+417145D02*
X+2255972Y+417145D01*
X+2202972Y+418145D02*
X+2222972Y+418145D01*
X+2252972Y+418145D02*
X+2255972Y+418145D01*
D25*
X+2585236Y+723976D02*
X+2575236Y+723976D01*
X+2575236Y+563976D01*
X+2580236Y+553976D01*
X+2635236Y+723976D02*
X+2645236Y+723976D01*
X+2645236Y+563976D01*
X+2640236Y+553976D01*
X+2562236Y+532772D02*
X+2581236Y+532772D01*
X+2571236Y+523772D02*
X+2571236Y+542772D01*
D27*
X+2591306Y+748412D02*
X+2600306Y+748412D01*
X+2589306Y+749412D02*
X+2603306Y+749412D01*
X+2631306Y+749412D02*
X+2634306Y+749412D01*
X+2587306Y+750412D02*
X+2604306Y+750412D01*
X+2631306Y+750412D02*
X+2634306Y+750412D01*
X+2586306Y+751412D02*
X+2592306Y+751412D01*
X+2600306Y+751412D02*
X+2606306Y+751412D01*
X+2631306Y+751412D02*
X+2634306Y+751412D01*
X+2585306Y+752412D02*
X+2589306Y+752412D01*
X+2602306Y+752412D02*
X+2607306Y+752412D01*
X+2631306Y+752412D02*
X+2634306Y+752412D01*
X+2584306Y+753412D02*
X+2588306Y+753412D01*
X+2604306Y+753412D02*
X+2607306Y+753412D01*
X+2631306Y+753412D02*
X+2634306Y+753412D01*
X+2583306Y+754412D02*
X+2587306Y+754412D01*
X+2604306Y+754412D02*
X+2608306Y+754412D01*
X+2631306Y+754412D02*
X+2634306Y+754412D01*
X+2582306Y+755412D02*
X+2586306Y+755412D01*
X+2605306Y+755412D02*
X+2608306Y+755412D01*
X+2631306Y+755412D02*
X+2634306Y+755412D01*
X+2582306Y+756412D02*
X+2585306Y+756412D01*
X+2606306Y+756412D02*
X+2609306Y+756412D01*
X+2631306Y+756412D02*
X+2634306Y+756412D01*
X+2581306Y+757412D02*
X+2585306Y+757412D01*
X+2606306Y+757412D02*
X+2609306Y+757412D01*
X+2631306Y+757412D02*
X+2634306Y+757412D01*
X+2581306Y+758412D02*
X+2584306Y+758412D01*
X+2631306Y+758412D02*
X+2634306Y+758412D01*
X+2581306Y+759412D02*
X+2584306Y+759412D01*
X+2631306Y+759412D02*
X+2634306Y+759412D01*
X+2581306Y+760412D02*
X+2584306Y+760412D01*
X+2631306Y+760412D02*
X+2634306Y+760412D01*
X+2580306Y+761412D02*
X+2583306Y+761412D01*
X+2631306Y+761412D02*
X+2634306Y+761412D01*
X+2580306Y+762412D02*
X+2583306Y+762412D01*
X+2631306Y+762412D02*
X+2634306Y+762412D01*
X+2580306Y+763412D02*
X+2583306Y+763412D01*
X+2631306Y+763412D02*
X+2634306Y+763412D01*
X+2580306Y+764412D02*
X+2583306Y+764412D01*
X+2631306Y+764412D02*
X+2634306Y+764412D01*
X+2580306Y+765412D02*
X+2583306Y+765412D01*
X+2631306Y+765412D02*
X+2634306Y+765412D01*
X+2580306Y+766412D02*
X+2583306Y+766412D01*
X+2631306Y+766412D02*
X+2634306Y+766412D01*
X+2580306Y+767412D02*
X+2583306Y+767412D01*
X+2631306Y+767412D02*
X+2634306Y+767412D01*
X+2580306Y+768412D02*
X+2583306Y+768412D01*
X+2631306Y+768412D02*
X+2634306Y+768412D01*
X+2580306Y+769412D02*
X+2583306Y+769412D01*
X+2631306Y+769412D02*
X+2634306Y+769412D01*
X+2580306Y+770412D02*
X+2583306Y+770412D01*
X+2631306Y+770412D02*
X+2634306Y+770412D01*
X+2581306Y+771412D02*
X+2584306Y+771412D01*
X+2631306Y+771412D02*
X+2634306Y+771412D01*
X+2581306Y+772412D02*
X+2584306Y+772412D01*
X+2631306Y+772412D02*
X+2634306Y+772412D01*
X+2581306Y+773412D02*
X+2584306Y+773412D01*
X+2631306Y+773412D02*
X+2634306Y+773412D01*
X+2581306Y+774412D02*
X+2585306Y+774412D01*
X+2606306Y+774412D02*
X+2609306Y+774412D01*
X+2623306Y+774412D02*
X+2626306Y+774412D01*
X+2631306Y+774412D02*
X+2634306Y+774412D01*
X+2582306Y+775412D02*
X+2585306Y+775412D01*
X+2605306Y+775412D02*
X+2609306Y+775412D01*
X+2623306Y+775412D02*
X+2629306Y+775412D01*
X+2631306Y+775412D02*
X+2634306Y+775412D01*
X+2582306Y+776412D02*
X+2586306Y+776412D01*
X+2605306Y+776412D02*
X+2608306Y+776412D01*
X+2623306Y+776412D02*
X+2630306Y+776412D01*
X+2631306Y+776412D02*
X+2634306Y+776412D01*
X+2583306Y+777412D02*
X+2587306Y+777412D01*
X+2604306Y+777412D02*
X+2608306Y+777412D01*
X+2626306Y+777412D02*
X+2634306Y+777412D01*
X+2584306Y+778412D02*
X+2588306Y+778412D01*
X+2603306Y+778412D02*
X+2607306Y+778412D01*
X+2628306Y+778412D02*
X+2634306Y+778412D01*
X+2585306Y+779412D02*
X+2589306Y+779412D01*
X+2602306Y+779412D02*
X+2606306Y+779412D01*
X+2629306Y+779412D02*
X+2634306Y+779412D01*
X+2586306Y+780412D02*
X+2592306Y+780412D01*
X+2599306Y+780412D02*
X+2605306Y+780412D01*
X+2630306Y+780412D02*
X+2634306Y+780412D01*
X+2587306Y+781412D02*
X+2604306Y+781412D01*
X+2631306Y+781412D02*
X+2634306Y+781412D01*
X+2589306Y+782412D02*
X+2602306Y+782412D01*
X+2631306Y+782412D02*
X+2634306Y+782412D01*
X+2591306Y+783412D02*
X+2600306Y+783412D01*
D25*
X+2467063Y+611740D02*
X+2467063Y+671740D01*
X+2525063Y+612740D02*
X+2525063Y+671740D01*
D27*
X+2472751Y+746286D02*
X+2481751Y+746286D01*
X+2470751Y+747286D02*
X+2484751Y+747286D01*
X+2500751Y+747286D02*
X+2519751Y+747286D01*
X+2468751Y+748286D02*
X+2485751Y+748286D01*
X+2500751Y+748286D02*
X+2519751Y+748286D01*
X+2467751Y+749286D02*
X+2473751Y+749286D01*
X+2481751Y+749286D02*
X+2487751Y+749286D01*
X+2500751Y+749286D02*
X+2519751Y+749286D01*
X+2466751Y+750286D02*
X+2470751Y+750286D01*
X+2483751Y+750286D02*
X+2488751Y+750286D01*
X+2500751Y+750286D02*
X+2503751Y+750286D01*
X+2465751Y+751286D02*
X+2469751Y+751286D01*
X+2485751Y+751286D02*
X+2488751Y+751286D01*
X+2500751Y+751286D02*
X+2503751Y+751286D01*
X+2464751Y+752286D02*
X+2468751Y+752286D01*
X+2485751Y+752286D02*
X+2489751Y+752286D01*
X+2500751Y+752286D02*
X+2503751Y+752286D01*
X+2463751Y+753286D02*
X+2467751Y+753286D01*
X+2486751Y+753286D02*
X+2489751Y+753286D01*
X+2501751Y+753286D02*
X+2503751Y+753286D01*
X+2463751Y+754286D02*
X+2466751Y+754286D01*
X+2487751Y+754286D02*
X+2490751Y+754286D01*
X+2501751Y+754286D02*
X+2504751Y+754286D01*
X+2462751Y+755286D02*
X+2466751Y+755286D01*
X+2487751Y+755286D02*
X+2490751Y+755286D01*
X+2501751Y+755286D02*
X+2504751Y+755286D01*
X+2462751Y+756286D02*
X+2465751Y+756286D01*
X+2502751Y+756286D02*
X+2505751Y+756286D01*
X+2462751Y+757286D02*
X+2465751Y+757286D01*
X+2502751Y+757286D02*
X+2506751Y+757286D01*
X+2462751Y+758286D02*
X+2465751Y+758286D01*
X+2503751Y+758286D02*
X+2507751Y+758286D01*
X+2461751Y+759286D02*
X+2464751Y+759286D01*
X+2504751Y+759286D02*
X+2508751Y+759286D01*
X+2461751Y+760286D02*
X+2464751Y+760286D01*
X+2505751Y+760286D02*
X+2509751Y+760286D01*
X+2461751Y+761286D02*
X+2464751Y+761286D01*
X+2506751Y+761286D02*
X+2510751Y+761286D01*
X+2461751Y+762286D02*
X+2464751Y+762286D01*
X+2507751Y+762286D02*
X+2512751Y+762286D01*
X+2461751Y+763286D02*
X+2464751Y+763286D01*
X+2509751Y+763286D02*
X+2513751Y+763286D01*
X+2461751Y+764286D02*
X+2464751Y+764286D01*
X+2510751Y+764286D02*
X+2514751Y+764286D01*
X+2461751Y+765286D02*
X+2464751Y+765286D01*
X+2511751Y+765286D02*
X+2515751Y+765286D01*
X+2461751Y+766286D02*
X+2464751Y+766286D01*
X+2512751Y+766286D02*
X+2516751Y+766286D01*
X+2461751Y+767286D02*
X+2464751Y+767286D01*
X+2513751Y+767286D02*
X+2517751Y+767286D01*
X+2461751Y+768286D02*
X+2464751Y+768286D01*
X+2514751Y+768286D02*
X+2518751Y+768286D01*
X+2462751Y+769286D02*
X+2465751Y+769286D01*
X+2515751Y+769286D02*
X+2518751Y+769286D01*
X+2462751Y+770286D02*
X+2465751Y+770286D01*
X+2516751Y+770286D02*
X+2519751Y+770286D01*
X+2462751Y+771286D02*
X+2465751Y+771286D01*
X+2516751Y+771286D02*
X+2519751Y+771286D01*
X+2462751Y+772286D02*
X+2466751Y+772286D01*
X+2487751Y+772286D02*
X+2490751Y+772286D01*
X+2516751Y+772286D02*
X+2519751Y+772286D01*
X+2463751Y+773286D02*
X+2466751Y+773286D01*
X+2486751Y+773286D02*
X+2490751Y+773286D01*
X+2516751Y+773286D02*
X+2519751Y+773286D01*
X+2463751Y+774286D02*
X+2467751Y+774286D01*
X+2486751Y+774286D02*
X+2489751Y+774286D01*
X+2516751Y+774286D02*
X+2519751Y+774286D01*
X+2464751Y+775286D02*
X+2468751Y+775286D01*
X+2485751Y+775286D02*
X+2489751Y+775286D01*
X+2515751Y+775286D02*
X+2519751Y+775286D01*
X+2465751Y+776286D02*
X+2469751Y+776286D01*
X+2484751Y+776286D02*
X+2488751Y+776286D01*
X+2502751Y+776286D02*
X+2503751Y+776286D01*
X+2515751Y+776286D02*
X+2518751Y+776286D01*
X+2466751Y+777286D02*
X+2470751Y+777286D01*
X+2483751Y+777286D02*
X+2487751Y+777286D01*
X+2500751Y+777286D02*
X+2505751Y+777286D01*
X+2514751Y+777286D02*
X+2518751Y+777286D01*
X+2467751Y+778286D02*
X+2473751Y+778286D01*
X+2480751Y+778286D02*
X+2486751Y+778286D01*
X+2501751Y+778286D02*
X+2507751Y+778286D01*
X+2513751Y+778286D02*
X+2517751Y+778286D01*
X+2468751Y+779286D02*
X+2485751Y+779286D01*
X+2502751Y+779286D02*
X+2516751Y+779286D01*
X+2470751Y+780286D02*
X+2483751Y+780286D01*
X+2504751Y+780286D02*
X+2515751Y+780286D01*
X+2472751Y+781286D02*
X+2481751Y+781286D01*
X+2506751Y+781286D02*
X+2513751Y+781286D01*
D26*
X+2090945Y+671260D02*
X+2090945Y+671260D01*
X+2090945Y+692913D01*
X+2090945Y+692913D01*
X+2090945Y+671260D01*
X+2350000Y+671260D01*
X+2350000Y+671260D01*
X+2090945Y+671260D01*
X+2090945Y+671260D01*
X+2350000Y+671260D02*
X+2350000Y+671260D01*
X+2350000Y+692913D01*
X+2350000Y+692913D01*
X+2350000Y+671260D01*
D28*
X+2129921Y+500000D02*
X+2131890Y+498031D01*
X+2133858Y+500000D01*
X+2131890Y+501969D01*
X+2129921Y+500000D01*
D27*
X+2020916Y+973735D02*
X+2020916Y+979735D01*
X+2021916Y+929735D02*
X+2021916Y+932735D01*
X+2021916Y+953735D02*
X+2021916Y+956735D01*
X+2021916Y+971735D02*
X+2021916Y+981735D01*
X+2022916Y+929735D02*
X+2022916Y+932735D01*
X+2022916Y+953735D02*
X+2022916Y+956735D01*
X+2022916Y+970735D02*
X+2022916Y+983735D01*
X+2023916Y+929735D02*
X+2023916Y+932735D01*
X+2023916Y+953735D02*
X+2023916Y+956735D01*
X+2023916Y+969735D02*
X+2023916Y+973735D01*
X+2023916Y+979735D02*
X+2023916Y+983735D01*
X+2024916Y+929735D02*
X+2024916Y+932735D01*
X+2024916Y+953735D02*
X+2024916Y+956735D01*
X+2024916Y+968735D02*
X+2024916Y+972735D01*
X+2024916Y+980735D02*
X+2024916Y+984735D01*
X+2025916Y+929735D02*
X+2025916Y+932735D01*
X+2025916Y+953735D02*
X+2025916Y+956735D01*
X+2025916Y+968735D02*
X+2025916Y+971735D01*
X+2025916Y+981735D02*
X+2025916Y+984735D01*
X+2026916Y+929735D02*
X+2026916Y+932735D01*
X+2026916Y+953735D02*
X+2026916Y+956735D01*
X+2026916Y+967735D02*
X+2026916Y+970735D01*
X+2026916Y+982735D02*
X+2026916Y+985735D01*
X+2027916Y+929735D02*
X+2027916Y+932735D01*
X+2027916Y+953735D02*
X+2027916Y+956735D01*
X+2027916Y+967735D02*
X+2027916Y+970735D01*
X+2027916Y+982735D02*
X+2027916Y+985735D01*
X+2028916Y+929735D02*
X+2028916Y+932735D01*
X+2028916Y+953735D02*
X+2028916Y+956735D01*
X+2028916Y+982735D02*
X+2028916Y+985735D01*
X+2029916Y+929735D02*
X+2029916Y+932735D01*
X+2029916Y+953735D02*
X+2029916Y+956735D01*
X+2029916Y+982735D02*
X+2029916Y+985735D01*
X+2030916Y+929735D02*
X+2030916Y+932735D01*
X+2030916Y+953735D02*
X+2030916Y+956735D01*
X+2030916Y+982735D02*
X+2030916Y+985735D01*
X+2031916Y+929735D02*
X+2031916Y+932735D01*
X+2031916Y+953735D02*
X+2031916Y+956735D01*
X+2031916Y+982735D02*
X+2031916Y+985735D01*
X+2032916Y+929735D02*
X+2032916Y+932735D01*
X+2032916Y+953735D02*
X+2032916Y+956735D01*
X+2032916Y+981735D02*
X+2032916Y+984735D01*
X+2033916Y+929735D02*
X+2033916Y+932735D01*
X+2033916Y+953735D02*
X+2033916Y+956735D01*
X+2033916Y+980735D02*
X+2033916Y+984735D01*
X+2034916Y+929735D02*
X+2034916Y+932735D01*
X+2034916Y+953735D02*
X+2034916Y+956735D01*
X+2034916Y+978735D02*
X+2034916Y+983735D01*
X+2035916Y+929735D02*
X+2035916Y+932735D01*
X+2035916Y+953735D02*
X+2035916Y+956735D01*
X+2035916Y+974735D02*
X+2035916Y+981735D01*
X+2036916Y+929735D02*
X+2036916Y+932735D01*
X+2036916Y+953735D02*
X+2036916Y+956735D01*
X+2036916Y+974735D02*
X+2036916Y+982735D01*
X+2037916Y+929735D02*
X+2037916Y+932735D01*
X+2037916Y+953735D02*
X+2037916Y+956735D01*
X+2037916Y+974735D02*
X+2037916Y+983735D01*
X+2038916Y+929735D02*
X+2038916Y+932735D01*
X+2038916Y+953735D02*
X+2038916Y+956735D01*
X+2038916Y+979735D02*
X+2038916Y+984735D01*
X+2039916Y+929735D02*
X+2039916Y+932735D01*
X+2039916Y+953735D02*
X+2039916Y+956735D01*
X+2039916Y+981735D02*
X+2039916Y+985735D01*
X+2040916Y+929735D02*
X+2040916Y+932735D01*
X+2040916Y+953735D02*
X+2040916Y+956735D01*
X+2040916Y+982735D02*
X+2040916Y+986735D01*
X+2041916Y+929735D02*
X+2041916Y+932735D01*
X+2041916Y+953735D02*
X+2041916Y+956735D01*
X+2041916Y+983735D02*
X+2041916Y+986735D01*
X+2042916Y+929735D02*
X+2042916Y+932735D01*
X+2042916Y+953735D02*
X+2042916Y+956735D01*
X+2042916Y+984735D02*
X+2042916Y+987735D01*
X+2043916Y+929735D02*
X+2043916Y+932735D01*
X+2043916Y+953735D02*
X+2043916Y+956735D01*
X+2043916Y+984735D02*
X+2043916Y+987735D01*
X+2044916Y+929735D02*
X+2044916Y+932735D01*
X+2044916Y+953735D02*
X+2044916Y+956735D01*
X+2044916Y+984735D02*
X+2044916Y+987735D01*
X+2045916Y+929735D02*
X+2045916Y+932735D01*
X+2045916Y+953735D02*
X+2045916Y+956735D01*
X+2045916Y+984735D02*
X+2045916Y+987735D01*
X+2046916Y+929735D02*
X+2046916Y+933735D01*
X+2046916Y+952735D02*
X+2046916Y+956735D01*
X+2046916Y+984735D02*
X+2046916Y+987735D01*
X+2047916Y+930735D02*
X+2047916Y+933735D01*
X+2047916Y+952735D02*
X+2047916Y+955735D01*
X+2047916Y+966735D02*
X+2047916Y+969735D01*
X+2047916Y+984735D02*
X+2047916Y+987735D01*
X+2048916Y+930735D02*
X+2048916Y+933735D01*
X+2048916Y+952735D02*
X+2048916Y+955735D01*
X+2048916Y+966735D02*
X+2048916Y+969735D01*
X+2048916Y+983735D02*
X+2048916Y+987735D01*
X+2049916Y+930735D02*
X+2049916Y+934735D01*
X+2049916Y+951735D02*
X+2049916Y+955735D01*
X+2049916Y+967735D02*
X+2049916Y+970735D01*
X+2049916Y+983735D02*
X+2049916Y+986735D01*
X+2050916Y+931735D02*
X+2050916Y+935735D01*
X+2050916Y+950735D02*
X+2050916Y+954735D01*
X+2050916Y+967735D02*
X+2050916Y+970735D01*
X+2050916Y+982735D02*
X+2050916Y+986735D01*
X+2051916Y+931735D02*
X+2051916Y+936735D01*
X+2051916Y+949735D02*
X+2051916Y+954735D01*
X+2051916Y+967735D02*
X+2051916Y+971735D01*
X+2051916Y+981735D02*
X+2051916Y+985735D01*
X+2052916Y+932735D02*
X+2052916Y+938735D01*
X+2052916Y+947735D02*
X+2052916Y+953735D01*
X+2052916Y+968735D02*
X+2052916Y+973735D01*
X+2052916Y+979735D02*
X+2052916Y+984735D01*
X+2053916Y+933735D02*
X+2053916Y+952735D01*
X+2053916Y+969735D02*
X+2053916Y+983735D01*
X+2054916Y+935735D02*
X+2054916Y+950735D01*
X+2054916Y+970735D02*
X+2054916Y+982735D01*
X+2055916Y+938735D02*
X+2055916Y+947735D01*
X+2055916Y+973735D02*
X+2055916Y+980735D01*
D25*
X+2005378Y+671724D02*
X+2005378Y+611724D01*
X+1947378Y+670724D02*
X+1947378Y+611724D01*
D27*
X+1955145Y+744334D02*
X+1964145Y+744334D01*
X+1953145Y+745334D02*
X+1967145Y+745334D01*
X+1996145Y+745334D02*
X+1999145Y+745334D01*
X+1951145Y+746334D02*
X+1968145Y+746334D01*
X+1996145Y+746334D02*
X+1999145Y+746334D01*
X+1950145Y+747334D02*
X+1956145Y+747334D01*
X+1964145Y+747334D02*
X+1970145Y+747334D01*
X+1996145Y+747334D02*
X+1999145Y+747334D01*
X+1949145Y+748334D02*
X+1953145Y+748334D01*
X+1966145Y+748334D02*
X+1971145Y+748334D01*
X+1996145Y+748334D02*
X+1999145Y+748334D01*
X+1948145Y+749334D02*
X+1952145Y+749334D01*
X+1968145Y+749334D02*
X+1971145Y+749334D01*
X+1996145Y+749334D02*
X+1999145Y+749334D01*
X+1947145Y+750334D02*
X+1951145Y+750334D01*
X+1968145Y+750334D02*
X+1972145Y+750334D01*
X+1996145Y+750334D02*
X+1999145Y+750334D01*
X+1946145Y+751334D02*
X+1950145Y+751334D01*
X+1969145Y+751334D02*
X+1972145Y+751334D01*
X+1996145Y+751334D02*
X+1999145Y+751334D01*
X+1946145Y+752334D02*
X+1949145Y+752334D01*
X+1970145Y+752334D02*
X+1973145Y+752334D01*
X+1996145Y+752334D02*
X+1999145Y+752334D01*
X+1945145Y+753334D02*
X+1949145Y+753334D01*
X+1970145Y+753334D02*
X+1973145Y+753334D01*
X+1996145Y+753334D02*
X+1999145Y+753334D01*
X+1945145Y+754334D02*
X+1948145Y+754334D01*
X+1996145Y+754334D02*
X+1999145Y+754334D01*
X+1945145Y+755334D02*
X+1948145Y+755334D01*
X+1982145Y+755334D02*
X+2005145Y+755334D01*
X+1945145Y+756334D02*
X+1948145Y+756334D01*
X+1982145Y+756334D02*
X+2005145Y+756334D01*
X+1944145Y+757334D02*
X+1947145Y+757334D01*
X+1982145Y+757334D02*
X+2005145Y+757334D01*
X+1944145Y+758334D02*
X+1947145Y+758334D01*
X+1982145Y+758334D02*
X+1985145Y+758334D01*
X+1996145Y+758334D02*
X+1999145Y+758334D01*
X+1944145Y+759334D02*
X+1947145Y+759334D01*
X+1983145Y+759334D02*
X+1986145Y+759334D01*
X+1996145Y+759334D02*
X+1999145Y+759334D01*
X+1944145Y+760334D02*
X+1947145Y+760334D01*
X+1983145Y+760334D02*
X+1986145Y+760334D01*
X+1996145Y+760334D02*
X+1999145Y+760334D01*
X+1944145Y+761334D02*
X+1947145Y+761334D01*
X+1984145Y+761334D02*
X+1987145Y+761334D01*
X+1996145Y+761334D02*
X+1999145Y+761334D01*
X+1944145Y+762334D02*
X+1947145Y+762334D01*
X+1985145Y+762334D02*
X+1988145Y+762334D01*
X+1996145Y+762334D02*
X+1999145Y+762334D01*
X+1944145Y+763334D02*
X+1947145Y+763334D01*
X+1985145Y+763334D02*
X+1988145Y+763334D01*
X+1996145Y+763334D02*
X+1999145Y+763334D01*
X+1944145Y+764334D02*
X+1947145Y+764334D01*
X+1986145Y+764334D02*
X+1989145Y+764334D01*
X+1996145Y+764334D02*
X+1999145Y+764334D01*
X+1944145Y+765334D02*
X+1947145Y+765334D01*
X+1987145Y+765334D02*
X+1989145Y+765334D01*
X+1996145Y+765334D02*
X+1999145Y+765334D01*
X+1944145Y+766334D02*
X+1947145Y+766334D01*
X+1987145Y+766334D02*
X+1990145Y+766334D01*
X+1996145Y+766334D02*
X+1999145Y+766334D01*
X+1945145Y+767334D02*
X+1948145Y+767334D01*
X+1988145Y+767334D02*
X+1991145Y+767334D01*
X+1996145Y+767334D02*
X+1999145Y+767334D01*
X+1945145Y+768334D02*
X+1948145Y+768334D01*
X+1988145Y+768334D02*
X+1991145Y+768334D01*
X+1996145Y+768334D02*
X+1999145Y+768334D01*
X+1945145Y+769334D02*
X+1948145Y+769334D01*
X+1989145Y+769334D02*
X+1992145Y+769334D01*
X+1996145Y+769334D02*
X+1999145Y+769334D01*
X+1945145Y+770334D02*
X+1949145Y+770334D01*
X+1970145Y+770334D02*
X+1973145Y+770334D01*
X+1990145Y+770334D02*
X+1993145Y+770334D01*
X+1996145Y+770334D02*
X+1999145Y+770334D01*
X+1946145Y+771334D02*
X+1949145Y+771334D01*
X+1969145Y+771334D02*
X+1973145Y+771334D01*
X+1990145Y+771334D02*
X+1993145Y+771334D01*
X+1996145Y+771334D02*
X+1999145Y+771334D01*
X+1946145Y+772334D02*
X+1950145Y+772334D01*
X+1969145Y+772334D02*
X+1972145Y+772334D01*
X+1991145Y+772334D02*
X+1994145Y+772334D01*
X+1996145Y+772334D02*
X+1999145Y+772334D01*
X+1947145Y+773334D02*
X+1951145Y+773334D01*
X+1968145Y+773334D02*
X+1972145Y+773334D01*
X+1992145Y+773334D02*
X+1994145Y+773334D01*
X+1996145Y+773334D02*
X+1999145Y+773334D01*
X+1948145Y+774334D02*
X+1952145Y+774334D01*
X+1967145Y+774334D02*
X+1971145Y+774334D01*
X+1992145Y+774334D02*
X+1995145Y+774334D01*
X+1996145Y+774334D02*
X+1999145Y+774334D01*
X+1949145Y+775334D02*
X+1953145Y+775334D01*
X+1966145Y+775334D02*
X+1970145Y+775334D01*
X+1993145Y+775334D02*
X+1999145Y+775334D01*
X+1950145Y+776334D02*
X+1956145Y+776334D01*
X+1963145Y+776334D02*
X+1969145Y+776334D01*
X+1993145Y+776334D02*
X+1999145Y+776334D01*
X+1951145Y+777334D02*
X+1968145Y+777334D01*
X+1994145Y+777334D02*
X+1999145Y+777334D01*
X+1953145Y+778334D02*
X+1966145Y+778334D01*
X+1995145Y+778334D02*
X+1999145Y+778334D01*
X+1955145Y+779334D02*
X+1964145Y+779334D01*
D25*
X+1859646Y+559488D02*
X+1869646Y+559488D01*
X+1869646Y+719488D01*
X+1864646Y+729488D01*
X+1809646Y+559488D02*
X+1799646Y+559488D01*
X+1799646Y+719488D01*
X+1804646Y+729488D01*
X+1882646Y+750693D02*
X+1863646Y+750693D01*
X+1873646Y+759693D02*
X+1873646Y+740693D01*
D27*
X+1812968Y+773704D02*
X+1821968Y+773704D01*
X+1846968Y+773704D02*
X+1853968Y+773704D01*
X+1810968Y+774704D02*
X+1824968Y+774704D01*
X+1843968Y+774704D02*
X+1855968Y+774704D01*
X+1808968Y+775704D02*
X+1825968Y+775704D01*
X+1842968Y+775704D02*
X+1856968Y+775704D01*
X+1807968Y+776704D02*
X+1813968Y+776704D01*
X+1821968Y+776704D02*
X+1827968Y+776704D01*
X+1841968Y+776704D02*
X+1846968Y+776704D01*
X+1852968Y+776704D02*
X+1857968Y+776704D01*
X+1806968Y+777704D02*
X+1810968Y+777704D01*
X+1823968Y+777704D02*
X+1828968Y+777704D01*
X+1840968Y+777704D02*
X+1844968Y+777704D01*
X+1854968Y+777704D02*
X+1858968Y+777704D01*
X+1805968Y+778704D02*
X+1809968Y+778704D01*
X+1825968Y+778704D02*
X+1828968Y+778704D01*
X+1840968Y+778704D02*
X+1843968Y+778704D01*
X+1855968Y+778704D02*
X+1859968Y+778704D01*
X+1804968Y+779704D02*
X+1808968Y+779704D01*
X+1825968Y+779704D02*
X+1829968Y+779704D01*
X+1840968Y+779704D02*
X+1843968Y+779704D01*
X+1856968Y+779704D02*
X+1859968Y+779704D01*
X+1803968Y+780704D02*
X+1807968Y+780704D01*
X+1826968Y+780704D02*
X+1829968Y+780704D01*
X+1839968Y+780704D02*
X+1842968Y+780704D01*
X+1856968Y+780704D02*
X+1860968Y+780704D01*
X+1803968Y+781704D02*
X+1806968Y+781704D01*
X+1827968Y+781704D02*
X+1830968Y+781704D01*
X+1839968Y+781704D02*
X+1842968Y+781704D01*
X+1857968Y+781704D02*
X+1860968Y+781704D01*
X+1802968Y+782704D02*
X+1806968Y+782704D01*
X+1827968Y+782704D02*
X+1830968Y+782704D01*
X+1857968Y+782704D02*
X+1860968Y+782704D01*
X+1802968Y+783704D02*
X+1805968Y+783704D01*
X+1857968Y+783704D02*
X+1860968Y+783704D01*
X+1802968Y+784704D02*
X+1805968Y+784704D01*
X+1857968Y+784704D02*
X+1860968Y+784704D01*
X+1802968Y+785704D02*
X+1805968Y+785704D01*
X+1857968Y+785704D02*
X+1860968Y+785704D01*
X+1801968Y+786704D02*
X+1804968Y+786704D01*
X+1857968Y+786704D02*
X+1860968Y+786704D01*
X+1801968Y+787704D02*
X+1804968Y+787704D01*
X+1856968Y+787704D02*
X+1859968Y+787704D01*
X+1801968Y+788704D02*
X+1804968Y+788704D01*
X+1855968Y+788704D02*
X+1859968Y+788704D01*
X+1801968Y+789704D02*
X+1804968Y+789704D01*
X+1854968Y+789704D02*
X+1858968Y+789704D01*
X+1801968Y+790704D02*
X+1804968Y+790704D01*
X+1852968Y+790704D02*
X+1857968Y+790704D01*
X+1801968Y+791704D02*
X+1804968Y+791704D01*
X+1847968Y+791704D02*
X+1856968Y+791704D01*
X+1801968Y+792704D02*
X+1804968Y+792704D01*
X+1847968Y+792704D02*
X+1855968Y+792704D01*
X+1801968Y+793704D02*
X+1804968Y+793704D01*
X+1847968Y+793704D02*
X+1854968Y+793704D01*
X+1801968Y+794704D02*
X+1804968Y+794704D01*
X+1851968Y+794704D02*
X+1856968Y+794704D01*
X+1801968Y+795704D02*
X+1804968Y+795704D01*
X+1853968Y+795704D02*
X+1857968Y+795704D01*
X+1802968Y+796704D02*
X+1805968Y+796704D01*
X+1854968Y+796704D02*
X+1857968Y+796704D01*
X+1802968Y+797704D02*
X+1805968Y+797704D01*
X+1855968Y+797704D02*
X+1858968Y+797704D01*
X+1802968Y+798704D02*
X+1805968Y+798704D01*
X+1855968Y+798704D02*
X+1858968Y+798704D01*
X+1802968Y+799704D02*
X+1806968Y+799704D01*
X+1827968Y+799704D02*
X+1830968Y+799704D01*
X+1855968Y+799704D02*
X+1858968Y+799704D01*
X+1803968Y+800704D02*
X+1806968Y+800704D01*
X+1826968Y+800704D02*
X+1830968Y+800704D01*
X+1855968Y+800704D02*
X+1858968Y+800704D01*
X+1803968Y+801704D02*
X+1807968Y+801704D01*
X+1826968Y+801704D02*
X+1829968Y+801704D01*
X+1840968Y+801704D02*
X+1843968Y+801704D01*
X+1855968Y+801704D02*
X+1858968Y+801704D01*
X+1804968Y+802704D02*
X+1808968Y+802704D01*
X+1825968Y+802704D02*
X+1829968Y+802704D01*
X+1840968Y+802704D02*
X+1843968Y+802704D01*
X+1855968Y+802704D02*
X+1858968Y+802704D01*
X+1805968Y+803704D02*
X+1809968Y+803704D01*
X+1824968Y+803704D02*
X+1828968Y+803704D01*
X+1841968Y+803704D02*
X+1844968Y+803704D01*
X+1854968Y+803704D02*
X+1857968Y+803704D01*
X+1806968Y+804704D02*
X+1810968Y+804704D01*
X+1823968Y+804704D02*
X+1827968Y+804704D01*
X+1841968Y+804704D02*
X+1845968Y+804704D01*
X+1853968Y+804704D02*
X+1857968Y+804704D01*
X+1807968Y+805704D02*
X+1813968Y+805704D01*
X+1820968Y+805704D02*
X+1826968Y+805704D01*
X+1842968Y+805704D02*
X+1846968Y+805704D01*
X+1852968Y+805704D02*
X+1856968Y+805704D01*
X+1808968Y+806704D02*
X+1825968Y+806704D01*
X+1843968Y+806704D02*
X+1856968Y+806704D01*
X+1810968Y+807704D02*
X+1823968Y+807704D01*
X+1844968Y+807704D02*
X+1854968Y+807704D01*
X+1812968Y+808704D02*
X+1821968Y+808704D01*
X+1846968Y+808704D02*
X+1852968Y+808704D01*
D25*
X+775591Y+228346D02*
X+3102362Y+228346D01*
X+3102362Y+1129921D01*
X+775591Y+1129921D01*
X+775591Y+228346D01*
M02*
