M48
INCH,TZ
T01C0.0150
T02C0.0400
T03C0.0437
T04C0.1000
T05C0.0512
T06C0.0433
%
T01
X+23053Y+4535
T02
X+10263Y+2798
X+11263Y+2798
X+12263Y+2798
X+13263Y+2798
X+14263Y+2798
X+15263Y+2798
X+16263Y+2798
X+17263Y+2798
X+18263Y+2798
X+19263Y+2798
X+20263Y+2798
X+21263Y+2798
X+22263Y+2798
X+23263Y+2798
X+24263Y+2798
X+25263Y+2798
X+14263Y+10798
X+25263Y+10793
X+24263Y+10793
X+23263Y+10793
X+22263Y+10793
X+21263Y+10793
X+20263Y+10793
X+19263Y+10793
X+18263Y+10793
X+17263Y+10793
X+16263Y+10793
X+15263Y+10793
X+14263Y+10793
T03
X+25263Y+10798
X+24263Y+10798
X+23263Y+10798
X+22263Y+10798
X+21263Y+10798
X+20263Y+10798
X+19263Y+10798
X+18263Y+10798
X+17263Y+10798
X+16263Y+10798
X+15263Y+10798
T04
X+8763Y+3298
X+8763Y+10298
X+26763Y+3298
X+26763Y+10298
T05
X+29097Y+9679
X+29097Y+10679
X+29121Y+3426
X+29121Y+4426
X+29121Y+5426
T06
X+10263Y+2798
X+11263Y+2798
X+12263Y+2798
X+13263Y+2798
X+14263Y+2798
X+15263Y+2798
X+16263Y+2798
X+17263Y+2798
X+18263Y+2798
X+19263Y+2798
X+20263Y+2798
X+21263Y+2798
X+22263Y+2798
X+23263Y+2798
X+24263Y+2798
X+25263Y+2798
M30
